G04 EAGLE Gerber RS-274X export*
G75*
%MOMM*%
%FSLAX34Y34*%
%LPD*%
%INTop Copper*%
%IPPOS*%
%AMOC8*
5,1,8,0,0,1.08239X$1,22.5*%
G01*
%ADD10C,2.540000*%
%ADD11C,2.000000*%
%ADD12R,2.000000X2.000000*%
%ADD13C,0.704800*%
%ADD14C,0.850000*%
%ADD15C,2.552700*%
%ADD16C,0.654800*%
%ADD17C,0.152400*%


D10*
X152400Y977900D03*
X215900Y1003300D03*
D11*
X177800Y901700D03*
D12*
X203200Y901700D03*
D10*
X342900Y977900D03*
X406400Y1003300D03*
D11*
X368300Y901700D03*
D12*
X393700Y901700D03*
D10*
X533400Y977900D03*
X596900Y1003300D03*
D11*
X558800Y901700D03*
D12*
X584200Y901700D03*
D10*
X723900Y977900D03*
X787400Y1003300D03*
D11*
X749300Y901700D03*
D12*
X774700Y901700D03*
D10*
X914400Y977900D03*
X977900Y1003300D03*
D11*
X939800Y901700D03*
D12*
X965200Y901700D03*
D10*
X1104900Y977900D03*
X1168400Y1003300D03*
D11*
X1130300Y901700D03*
D12*
X1155700Y901700D03*
D10*
X1295400Y977900D03*
X1358900Y1003300D03*
D11*
X1320800Y901700D03*
D12*
X1346200Y901700D03*
D10*
X1485900Y977900D03*
X1549400Y1003300D03*
D11*
X1511300Y901700D03*
D12*
X1536700Y901700D03*
D10*
X1676400Y977900D03*
X1739900Y1003300D03*
D11*
X1701800Y901700D03*
D12*
X1727200Y901700D03*
D10*
X1866900Y977900D03*
X1930400Y1003300D03*
D11*
X1892300Y901700D03*
D12*
X1917700Y901700D03*
D10*
X2057400Y977900D03*
X2120900Y1003300D03*
D11*
X2082800Y901700D03*
D12*
X2108200Y901700D03*
D10*
X2247900Y977900D03*
X2311400Y1003300D03*
D11*
X2273300Y901700D03*
D12*
X2298700Y901700D03*
D10*
X2438400Y977900D03*
X2501900Y1003300D03*
D11*
X2463800Y901700D03*
D12*
X2489200Y901700D03*
D10*
X200025Y787400D03*
X263525Y812800D03*
D11*
X225425Y711200D03*
D12*
X250825Y711200D03*
D10*
X438150Y787400D03*
X501650Y812800D03*
D11*
X463550Y711200D03*
D12*
X488950Y711200D03*
D10*
X628650Y787400D03*
X692150Y812800D03*
D11*
X654050Y711200D03*
D12*
X679450Y711200D03*
D10*
X819150Y787400D03*
X882650Y812800D03*
D11*
X844550Y711200D03*
D12*
X869950Y711200D03*
D10*
X1009650Y787400D03*
X1073150Y812800D03*
D11*
X1035050Y711200D03*
D12*
X1060450Y711200D03*
D10*
X1200150Y787400D03*
X1263650Y812800D03*
D11*
X1225550Y711200D03*
D12*
X1250950Y711200D03*
D10*
X1390650Y787400D03*
X1454150Y812800D03*
D11*
X1416050Y711200D03*
D12*
X1441450Y711200D03*
D10*
X1581150Y787400D03*
X1644650Y812800D03*
D11*
X1606550Y711200D03*
D12*
X1631950Y711200D03*
D10*
X1771650Y787400D03*
X1835150Y812800D03*
D11*
X1797050Y711200D03*
D12*
X1822450Y711200D03*
D10*
X1962150Y787400D03*
X2025650Y812800D03*
D11*
X1987550Y711200D03*
D12*
X2012950Y711200D03*
D10*
X2152650Y787400D03*
X2216150Y812800D03*
D11*
X2178050Y711200D03*
D12*
X2203450Y711200D03*
D10*
X2343150Y787400D03*
X2406650Y812800D03*
D11*
X2368550Y711200D03*
D12*
X2393950Y711200D03*
D10*
X2533650Y787400D03*
X2597150Y812800D03*
D11*
X2559050Y711200D03*
D12*
X2584450Y711200D03*
D10*
X2771775Y787400D03*
X2835275Y812800D03*
D11*
X2797175Y711200D03*
D12*
X2822575Y711200D03*
D10*
X223838Y596900D03*
X287338Y622300D03*
D11*
X249238Y520700D03*
D12*
X274638Y520700D03*
D10*
X485775Y596900D03*
X549275Y622300D03*
D11*
X511175Y520700D03*
D12*
X536575Y520700D03*
D10*
X676275Y596900D03*
X739775Y622300D03*
D11*
X701675Y520700D03*
D12*
X727075Y520700D03*
D10*
X866775Y596900D03*
X930275Y622300D03*
D11*
X892175Y520700D03*
D12*
X917575Y520700D03*
D10*
X1057275Y596900D03*
X1120775Y622300D03*
D11*
X1082675Y520700D03*
D12*
X1108075Y520700D03*
D10*
X1247775Y596900D03*
X1311275Y622300D03*
D11*
X1273175Y520700D03*
D12*
X1298575Y520700D03*
D10*
X1438275Y596900D03*
X1501775Y622300D03*
D11*
X1463675Y520700D03*
D12*
X1489075Y520700D03*
D10*
X1628775Y596900D03*
X1692275Y622300D03*
D11*
X1654175Y520700D03*
D12*
X1679575Y520700D03*
D10*
X1819275Y596900D03*
X1882775Y622300D03*
D11*
X1844675Y520700D03*
D12*
X1870075Y520700D03*
D10*
X2009775Y596900D03*
X2073275Y622300D03*
D11*
X2035175Y520700D03*
D12*
X2060575Y520700D03*
D10*
X2200275Y596900D03*
X2263775Y622300D03*
D11*
X2225675Y520700D03*
D12*
X2251075Y520700D03*
D10*
X2390775Y596900D03*
X2454275Y622300D03*
D11*
X2416175Y520700D03*
D12*
X2441575Y520700D03*
D10*
X581025Y406400D03*
X644525Y431800D03*
D11*
X606425Y330200D03*
D12*
X631825Y330200D03*
D10*
X771525Y406400D03*
X835025Y431800D03*
D11*
X796925Y330200D03*
D12*
X822325Y330200D03*
D10*
X962025Y406400D03*
X1025525Y431800D03*
D11*
X987425Y330200D03*
D12*
X1012825Y330200D03*
D10*
X1152525Y406400D03*
X1216025Y431800D03*
D11*
X1177925Y330200D03*
D12*
X1203325Y330200D03*
D10*
X1343025Y406400D03*
X1406525Y431800D03*
D11*
X1368425Y330200D03*
D12*
X1393825Y330200D03*
D10*
X1533525Y406400D03*
X1597025Y431800D03*
D11*
X1558925Y330200D03*
D12*
X1584325Y330200D03*
D10*
X1724025Y406400D03*
X1787525Y431800D03*
D11*
X1749425Y330200D03*
D12*
X1774825Y330200D03*
D10*
X1914525Y406400D03*
X1978025Y431800D03*
D11*
X1939925Y330200D03*
D12*
X1965325Y330200D03*
D10*
X2105025Y406400D03*
X2168525Y431800D03*
D11*
X2130425Y330200D03*
D12*
X2155825Y330200D03*
D10*
X2295525Y406400D03*
X2359025Y431800D03*
D11*
X2320925Y330200D03*
D12*
X2346325Y330200D03*
D10*
X2557463Y406400D03*
X2620963Y431800D03*
D11*
X2582863Y330200D03*
D12*
X2608263Y330200D03*
D10*
X176213Y215900D03*
X239713Y241300D03*
D11*
X201613Y139700D03*
D12*
X227013Y139700D03*
D10*
X414338Y215900D03*
X477838Y241300D03*
D11*
X439738Y139700D03*
D12*
X465138Y139700D03*
D10*
X676275Y215900D03*
X739775Y241300D03*
D11*
X701675Y139700D03*
D12*
X727075Y139700D03*
D10*
X2081213Y215900D03*
X2144713Y241300D03*
D11*
X2106613Y139700D03*
D12*
X2132013Y139700D03*
D10*
X2295525Y215900D03*
X2359025Y241300D03*
D11*
X2320925Y139700D03*
D12*
X2346325Y139700D03*
D10*
X2557463Y215900D03*
X2620963Y241300D03*
D11*
X2582863Y139700D03*
D12*
X2608263Y139700D03*
D10*
X2795588Y215900D03*
X2859088Y241300D03*
D11*
X2820988Y139700D03*
D12*
X2846388Y139700D03*
D10*
X176213Y596900D03*
X239713Y622300D03*
D11*
X201613Y520700D03*
D12*
X227013Y520700D03*
D10*
X2581275Y596900D03*
X2644775Y622300D03*
D11*
X2606675Y520700D03*
D12*
X2632075Y520700D03*
D10*
X2819400Y977900D03*
X2882900Y1003300D03*
D11*
X2844800Y901700D03*
D12*
X2870200Y901700D03*
D10*
X200025Y215900D03*
X263525Y241300D03*
D11*
X225425Y139700D03*
D12*
X250825Y139700D03*
D10*
X438150Y215900D03*
X501650Y241300D03*
D11*
X463550Y139700D03*
D12*
X488950Y139700D03*
D10*
X652463Y215900D03*
X715963Y241300D03*
D11*
X677863Y139700D03*
D12*
X703263Y139700D03*
D10*
X2319338Y215900D03*
X2382838Y241300D03*
D11*
X2344738Y139700D03*
D12*
X2370138Y139700D03*
D10*
X2533650Y215900D03*
X2597150Y241300D03*
D11*
X2559050Y139700D03*
D12*
X2584450Y139700D03*
D10*
X2771775Y215900D03*
X2835275Y241300D03*
D11*
X2797175Y139700D03*
D12*
X2822575Y139700D03*
D10*
X2819400Y406400D03*
X2882900Y431800D03*
D11*
X2844800Y330200D03*
D12*
X2870200Y330200D03*
D10*
X271463Y406400D03*
X334963Y431800D03*
D11*
X296863Y330200D03*
D12*
X322263Y330200D03*
D10*
X2652713Y406400D03*
X2716213Y431800D03*
D11*
X2678113Y330200D03*
D12*
X2703513Y330200D03*
D10*
X2724150Y977900D03*
X2787650Y1003300D03*
D11*
X2749550Y901700D03*
D12*
X2774950Y901700D03*
D10*
X2795588Y692150D03*
X2859088Y717550D03*
D11*
X2820988Y615950D03*
D12*
X2846388Y615950D03*
D10*
X1081088Y215900D03*
X1144588Y241300D03*
D11*
X1106488Y139700D03*
D12*
X1131888Y139700D03*
D10*
X1890713Y215900D03*
X1954213Y241300D03*
D11*
X1916113Y139700D03*
D12*
X1941513Y139700D03*
D10*
X1485900Y215900D03*
X1549400Y241300D03*
D11*
X1511300Y139700D03*
D12*
X1536700Y139700D03*
D10*
X2628900Y977900D03*
X2692400Y1003300D03*
D11*
X2654300Y901700D03*
D12*
X2679700Y901700D03*
D10*
X2700338Y596900D03*
X2763838Y622300D03*
D11*
X2725738Y520700D03*
D12*
X2751138Y520700D03*
D10*
X1366838Y215900D03*
X1430338Y241300D03*
D11*
X1392238Y139700D03*
D12*
X1417638Y139700D03*
D13*
X308083Y986510D03*
X304083Y993510D03*
X296083Y993510D03*
X292083Y986510D03*
X288083Y993510D03*
X284083Y986510D03*
X276083Y986510D03*
X272083Y993510D03*
X268083Y986510D03*
X264083Y993510D03*
X256083Y993510D03*
X252083Y986510D03*
D14*
X235183Y1033060D02*
X235183Y1041560D01*
X238783Y996760D02*
X238783Y988260D01*
X321383Y988260D02*
X321383Y996760D01*
X324983Y1033060D02*
X324983Y1041560D01*
D15*
X130672Y480263D02*
X105145Y480263D01*
X337287Y769940D02*
X362814Y769940D01*
X1367684Y574399D02*
X1393211Y574399D01*
X2686203Y765556D02*
X2711730Y765556D01*
X2916204Y480245D02*
X2941731Y480245D01*
X2014662Y203598D02*
X1989135Y203598D01*
D16*
X333375Y738188D03*
D17*
X314343Y757220D01*
X314343Y814399D02*
X333378Y833434D01*
D16*
X334197Y834253D03*
D17*
X333378Y833434D01*
X314343Y814399D02*
X314343Y757220D01*
D16*
X258940Y920054D03*
X329746Y902937D03*
D17*
X332745Y916286D02*
X332745Y925774D01*
X332745Y904338D02*
X331344Y902937D01*
X329746Y902937D01*
X332745Y925774D02*
X313737Y944782D01*
X313737Y971662D02*
X315569Y973494D01*
X313737Y971662D02*
X313737Y944782D01*
D16*
X315569Y973494D03*
D17*
X357188Y984806D02*
X357886Y984107D01*
X357886Y966435D01*
X332745Y916286D02*
X332745Y904338D01*
X352215Y935756D02*
X352215Y960764D01*
X352215Y935756D02*
X332745Y916286D01*
X352215Y960764D02*
X357886Y966435D01*
D16*
X222410Y962592D03*
D17*
X222410Y931551D01*
X233907Y920054D02*
X258940Y920054D01*
X233907Y920054D02*
X222410Y931551D01*
X329746Y902937D02*
X333378Y899304D01*
X333378Y833434D01*
X363286Y581204D02*
X363286Y480207D01*
D16*
X363286Y480207D03*
X428339Y803053D03*
D17*
X428339Y856964D01*
X428625Y857250D01*
D16*
X428625Y857250D03*
X401760Y312615D03*
D17*
X404813Y315667D01*
X404813Y381000D01*
D16*
X404813Y381000D03*
X388037Y605954D03*
D17*
X363286Y581204D01*
D16*
X368635Y999528D03*
D17*
X357188Y988080D01*
X357188Y984806D01*
X1380448Y713698D02*
X1380448Y574399D01*
X1402908Y772704D02*
X1418046Y787842D01*
X1439454Y787842D01*
X1402908Y736158D02*
X1380448Y713698D01*
X1402908Y736158D02*
X1402908Y772704D01*
X1439454Y787842D02*
X1441484Y785813D01*
X1448590Y785813D01*
D16*
X1448590Y785813D03*
X1905000Y238125D03*
D17*
X1915642Y247058D02*
X1930780Y262196D01*
X1930780Y283604D01*
X1915642Y298742D01*
X1913933Y247058D02*
X1905000Y238125D01*
X1913933Y247058D02*
X1915642Y247058D01*
X1886591Y298742D02*
X1881188Y304145D01*
D16*
X1881188Y304145D03*
D17*
X1886591Y298742D02*
X1915642Y298742D01*
X350051Y769940D02*
X333375Y753264D01*
X333375Y738188D01*
D16*
X259835Y956102D03*
X295551Y964604D03*
D17*
X287191Y954580D02*
X279639Y954580D01*
X287191Y954580D02*
X292531Y959920D01*
X292531Y961584D01*
X295551Y964604D01*
X278117Y956102D02*
X259835Y956102D01*
X278117Y956102D02*
X279639Y954580D01*
D16*
X515394Y971832D03*
X513614Y897126D03*
D17*
X506358Y946559D02*
X506358Y958441D01*
X515394Y967477D02*
X515394Y971832D01*
X515394Y967477D02*
X506358Y958441D01*
X506358Y946559D02*
X513614Y939303D01*
X513614Y897126D01*
D16*
X476250Y428625D03*
D17*
X476250Y543133D01*
X450408Y568975D01*
X450408Y716265D02*
X461647Y727503D01*
D16*
X461647Y727503D03*
X535339Y738188D03*
X521343Y829027D03*
D17*
X535339Y750006D02*
X535339Y738188D01*
X535339Y750006D02*
X541392Y756059D01*
X541392Y808978D01*
X521343Y829027D01*
X450408Y716265D02*
X450408Y568975D01*
X344555Y976245D02*
X342900Y977900D01*
X344555Y976245D02*
X344555Y945397D01*
X334036Y934878D01*
D16*
X334036Y934878D03*
X2905125Y595313D03*
D17*
X2905125Y760166D01*
X2890246Y775046D01*
X2890246Y796454D01*
X2846796Y926658D02*
X2831658Y941796D01*
X2831658Y965642D02*
X2819400Y977900D01*
X2831658Y965642D02*
X2831658Y941796D01*
X2846796Y926658D02*
X2868475Y926658D01*
X2907092Y888041D02*
X2907092Y813301D01*
X2907092Y888041D02*
X2868475Y926658D01*
X2907092Y813301D02*
X2890246Y796454D01*
X2768546Y665108D02*
X2700338Y596900D01*
X2768546Y665108D02*
X2768546Y672691D01*
X2776947Y681092D01*
X2784530Y681092D01*
X2795588Y692150D01*
D16*
X125131Y638322D03*
X118998Y925968D03*
D17*
X118998Y644454D01*
X125131Y638322D01*
D16*
X154722Y646136D03*
D17*
X154722Y733685D01*
D16*
X154722Y733685D03*
X145286Y631887D03*
X142875Y571500D03*
D17*
X142875Y629476D01*
X145286Y631887D01*
D16*
X136198Y628839D03*
D17*
X130158Y622799D01*
X130158Y507693D01*
D16*
X224141Y366294D03*
D17*
X152639Y485211D02*
X130158Y507693D01*
X224141Y370736D02*
X224141Y366294D01*
X224141Y370736D02*
X152639Y442238D01*
X152639Y485211D01*
D16*
X127110Y629234D03*
D17*
X127110Y506430D01*
X149591Y483949D02*
X149591Y221391D01*
X149591Y483949D02*
X127110Y506430D01*
X142875Y214675D02*
X142875Y190500D01*
D16*
X142875Y190500D03*
D17*
X142875Y214675D02*
X149591Y221391D01*
X215900Y963646D02*
X215900Y1003300D01*
X215900Y963646D02*
X216342Y963204D01*
X216342Y859983D02*
X263525Y812800D01*
X216342Y859983D02*
X216342Y963204D01*
X263525Y812800D02*
X263525Y773146D01*
X263967Y772704D01*
X263967Y645671D02*
X287338Y622300D01*
X263967Y645671D02*
X263967Y772704D01*
X287338Y622300D02*
X287338Y582646D01*
X287780Y582204D01*
X287780Y476250D01*
X287780Y474221D01*
X335405Y391704D02*
X335405Y370296D01*
X334963Y392146D02*
X334963Y431800D01*
X334963Y392146D02*
X335405Y391704D01*
X309563Y344454D02*
X309563Y285750D01*
X309563Y344454D02*
X335405Y370296D01*
X309563Y285750D02*
X265113Y241300D01*
X263525Y241300D01*
X332230Y431800D02*
X287780Y476250D01*
X332230Y431800D02*
X334963Y431800D01*
X500438Y814012D02*
X500438Y947851D01*
X500438Y814012D02*
X501650Y812800D01*
X500438Y947851D02*
X444989Y1003300D01*
X406400Y1003300D01*
X501650Y812800D02*
X501650Y773146D01*
X502092Y772704D01*
X502092Y669483D02*
X532008Y639567D01*
X549275Y622300D01*
X502092Y669483D02*
X502092Y772704D01*
X549275Y622300D02*
X556684Y614891D01*
X556684Y556092D01*
X644720Y468056D02*
X644720Y431995D01*
X644525Y431800D01*
X644720Y468056D02*
X556684Y556092D01*
X583402Y370677D02*
X583402Y323052D01*
X501650Y241300D01*
X619567Y406842D02*
X644525Y431800D01*
X619567Y406842D02*
X608421Y406842D01*
X593283Y391704D01*
X593283Y380558D01*
X583402Y370677D01*
D16*
X532008Y639567D03*
D17*
X596900Y963646D02*
X596900Y1003300D01*
X596900Y963646D02*
X597342Y963204D01*
X597342Y907608D02*
X692150Y812800D01*
X597342Y907608D02*
X597342Y963204D01*
X692150Y812800D02*
X692150Y773146D01*
X692592Y772704D01*
X692592Y669483D02*
X708336Y653739D01*
X739775Y622300D01*
X692592Y669483D02*
X692592Y772704D01*
X739775Y622300D02*
X739775Y582646D01*
X740217Y582204D01*
X740217Y526608D02*
X835025Y431800D01*
X740217Y526608D02*
X740217Y582204D01*
X739775Y336550D02*
X739775Y241300D01*
X810067Y406842D02*
X835025Y431800D01*
X810067Y406842D02*
X798921Y406842D01*
X783783Y391704D01*
X783783Y380558D01*
X739775Y336550D01*
D16*
X708336Y653739D03*
D17*
X787400Y963646D02*
X787400Y1003300D01*
X787400Y963646D02*
X787842Y963204D01*
X787842Y907608D02*
X882650Y812800D01*
X787842Y907608D02*
X787842Y963204D01*
X882650Y812800D02*
X882650Y773146D01*
X883092Y772704D01*
X883092Y669483D02*
X895630Y656945D01*
X930275Y622300D01*
X883092Y669483D02*
X883092Y772704D01*
X930275Y622300D02*
X930275Y582646D01*
X930717Y582204D01*
X930717Y526608D02*
X1025525Y431800D01*
X930717Y526608D02*
X930717Y582204D01*
X1025525Y431800D02*
X1025525Y392146D01*
X1025967Y391704D01*
X1025967Y359921D02*
X1144588Y241300D01*
X1025967Y359921D02*
X1025967Y391704D01*
D16*
X895630Y656945D03*
D17*
X977900Y963646D02*
X977900Y1003300D01*
X977900Y963646D02*
X978342Y963204D01*
X978342Y907608D02*
X1073150Y812800D01*
X978342Y907608D02*
X978342Y963204D01*
X1073150Y812800D02*
X1073150Y773146D01*
X1073592Y772704D01*
X1073592Y669483D02*
X1083204Y659871D01*
X1120775Y622300D01*
X1073592Y669483D02*
X1073592Y772704D01*
X1120775Y622300D02*
X1120775Y582646D01*
X1121217Y582204D01*
X1121217Y526608D02*
X1216025Y431800D01*
X1121217Y526608D02*
X1121217Y582204D01*
D16*
X1083204Y659871D03*
D17*
X1168400Y963646D02*
X1168400Y1003300D01*
X1168400Y963646D02*
X1168842Y963204D01*
X1168842Y907608D02*
X1263650Y812800D01*
X1168842Y907608D02*
X1168842Y963204D01*
X1263650Y812800D02*
X1263650Y773146D01*
X1264092Y772704D01*
X1264092Y669483D02*
X1270436Y663139D01*
X1311275Y622300D01*
X1264092Y669483D02*
X1264092Y772704D01*
X1311275Y622300D02*
X1311275Y582646D01*
X1311717Y582204D01*
X1311717Y526608D02*
X1406525Y431800D01*
X1311717Y526608D02*
X1311717Y582204D01*
D16*
X1270436Y663139D03*
D17*
X1358900Y963646D02*
X1358900Y1003300D01*
X1358900Y963646D02*
X1359342Y963204D01*
X1359342Y907608D02*
X1454150Y812800D01*
X1359342Y907608D02*
X1359342Y963204D01*
X1454150Y812800D02*
X1454150Y773146D01*
X1454592Y772704D01*
X1454592Y669483D02*
X1458394Y665681D01*
X1501775Y622300D01*
X1454592Y669483D02*
X1454592Y772704D01*
X1501775Y622300D02*
X1501775Y582646D01*
X1502217Y582204D01*
X1502217Y526608D02*
X1597025Y431800D01*
X1502217Y526608D02*
X1502217Y582204D01*
X1597025Y431800D02*
X1572067Y406842D01*
X1560921Y406842D01*
X1545783Y391704D01*
X1549400Y322350D02*
X1549400Y241300D01*
X1545783Y325967D02*
X1545783Y391704D01*
X1545783Y325967D02*
X1549400Y322350D01*
D16*
X1458394Y665681D03*
D17*
X1549400Y963646D02*
X1549400Y1003300D01*
X1549400Y963646D02*
X1549842Y963204D01*
X1549842Y907608D02*
X1644650Y812800D01*
X1549842Y907608D02*
X1549842Y963204D01*
X1644650Y812800D02*
X1644650Y773146D01*
X1645092Y772704D01*
X1692275Y622300D02*
X1692275Y582646D01*
X1692717Y582204D01*
X1692717Y526608D02*
X1787525Y431800D01*
X1692717Y526608D02*
X1692717Y582204D01*
D16*
X1645092Y669255D03*
D17*
X1692047Y622300D02*
X1692275Y622300D01*
X1645092Y669255D02*
X1645092Y772704D01*
X1645092Y669255D02*
X1692047Y622300D01*
X1739900Y963646D02*
X1739900Y1003300D01*
X1739900Y963646D02*
X1740342Y963204D01*
X1740342Y907608D02*
X1835150Y812800D01*
X1740342Y907608D02*
X1740342Y963204D01*
X1835150Y812800D02*
X1835150Y773146D01*
X1835592Y772704D01*
X1835592Y669483D02*
X1882775Y622300D01*
X1835592Y672303D02*
X1835592Y772704D01*
X1835592Y672303D02*
X1835592Y669483D01*
X1882775Y622300D02*
X1882775Y582646D01*
X1883217Y582204D01*
X1883217Y526608D02*
X1978025Y431800D01*
X1883217Y526608D02*
X1883217Y582204D01*
D16*
X1835592Y672303D03*
D17*
X1930400Y963646D02*
X1930400Y1003300D01*
X1930400Y963646D02*
X1930842Y963204D01*
X1930842Y907608D02*
X2025650Y812800D01*
X1930842Y907608D02*
X1930842Y963204D01*
X2025650Y812800D02*
X2025650Y773146D01*
X2026092Y772704D01*
X2026092Y669483D02*
X2073275Y622300D01*
X2026092Y675351D02*
X2026092Y772704D01*
X2026092Y675351D02*
X2026092Y669483D01*
X2073275Y622300D02*
X2073275Y582646D01*
X2073717Y582204D01*
X2073717Y526608D02*
X2168525Y431800D01*
X2073717Y526608D02*
X2073717Y582204D01*
X2168525Y431800D02*
X2168525Y392146D01*
X2168967Y391704D01*
X2168967Y265555D01*
X2144713Y241300D01*
D16*
X2026092Y675351D03*
D17*
X2120900Y963646D02*
X2120900Y1003300D01*
X2120900Y963646D02*
X2121342Y963204D01*
X2121342Y907608D02*
X2216150Y812800D01*
X2121342Y907608D02*
X2121342Y963204D01*
X2216150Y812800D02*
X2216150Y773146D01*
X2216592Y772704D01*
X2216592Y678399D01*
X2216592Y664721D01*
X2259013Y622300D01*
X2263775Y622300D01*
X2263775Y582646D01*
X2264217Y582204D01*
X2264217Y526608D02*
X2359025Y431800D01*
X2264217Y526608D02*
X2264217Y582204D01*
X2359025Y431800D02*
X2359025Y392146D01*
X2359467Y391704D01*
X2359467Y370296D01*
X2359025Y369854D01*
X2359025Y241300D01*
D16*
X2216592Y678399D03*
D17*
X2311400Y963646D02*
X2311400Y1003300D01*
X2311400Y963646D02*
X2311842Y963204D01*
X2311842Y907608D02*
X2406650Y812800D01*
X2311842Y907608D02*
X2311842Y963204D01*
X2406650Y812800D02*
X2406650Y773146D01*
X2407092Y772704D01*
X2407092Y669483D02*
X2454275Y622300D01*
X2407092Y681447D02*
X2407092Y772704D01*
X2407092Y681447D02*
X2407092Y669483D01*
X2494017Y558746D02*
X2620963Y431800D01*
X2494017Y558746D02*
X2494017Y577441D01*
X2454275Y617183D02*
X2454275Y622300D01*
X2454275Y617183D02*
X2494017Y577441D01*
D16*
X2407092Y681447D03*
D17*
X2501900Y963646D02*
X2501900Y1003300D01*
X2501900Y963646D02*
X2502342Y963204D01*
X2502342Y907608D02*
X2597150Y812800D01*
X2502342Y907608D02*
X2502342Y963204D01*
X2597150Y812800D02*
X2597150Y773146D01*
X2597592Y772704D01*
X2597592Y693174D01*
X2600730Y690036D01*
X2712596Y582204D02*
X2727733Y597342D01*
X2712596Y582204D02*
X2712596Y560796D01*
X2738880Y597342D02*
X2763838Y622300D01*
X2738880Y597342D02*
X2727733Y597342D01*
X2712596Y560796D02*
X2713452Y559940D01*
X2713452Y434561D02*
X2716213Y431800D01*
X2713452Y434561D02*
X2713452Y559940D01*
X2680108Y406842D02*
X2664971Y391704D01*
X2691255Y406842D02*
X2716213Y431800D01*
X2691255Y406842D02*
X2680108Y406842D01*
X2664971Y285308D02*
X2620963Y241300D01*
X2664971Y285308D02*
X2664971Y391704D01*
D16*
X2600730Y690036D03*
D17*
X2644775Y645991D02*
X2644775Y622300D01*
X2644775Y645991D02*
X2600730Y690036D01*
X2787650Y963646D02*
X2787650Y1003300D01*
X2787650Y963646D02*
X2788092Y963204D01*
X2788092Y859983D02*
X2835275Y812800D01*
X2788092Y859983D02*
X2788092Y963204D01*
X2835275Y812800D02*
X2835275Y773146D01*
X2835717Y772704D01*
X2835717Y740921D02*
X2859088Y717550D01*
X2835717Y740921D02*
X2835717Y772704D01*
X2859088Y717550D02*
X2859088Y677896D01*
X2859530Y677454D01*
X2859530Y669237D01*
X2883280Y478396D02*
X2881313Y476429D01*
X2883280Y645487D02*
X2859530Y669237D01*
X2883280Y645487D02*
X2883280Y571500D01*
X2883280Y478396D01*
X2883342Y265555D02*
X2859088Y241300D01*
X2881313Y433388D02*
X2881313Y476429D01*
X2881313Y433388D02*
X2882900Y431800D01*
X2882900Y392146D01*
X2883342Y391704D01*
X2883342Y265555D01*
D16*
X2883280Y571500D03*
D17*
X215011Y781193D02*
X215011Y793607D01*
X215011Y781193D02*
X212283Y778465D01*
X177800Y830818D02*
X177800Y901700D01*
X177800Y830818D02*
X215011Y793607D01*
X212283Y724342D02*
X225425Y711200D01*
X212283Y724342D02*
X212283Y778465D01*
X225425Y711200D02*
X225425Y629206D01*
X188471Y560796D02*
X201613Y547654D01*
X201613Y520700D01*
X208852Y603107D02*
X208852Y612632D01*
X208852Y603107D02*
X188471Y582726D01*
X208852Y612632D02*
X225425Y629206D01*
X188471Y582726D02*
X188471Y560796D01*
X201613Y520700D02*
X286449Y435864D01*
X286449Y394432D01*
X283721Y391704D01*
X283721Y343342D02*
X296863Y330200D01*
X283721Y343342D02*
X283721Y391704D01*
X149171Y184559D02*
X157572Y176158D01*
X197549Y230886D02*
X296863Y330200D01*
X197549Y230886D02*
X170005Y230886D01*
X165155Y176158D02*
X157572Y176158D01*
X165155Y176158D02*
X201613Y139700D01*
X149171Y210051D02*
X170005Y230886D01*
X149171Y210051D02*
X149171Y184559D01*
X2740191Y508414D02*
X2762084Y508414D01*
X2803580Y598542D02*
X2820988Y615950D01*
X2803580Y549909D02*
X2762084Y508414D01*
X2803580Y549909D02*
X2803580Y598542D01*
X2727905Y520700D02*
X2725738Y520700D01*
X2727905Y520700D02*
X2740191Y508414D01*
X2810574Y685943D02*
X2810574Y698357D01*
X2801795Y707136D01*
X2801239Y707136D01*
X2797175Y711200D01*
X2807846Y629092D02*
X2820988Y615950D01*
X2807846Y629092D02*
X2807846Y683215D01*
X2810574Y685943D01*
X2786761Y793607D02*
X2762250Y818118D01*
X2786761Y793607D02*
X2786761Y778995D01*
X2784033Y724342D02*
X2797175Y711200D01*
X2784033Y724342D02*
X2784033Y776267D01*
X2786761Y778995D01*
X2762250Y889000D02*
X2749550Y901700D01*
X2762250Y889000D02*
X2762250Y818118D01*
X2725738Y377825D02*
X2678113Y330200D01*
X2725738Y443468D02*
X2725738Y520700D01*
X2725738Y443468D02*
X2731199Y438007D01*
X2731199Y425593D01*
X2725738Y420132D01*
X2725738Y377825D01*
D16*
X1558659Y288399D03*
D17*
X1558659Y329934D01*
X1558925Y330200D01*
X1558659Y187059D02*
X1511300Y139700D01*
X1558659Y187059D02*
X1558659Y229366D01*
X1564386Y235093D01*
X1564386Y247507D01*
X1558659Y253235D01*
X1558659Y288399D01*
D16*
X1857375Y285750D03*
D17*
X1857375Y330693D01*
D16*
X1857375Y330693D03*
D17*
X1879655Y176158D02*
X1916113Y139700D01*
X1879655Y176158D02*
X1872072Y176158D01*
X1857375Y190855D01*
X1857375Y285750D01*
D16*
X1093466Y283841D03*
D17*
X1096074Y222107D02*
X1096074Y209693D01*
X1096074Y222107D02*
X1093466Y224715D01*
X1093466Y283841D01*
X1093346Y152842D02*
X1106488Y139700D01*
X1093346Y152842D02*
X1093346Y206965D01*
X1096074Y209693D01*
D16*
X343439Y714009D03*
D17*
X343439Y733685D01*
X343896Y734143D01*
X343439Y733772D02*
X343439Y733685D01*
D16*
X343439Y733772D03*
D17*
X463550Y711200D02*
X463550Y706207D01*
X496024Y673733D01*
D16*
X496024Y673733D03*
X428625Y673733D03*
D17*
X428625Y650927D02*
X428625Y619125D01*
X428625Y561218D02*
X428625Y500063D01*
X433357Y495330D01*
X433357Y484252D01*
X447927Y469682D01*
D16*
X447927Y469682D03*
X430547Y649006D03*
D17*
X428625Y650927D01*
X428625Y673733D01*
D16*
X428625Y619125D03*
X428625Y561218D03*
D17*
X428625Y619125D01*
D16*
X348603Y549721D03*
D17*
X336847Y561477D01*
X336847Y611507D02*
X339443Y614103D01*
D16*
X339443Y614103D03*
D17*
X336847Y611507D02*
X336847Y561477D01*
D16*
X608612Y828566D03*
D17*
X608612Y851888D01*
X558800Y901700D01*
X641405Y176158D02*
X677863Y139700D01*
X641405Y176158D02*
X633822Y176158D01*
X606425Y203555D01*
X606425Y330200D01*
X2416175Y520700D02*
X2436813Y500063D01*
X2476500Y500063D01*
D16*
X2476500Y500063D03*
D17*
X746569Y861760D02*
X746569Y898969D01*
D16*
X746569Y861760D03*
D17*
X746569Y898969D02*
X749300Y901700D01*
D16*
X349182Y158070D03*
D17*
X386874Y120378D01*
X386874Y119063D01*
D16*
X386874Y119063D03*
X274327Y962509D03*
D17*
X289483Y961182D02*
X289483Y966209D01*
X289483Y961182D02*
X285929Y957628D01*
X280902Y957628D01*
X284083Y971610D02*
X284083Y986510D01*
X276020Y962509D02*
X280902Y957628D01*
X276020Y962509D02*
X274327Y962509D01*
X285021Y970672D02*
X289483Y966209D01*
D16*
X485722Y653586D03*
X497754Y460269D03*
D17*
X479751Y647615D02*
X485722Y653586D01*
X479751Y647615D02*
X479751Y612069D01*
X458437Y590756D01*
X458437Y565257D01*
X491260Y532434D02*
X491260Y466763D01*
X497754Y460269D01*
X491260Y532434D02*
X458437Y565257D01*
X301619Y967117D02*
X298065Y970672D01*
X285021Y970672D02*
X284083Y971610D01*
X301619Y865193D02*
X309563Y857250D01*
X298065Y970672D02*
X285021Y970672D01*
X301619Y967117D02*
X301619Y865193D01*
D16*
X309563Y857250D03*
X513087Y667069D03*
X565432Y785813D03*
D17*
X544440Y764821D01*
X513087Y707354D02*
X513087Y667069D01*
X513087Y707354D02*
X544440Y738707D01*
X544440Y764821D01*
D16*
X456156Y785458D03*
D17*
X456156Y789531D01*
X476250Y809625D01*
D16*
X476250Y809625D03*
D17*
X276083Y971029D02*
X276083Y986510D01*
X276083Y971029D02*
X283415Y963696D01*
D16*
X283415Y963696D03*
X495337Y665635D03*
X525220Y452238D03*
D17*
X484327Y623680D02*
X484327Y642938D01*
X492163Y662461D02*
X495337Y665635D01*
X492163Y662461D02*
X492163Y650773D01*
X484327Y642938D01*
X525220Y488333D02*
X525220Y452238D01*
X525220Y488333D02*
X498652Y514900D01*
X498652Y588584D02*
X500761Y590693D01*
X500761Y603107D01*
X500063Y603806D01*
X500063Y619125D01*
X495508Y623680D01*
X484327Y623680D01*
X498652Y588584D02*
X498652Y514900D01*
D16*
X358108Y927767D03*
D17*
X370296Y926658D02*
X391704Y926658D01*
X406842Y941796D01*
X406842Y963204D01*
X369187Y927767D02*
X358108Y927767D01*
X369187Y927767D02*
X370296Y926658D01*
X406842Y963204D02*
X381000Y989046D01*
X381000Y1023938D01*
D16*
X381000Y1023938D03*
X450011Y986300D03*
D17*
X450011Y949234D01*
X494370Y904875D01*
D16*
X494370Y904875D03*
X571500Y815246D03*
D17*
X571500Y714375D01*
X523875Y666750D01*
X522175Y668450D01*
D16*
X522175Y668450D03*
X422402Y653713D03*
D17*
X422402Y492880D01*
X426630Y492880D01*
D16*
X426630Y492880D03*
X378080Y572870D03*
D17*
X396065Y554885D01*
X396065Y528017D02*
X385505Y517458D01*
D16*
X385505Y517458D03*
D17*
X396065Y528017D02*
X396065Y554885D01*
D16*
X386424Y577379D03*
D17*
X400844Y562958D01*
X400844Y542555D01*
X401623Y542555D01*
X401625Y542557D01*
D16*
X401625Y542557D03*
X404357Y606326D03*
D17*
X404357Y548143D01*
X411316Y541185D02*
X411316Y508150D01*
X413854Y508150D01*
X414110Y508406D01*
D16*
X414110Y508406D03*
D17*
X411316Y541185D02*
X404357Y548143D01*
D16*
X333375Y678907D03*
D17*
X333375Y525922D01*
X350161Y509136D01*
D16*
X350161Y509136D03*
X571214Y699557D03*
X590388Y532616D03*
D17*
X565728Y694072D02*
X571214Y699557D01*
X565728Y694072D02*
X565728Y612667D01*
X560333Y607272D01*
X560333Y562671D01*
X590388Y532616D01*
D16*
X551881Y523875D03*
D17*
X551881Y340326D01*
X547917Y336361D01*
D16*
X547917Y336361D03*
X357188Y166688D03*
D17*
X357188Y321679D01*
X377541Y342033D01*
X377541Y342033D01*
X377115Y342459D01*
D16*
X377115Y342459D03*
X309563Y714375D03*
X249354Y907214D03*
D17*
X278511Y819007D02*
X278511Y806593D01*
X249354Y848165D02*
X249354Y907214D01*
X249354Y848165D02*
X278511Y819007D01*
X274583Y749355D02*
X309563Y714375D01*
X274583Y749355D02*
X274583Y802665D01*
X278511Y806593D01*
D16*
X142875Y644023D03*
D17*
X142875Y809625D01*
D16*
X142875Y809625D03*
X2881313Y809625D03*
X2889410Y267320D03*
D17*
X2898830Y660809D02*
X2898830Y672691D01*
X2897886Y438007D02*
X2897886Y425593D01*
X2881313Y690208D02*
X2881313Y809625D01*
X2881313Y690208D02*
X2898830Y672691D01*
X2898830Y660809D02*
X2890246Y652225D01*
X2890246Y445648D01*
X2897886Y438007D01*
X2897886Y425593D02*
X2889410Y417117D01*
X2889410Y267320D01*
X252083Y986510D02*
X252083Y987856D01*
X249257Y990682D01*
X249257Y996337D01*
X254739Y1020001D02*
X260062Y1025324D01*
X254739Y1001820D02*
X249257Y996337D01*
X254739Y1001820D02*
X254739Y1020001D01*
X260062Y1025324D02*
X307687Y1025324D01*
X310909Y990682D02*
X308083Y987856D01*
X308083Y986510D01*
X310909Y1022103D02*
X307687Y1025324D01*
X310909Y1022103D02*
X310909Y990682D01*
X238783Y1033710D02*
X235183Y1037310D01*
X238783Y1033710D02*
X238783Y992510D01*
X324983Y996110D02*
X324983Y1037310D01*
X324983Y996110D02*
X321383Y992510D01*
X248397Y1002124D02*
X238783Y992510D01*
X248397Y1010670D02*
X248671Y1010944D01*
D16*
X248671Y1010944D03*
D17*
X248397Y1010670D02*
X248397Y1002124D01*
M02*
