G04 EAGLE Gerber RS-274X export*
G75*
%MOMM*%
%FSLAX34Y34*%
%LPD*%
%INSilkscreen Top*%
%IPPOS*%
%AMOC8*
5,1,8,0,0,1.08239X$1,22.5*%
G01*
%ADD10R,0.335281X0.015238*%
%ADD11R,0.381000X0.015238*%
%ADD12R,0.411481X0.015238*%
%ADD13R,0.396238X0.015238*%
%ADD14R,0.411475X0.015238*%
%ADD15R,0.106675X0.015238*%
%ADD16R,0.045719X0.015238*%
%ADD17R,0.076200X0.015238*%
%ADD18R,0.060956X0.015238*%
%ADD19R,0.091438X0.015238*%
%ADD20R,0.350519X0.015238*%
%ADD21R,0.243838X0.015238*%
%ADD22R,0.182875X0.015238*%
%ADD23R,0.121919X0.015238*%
%ADD24R,0.259081X0.015238*%
%ADD25R,0.320038X0.015238*%
%ADD26R,0.289556X0.015238*%
%ADD27R,0.304800X0.015238*%
%ADD28R,0.457200X0.015238*%
%ADD29R,0.152400X0.015238*%
%ADD30R,0.137156X0.015238*%
%ADD31R,0.365756X0.015238*%
%ADD32R,0.426719X0.015238*%
%ADD33R,0.563881X0.015238*%
%ADD34R,0.198119X0.015238*%
%ADD35R,0.441956X0.015238*%
%ADD36R,0.518156X0.015238*%
%ADD37R,0.487681X0.015238*%
%ADD38R,0.502919X0.015238*%
%ADD39R,0.640081X0.015238*%
%ADD40R,0.472438X0.015238*%
%ADD41R,0.228600X0.015238*%
%ADD42R,0.335275X0.015238*%
%ADD43R,0.167637X0.015238*%
%ADD44R,0.441963X0.015238*%
%ADD45R,0.594356X0.015238*%
%ADD46R,0.548638X0.015238*%
%ADD47R,0.579119X0.015238*%
%ADD48R,0.716281X0.015238*%
%ADD49R,0.655319X0.015238*%
%ADD50R,0.624838X0.015238*%
%ADD51R,0.640075X0.015238*%
%ADD52R,0.777238X0.015238*%
%ADD53R,0.609600X0.015238*%
%ADD54R,0.685800X0.015238*%
%ADD55R,0.822956X0.015238*%
%ADD56R,0.670556X0.015238*%
%ADD57R,0.746756X0.015238*%
%ADD58R,0.716275X0.015238*%
%ADD59R,0.883919X0.015238*%
%ADD60R,0.701037X0.015238*%
%ADD61R,0.762000X0.015238*%
%ADD62R,0.792481X0.015238*%
%ADD63R,0.914400X0.015238*%
%ADD64R,0.213363X0.015238*%
%ADD65R,0.213356X0.015238*%
%ADD66R,0.731519X0.015238*%
%ADD67R,0.838200X0.015238*%
%ADD68R,0.960119X0.015238*%
%ADD69R,0.487675X0.015238*%
%ADD70R,0.853438X0.015238*%
%ADD71R,0.868675X0.015238*%
%ADD72R,1.005837X0.015238*%
%ADD73R,0.746762X0.015238*%
%ADD74R,0.807719X0.015238*%
%ADD75R,0.868681X0.015238*%
%ADD76R,0.899156X0.015238*%
%ADD77R,1.051562X0.015238*%
%ADD78R,0.792475X0.015238*%
%ADD79R,0.274319X0.015238*%
%ADD80R,0.929638X0.015238*%
%ADD81R,1.082037X0.015238*%
%ADD82R,1.112519X0.015238*%
%ADD83R,1.097275X0.015238*%
%ADD84R,1.097281X0.015238*%
%ADD85R,0.533400X0.015238*%
%ADD86R,0.990600X0.015238*%
%ADD87R,1.143000X0.015238*%
%ADD88R,1.173481X0.015238*%
%ADD89R,0.944881X0.015238*%
%ADD90R,1.021081X0.015238*%
%ADD91R,1.036319X0.015238*%
%ADD92R,1.203956X0.015238*%
%ADD93R,1.127756X0.015238*%
%ADD94R,1.127763X0.015238*%
%ADD95R,0.289563X0.015238*%
%ADD96R,1.051556X0.015238*%
%ADD97R,1.066800X0.015238*%
%ADD98R,1.234438X0.015238*%
%ADD99R,1.264919X0.015238*%
%ADD100R,1.158238X0.015238*%
%ADD101R,1.021075X0.015238*%
%ADD102R,1.295400X0.015238*%
%ADD103R,1.310638X0.015238*%
%ADD104R,1.173475X0.015238*%
%ADD105R,1.325881X0.015238*%
%ADD106R,1.341119X0.015238*%
%ADD107R,1.188719X0.015238*%
%ADD108R,1.371600X0.015238*%
%ADD109R,1.219200X0.015238*%
%ADD110R,1.402081X0.015238*%
%ADD111R,0.060963X0.015238*%
%ADD112R,1.417319X0.015238*%
%ADD113R,1.432556X0.015238*%
%ADD114R,1.447800X0.015238*%
%ADD115R,0.563875X0.015238*%
%ADD116R,0.365762X0.015238*%
%ADD117R,0.518162X0.015238*%
%ADD118R,0.594363X0.015238*%
%ADD119R,0.670563X0.015238*%
%ADD120R,0.106681X0.015238*%
%ADD121R,0.975356X0.015238*%
%ADD122R,0.944875X0.015238*%
%ADD123R,0.899163X0.015238*%
%ADD124R,1.280156X0.015238*%
%ADD125R,0.259075X0.015238*%
%ADD126R,1.203963X0.015238*%
%ADD127R,0.822963X0.015238*%
%ADD128R,0.182881X0.015238*%
%ADD129R,0.030481X0.015238*%


D10*
X857479Y186690D03*
D11*
X857555Y186842D03*
D12*
X857555Y186995D03*
D13*
X857631Y187147D03*
D12*
X857707Y187300D03*
D13*
X857783Y187452D03*
D12*
X857860Y187604D03*
D14*
X858012Y187757D03*
X858012Y187909D03*
X858164Y188062D03*
X858164Y188214D03*
D12*
X858317Y188366D03*
D13*
X858393Y188519D03*
D12*
X858469Y188671D03*
D13*
X858545Y188824D03*
D12*
X858622Y188976D03*
D14*
X858774Y189128D03*
X858774Y189281D03*
X858926Y189433D03*
D13*
X859003Y189586D03*
D12*
X859079Y189738D03*
D13*
X859155Y189890D03*
D12*
X859231Y190043D03*
D13*
X859307Y190195D03*
D12*
X859384Y190348D03*
D14*
X859536Y190500D03*
D13*
X859612Y190652D03*
D14*
X859688Y190805D03*
D13*
X859765Y190957D03*
D12*
X859841Y191110D03*
D13*
X859917Y191262D03*
D12*
X859993Y191414D03*
D13*
X860069Y191567D03*
X860222Y191719D03*
D14*
X860298Y191872D03*
D13*
X860374Y192024D03*
D14*
X860450Y192176D03*
D13*
X860527Y192329D03*
D12*
X860603Y192481D03*
D13*
X860679Y192634D03*
X860831Y192786D03*
X860831Y192938D03*
X860984Y193091D03*
D14*
X861060Y193243D03*
D13*
X861136Y193396D03*
D14*
X861212Y193548D03*
D13*
X861289Y193700D03*
X861441Y193853D03*
X861441Y194005D03*
X861593Y194158D03*
D12*
X861670Y194310D03*
D13*
X861746Y194462D03*
D14*
X861822Y194615D03*
D13*
X861898Y194767D03*
X862051Y194920D03*
X862051Y195072D03*
X862203Y195224D03*
X862203Y195377D03*
X862355Y195529D03*
D12*
X862432Y195682D03*
D13*
X862508Y195834D03*
X862660Y195986D03*
X862660Y196139D03*
X862813Y196291D03*
D15*
X813968Y196444D03*
D16*
X831494Y196444D03*
X847344Y196444D03*
D13*
X862813Y196444D03*
D16*
X874319Y196444D03*
D17*
X884530Y196444D03*
X897026Y196444D03*
D18*
X910209Y196444D03*
X949681Y196444D03*
D19*
X964616Y196444D03*
D18*
X982447Y196444D03*
D20*
X813968Y196596D03*
D21*
X831571Y196596D03*
X847420Y196596D03*
D13*
X862965Y196596D03*
D22*
X874395Y196596D03*
D23*
X884606Y196596D03*
X897103Y196596D03*
D24*
X910285Y196596D03*
D25*
X949757Y196596D03*
D26*
X964692Y196596D03*
D27*
X982599Y196596D03*
D28*
X814045Y196748D03*
D10*
X831571Y196748D03*
D29*
X837209Y196748D03*
D20*
X847496Y196748D03*
D29*
X853059Y196748D03*
D13*
X862965Y196748D03*
D21*
X874395Y196748D03*
D30*
X884530Y196748D03*
X897179Y196748D03*
D31*
X910361Y196748D03*
D27*
X921487Y196748D03*
D25*
X932383Y196748D03*
D11*
X941527Y196748D03*
D32*
X949833Y196748D03*
D14*
X964692Y196748D03*
D12*
X982675Y196748D03*
D33*
X814121Y196901D03*
D12*
X831647Y196901D03*
D34*
X837286Y196901D03*
D14*
X847496Y196901D03*
D34*
X853135Y196901D03*
D13*
X863117Y196901D03*
D27*
X874395Y196901D03*
D29*
X884606Y196901D03*
X897103Y196901D03*
D35*
X910438Y196901D03*
D31*
X921639Y196901D03*
X932459Y196901D03*
D32*
X941603Y196901D03*
D36*
X949833Y196901D03*
D37*
X964768Y196901D03*
D38*
X982675Y196901D03*
D39*
X814045Y197053D03*
D40*
X831647Y197053D03*
D41*
X837286Y197053D03*
D37*
X847573Y197053D03*
D41*
X853135Y197053D03*
D13*
X863270Y197053D03*
D42*
X874395Y197053D03*
D29*
X884606Y197053D03*
D43*
X897179Y197053D03*
D38*
X910438Y197053D03*
D11*
X921563Y197053D03*
D13*
X932459Y197053D03*
D44*
X941527Y197053D03*
D45*
X949757Y197053D03*
D46*
X964768Y197053D03*
D47*
X982751Y197053D03*
D48*
X814121Y197206D03*
D36*
X831723Y197206D03*
D21*
X837362Y197206D03*
D36*
X847573Y197206D03*
D21*
X853211Y197206D03*
D13*
X863270Y197206D03*
D31*
X874395Y197206D03*
D43*
X884682Y197206D03*
X897179Y197206D03*
D33*
X910438Y197206D03*
D13*
X921639Y197206D03*
D12*
X932536Y197206D03*
D28*
X941451Y197206D03*
D49*
X949757Y197206D03*
D50*
X964844Y197206D03*
D51*
X982751Y197206D03*
D52*
X814121Y197358D03*
D47*
X831723Y197358D03*
D21*
X837362Y197358D03*
D47*
X847573Y197358D03*
D21*
X853211Y197358D03*
D13*
X863422Y197358D03*
X874395Y197358D03*
D43*
X884682Y197358D03*
X897179Y197358D03*
D53*
X910514Y197358D03*
D13*
X921639Y197358D03*
D12*
X932536Y197358D03*
D28*
X941451Y197358D03*
D48*
X949757Y197358D03*
D49*
X964844Y197358D03*
D54*
X982828Y197358D03*
D55*
X814197Y197510D03*
D53*
X831723Y197510D03*
D21*
X837362Y197510D03*
D50*
X847649Y197510D03*
D21*
X853211Y197510D03*
D13*
X863422Y197510D03*
D12*
X874471Y197510D03*
D34*
X884682Y197510D03*
X897179Y197510D03*
D56*
X910514Y197510D03*
D13*
X921639Y197510D03*
D12*
X932536Y197510D03*
D40*
X941375Y197510D03*
D57*
X949757Y197510D03*
D58*
X964844Y197510D03*
D57*
X982828Y197510D03*
D59*
X814197Y197663D03*
D49*
X831799Y197663D03*
D24*
X837286Y197663D03*
D49*
X847649Y197663D03*
D24*
X853135Y197663D03*
D14*
X863498Y197663D03*
D44*
X874471Y197663D03*
D34*
X884682Y197663D03*
X897179Y197663D03*
D60*
X910514Y197663D03*
D11*
X921715Y197663D03*
D13*
X932612Y197663D03*
D40*
X941222Y197663D03*
D52*
X949757Y197663D03*
D61*
X964921Y197663D03*
D62*
X982904Y197663D03*
D63*
X814197Y197815D03*
D54*
X831799Y197815D03*
D24*
X837286Y197815D03*
D54*
X847649Y197815D03*
D24*
X853135Y197815D03*
D14*
X863498Y197815D03*
D28*
X874547Y197815D03*
D64*
X884758Y197815D03*
D65*
X897255Y197815D03*
D66*
X910514Y197815D03*
D11*
X921715Y197815D03*
D13*
X932612Y197815D03*
D28*
X941146Y197815D03*
D67*
X949757Y197815D03*
D62*
X964921Y197815D03*
D55*
X982904Y197815D03*
D68*
X814273Y197968D03*
D48*
X831799Y197968D03*
D24*
X837286Y197968D03*
D48*
X847649Y197968D03*
D24*
X853135Y197968D03*
D32*
X863575Y197968D03*
D69*
X874547Y197968D03*
D64*
X884758Y197968D03*
D65*
X897255Y197968D03*
D52*
X910590Y197968D03*
D11*
X921715Y197968D03*
D13*
X932612Y197968D03*
D40*
X941070Y197968D03*
D70*
X949833Y197968D03*
D67*
X964997Y197968D03*
D71*
X982980Y197968D03*
D72*
X814197Y198120D03*
D73*
X831799Y198120D03*
D24*
X837286Y198120D03*
D57*
X847649Y198120D03*
D24*
X853135Y198120D03*
D32*
X863575Y198120D03*
D69*
X874547Y198120D03*
D41*
X884834Y198120D03*
X897179Y198120D03*
D74*
X910590Y198120D03*
D13*
X921791Y198120D03*
D14*
X932688Y198120D03*
D40*
X940918Y198120D03*
D70*
X949833Y198120D03*
D75*
X964997Y198120D03*
D76*
X982980Y198120D03*
D77*
X814273Y198272D03*
D78*
X831875Y198272D03*
D79*
X837362Y198272D03*
D52*
X847801Y198272D03*
D79*
X853211Y198272D03*
D28*
X863575Y198272D03*
D38*
X874624Y198272D03*
D41*
X884834Y198272D03*
D21*
X897255Y198272D03*
D67*
X910590Y198272D03*
D13*
X921791Y198272D03*
D14*
X932688Y198272D03*
D28*
X940841Y198272D03*
D75*
X949909Y198272D03*
D76*
X964997Y198272D03*
D80*
X982980Y198272D03*
D81*
X814273Y198425D03*
X833323Y198425D03*
X849173Y198425D03*
D40*
X863651Y198425D03*
D38*
X874624Y198425D03*
D21*
X884911Y198425D03*
X897255Y198425D03*
D71*
X910590Y198425D03*
D13*
X921791Y198425D03*
D14*
X932688Y198425D03*
D28*
X940689Y198425D03*
D75*
X950062Y198425D03*
D80*
X964997Y198425D03*
D68*
X982980Y198425D03*
D82*
X814273Y198577D03*
D83*
X833247Y198577D03*
D84*
X849097Y198577D03*
D40*
X863651Y198577D03*
D85*
X874624Y198577D03*
D21*
X884911Y198577D03*
D24*
X897331Y198577D03*
D59*
X910666Y198577D03*
D13*
X921791Y198577D03*
D14*
X932688Y198577D03*
D40*
X940613Y198577D03*
D59*
X950138Y198577D03*
D68*
X964997Y198577D03*
D86*
X982980Y198577D03*
D87*
X814273Y198730D03*
D82*
X833171Y198730D03*
X849020Y198730D03*
D69*
X863727Y198730D03*
D85*
X874624Y198730D03*
D24*
X884987Y198730D03*
D79*
X897255Y198730D03*
D63*
X910666Y198730D03*
D11*
X921868Y198730D03*
D13*
X932764Y198730D03*
D28*
X940537Y198730D03*
D71*
X950214Y198730D03*
D86*
X964997Y198730D03*
D72*
X983056Y198730D03*
D88*
X814426Y198882D03*
D82*
X833171Y198882D03*
X849020Y198882D03*
D38*
X863651Y198882D03*
D85*
X874624Y198882D03*
D79*
X884911Y198882D03*
X897255Y198882D03*
D89*
X910666Y198882D03*
D11*
X921868Y198882D03*
D13*
X932764Y198882D03*
D28*
X940384Y198882D03*
D71*
X950366Y198882D03*
D90*
X964997Y198882D03*
D91*
X983056Y198882D03*
D92*
X814426Y199034D03*
D93*
X833095Y199034D03*
D94*
X848944Y199034D03*
D36*
X863727Y199034D03*
D85*
X874624Y199034D03*
D26*
X884987Y199034D03*
D95*
X897331Y199034D03*
D68*
X910742Y199034D03*
D11*
X921868Y199034D03*
D13*
X932764Y199034D03*
D28*
X940384Y199034D03*
D71*
X950366Y199034D03*
D96*
X964997Y199034D03*
D97*
X983056Y199034D03*
D98*
X814426Y199187D03*
D93*
X833095Y199187D03*
D94*
X848944Y199187D03*
D36*
X863727Y199187D03*
X874700Y199187D03*
D27*
X885063Y199187D03*
D95*
X897331Y199187D03*
D86*
X910742Y199187D03*
D11*
X921868Y199187D03*
D14*
X932840Y199187D03*
D28*
X940232Y199187D03*
D75*
X950519Y199187D03*
D97*
X965073Y199187D03*
D81*
X983132Y199187D03*
D99*
X814426Y199339D03*
D100*
X833095Y199339D03*
X848944Y199339D03*
D85*
X863803Y199339D03*
X874776Y199339D03*
D27*
X885063Y199339D03*
X897407Y199339D03*
D101*
X910742Y199339D03*
D13*
X921944Y199339D03*
D14*
X932840Y199339D03*
D28*
X940079Y199339D03*
D70*
X950595Y199339D03*
D83*
X965073Y199339D03*
D82*
X983132Y199339D03*
D102*
X814426Y199492D03*
D100*
X833095Y199492D03*
X848944Y199492D03*
D46*
X863727Y199492D03*
D85*
X874776Y199492D03*
D25*
X885139Y199492D03*
X897331Y199492D03*
D101*
X910742Y199492D03*
D13*
X921944Y199492D03*
D14*
X932840Y199492D03*
D44*
X940003Y199492D03*
D70*
X950595Y199492D03*
D83*
X965073Y199492D03*
D87*
X983132Y199492D03*
D103*
X814502Y199644D03*
D104*
X833018Y199644D03*
X848868Y199644D03*
D33*
X863803Y199644D03*
D85*
X874776Y199644D03*
D25*
X885139Y199644D03*
X897331Y199644D03*
D96*
X910742Y199644D03*
D13*
X921944Y199644D03*
D14*
X932840Y199644D03*
D28*
X939927Y199644D03*
D70*
X950747Y199644D03*
D93*
X965073Y199644D03*
D100*
X983209Y199644D03*
D105*
X814426Y199796D03*
D104*
X833018Y199796D03*
X848868Y199796D03*
D47*
X863879Y199796D03*
D38*
X874776Y199796D03*
D42*
X885215Y199796D03*
X897407Y199796D03*
D97*
X910819Y199796D03*
D11*
X922020Y199796D03*
D13*
X932917Y199796D03*
D28*
X939775Y199796D03*
D65*
X947699Y199796D03*
D35*
X952805Y199796D03*
D100*
X965073Y199796D03*
D104*
X983132Y199796D03*
D106*
X814502Y199949D03*
D36*
X829742Y199949D03*
D53*
X835838Y199949D03*
D36*
X845591Y199949D03*
D53*
X851687Y199949D03*
D47*
X863879Y199949D03*
D38*
X874776Y199949D03*
D42*
X885215Y199949D03*
X897407Y199949D03*
D38*
X907999Y199949D03*
D36*
X913562Y199949D03*
D11*
X922020Y199949D03*
D13*
X932917Y199949D03*
D35*
X939698Y199949D03*
D43*
X947471Y199949D03*
D12*
X952957Y199949D03*
D88*
X965149Y199949D03*
D107*
X983209Y199949D03*
D108*
X814502Y200101D03*
D40*
X829361Y200101D03*
D46*
X836143Y200101D03*
D40*
X845210Y200101D03*
D46*
X851992Y200101D03*
D53*
X863879Y200101D03*
D37*
X874852Y200101D03*
D20*
X885292Y200101D03*
D31*
X897407Y200101D03*
D28*
X907618Y200101D03*
D40*
X913943Y200101D03*
D11*
X922020Y200101D03*
D13*
X932917Y200101D03*
D28*
X939622Y200101D03*
D15*
X947318Y200101D03*
D13*
X953033Y200101D03*
D107*
X965073Y200101D03*
D109*
X983209Y200101D03*
D110*
X814502Y200254D03*
D35*
X829208Y200254D03*
D36*
X836295Y200254D03*
D35*
X845058Y200254D03*
D36*
X852145Y200254D03*
D53*
X863879Y200254D03*
D37*
X874852Y200254D03*
D31*
X885215Y200254D03*
X897407Y200254D03*
D32*
X907466Y200254D03*
D28*
X914171Y200254D03*
D11*
X922020Y200254D03*
D13*
X932917Y200254D03*
D28*
X939470Y200254D03*
D111*
X947242Y200254D03*
D13*
X953033Y200254D03*
D38*
X961644Y200254D03*
D46*
X968426Y200254D03*
D98*
X983285Y200254D03*
D112*
X814578Y200406D03*
D32*
X829132Y200406D03*
D38*
X836524Y200406D03*
D32*
X844982Y200406D03*
D38*
X852373Y200406D03*
D50*
X863956Y200406D03*
D28*
X874852Y200406D03*
D11*
X885292Y200406D03*
D31*
X897407Y200406D03*
D12*
X907390Y200406D03*
D32*
X914324Y200406D03*
D13*
X922096Y200406D03*
D12*
X932993Y200406D03*
D35*
X939394Y200406D03*
D13*
X953033Y200406D03*
D40*
X961492Y200406D03*
D38*
X968654Y200406D03*
D36*
X979703Y200406D03*
D33*
X986638Y200406D03*
D113*
X814502Y200558D03*
D12*
X828904Y200558D03*
D37*
X836600Y200558D03*
D32*
X844829Y200558D03*
D69*
X852449Y200558D03*
D51*
X863879Y200558D03*
D28*
X874852Y200558D03*
D11*
X885292Y200558D03*
X897484Y200558D03*
D12*
X907237Y200558D03*
D32*
X914476Y200558D03*
D13*
X922096Y200558D03*
D12*
X932993Y200558D03*
D28*
X939317Y200558D03*
D12*
X953110Y200558D03*
D28*
X961263Y200558D03*
D69*
X968883Y200558D03*
D38*
X979475Y200558D03*
D46*
X986866Y200558D03*
D114*
X814578Y200711D03*
D12*
X828904Y200711D03*
D40*
X836676Y200711D03*
D12*
X844753Y200711D03*
D40*
X852526Y200711D03*
D49*
X863956Y200711D03*
D32*
X874852Y200711D03*
D13*
X885368Y200711D03*
X897407Y200711D03*
X907161Y200711D03*
D14*
X914552Y200711D03*
D13*
X922096Y200711D03*
D12*
X932993Y200711D03*
D28*
X939165Y200711D03*
D12*
X953110Y200711D03*
D35*
X961187Y200711D03*
D40*
X968959Y200711D03*
D37*
X979399Y200711D03*
D36*
X987019Y200711D03*
D50*
X810463Y200863D03*
D49*
X818693Y200863D03*
D13*
X828827Y200863D03*
D28*
X836752Y200863D03*
D13*
X844677Y200863D03*
D28*
X852602Y200863D03*
D56*
X864032Y200863D03*
D14*
X874928Y200863D03*
D13*
X885368Y200863D03*
X897407Y200863D03*
D11*
X907085Y200863D03*
D12*
X914705Y200863D03*
D11*
X922172Y200863D03*
D13*
X933069Y200863D03*
D35*
X939089Y200863D03*
D12*
X953110Y200863D03*
D35*
X961034Y200863D03*
D28*
X969188Y200863D03*
D40*
X979322Y200863D03*
D38*
X987247Y200863D03*
D45*
X810158Y201016D03*
D53*
X818921Y201016D03*
D11*
X828751Y201016D03*
D35*
X836828Y201016D03*
D11*
X844601Y201016D03*
D35*
X852678Y201016D03*
D56*
X864032Y201016D03*
D11*
X874928Y201016D03*
D14*
X885444Y201016D03*
D12*
X897484Y201016D03*
D13*
X907009Y201016D03*
X914781Y201016D03*
D11*
X922172Y201016D03*
D13*
X933069Y201016D03*
D35*
X938936Y201016D03*
D13*
X953033Y201016D03*
D32*
X960958Y201016D03*
D35*
X969264Y201016D03*
D40*
X979170Y201016D03*
D38*
X987400Y201016D03*
D115*
X810006Y201168D03*
D45*
X819150Y201168D03*
D13*
X828675Y201168D03*
D32*
X836905Y201168D03*
D13*
X844525Y201168D03*
D32*
X852754Y201168D03*
D60*
X864032Y201168D03*
D20*
X874928Y201168D03*
D14*
X885444Y201168D03*
D12*
X897484Y201168D03*
D11*
X906932Y201168D03*
X914857Y201168D03*
X922172Y201168D03*
D13*
X933069Y201168D03*
D28*
X938860Y201168D03*
D12*
X952957Y201168D03*
D14*
X960882Y201168D03*
D35*
X969416Y201168D03*
D40*
X979170Y201168D03*
D37*
X987476Y201168D03*
D33*
X809854Y201320D03*
D47*
X819379Y201320D03*
D11*
X828599Y201320D03*
D12*
X836981Y201320D03*
D11*
X844448Y201320D03*
D14*
X852830Y201320D03*
D60*
X864032Y201320D03*
D27*
X875005Y201320D03*
D32*
X885520Y201320D03*
D35*
X897484Y201320D03*
D11*
X906932Y201320D03*
X915010Y201320D03*
X922172Y201320D03*
D13*
X933069Y201320D03*
D35*
X938784Y201320D03*
D32*
X952881Y201320D03*
D12*
X960730Y201320D03*
D32*
X969493Y201320D03*
D28*
X979094Y201320D03*
D37*
X987628Y201320D03*
D85*
X809701Y201473D03*
D46*
X819531Y201473D03*
D11*
X828599Y201473D03*
D32*
X837057Y201473D03*
D11*
X844448Y201473D03*
D32*
X852907Y201473D03*
D58*
X864108Y201473D03*
D79*
X875005Y201473D03*
D32*
X885520Y201473D03*
D35*
X897484Y201473D03*
D116*
X906856Y201473D03*
D11*
X915010Y201473D03*
D13*
X922249Y201473D03*
D12*
X933145Y201473D03*
D35*
X938632Y201473D03*
X952805Y201473D03*
D12*
X960730Y201473D03*
D32*
X969645Y201473D03*
D28*
X978941Y201473D03*
D40*
X987704Y201473D03*
D36*
X809625Y201625D03*
D46*
X819683Y201625D03*
D11*
X828599Y201625D03*
D12*
X837133Y201625D03*
D116*
X844372Y201625D03*
D12*
X852983Y201625D03*
D58*
X864108Y201625D03*
D65*
X875005Y201625D03*
D28*
X885520Y201625D03*
D35*
X897484Y201625D03*
D116*
X906856Y201625D03*
D11*
X915162Y201625D03*
D13*
X922249Y201625D03*
D12*
X933145Y201625D03*
D35*
X938632Y201625D03*
D28*
X952729Y201625D03*
D13*
X960653Y201625D03*
D12*
X969721Y201625D03*
D28*
X978941Y201625D03*
D40*
X987857Y201625D03*
D36*
X809473Y201778D03*
X819836Y201778D03*
D31*
X828523Y201778D03*
D13*
X837209Y201778D03*
D116*
X844372Y201778D03*
D13*
X853059Y201778D03*
D31*
X862203Y201778D03*
X866013Y201778D03*
D30*
X875081Y201778D03*
D28*
X885520Y201778D03*
X897560Y201778D03*
D116*
X906856Y201778D03*
D11*
X915162Y201778D03*
D13*
X922249Y201778D03*
D12*
X933145Y201778D03*
D44*
X938479Y201778D03*
D40*
X952652Y201778D03*
D13*
X960653Y201778D03*
X969797Y201778D03*
D44*
X978865Y201778D03*
D40*
X987857Y201778D03*
D38*
X809396Y201930D03*
D117*
X819988Y201930D03*
D31*
X828523Y201930D03*
D13*
X837209Y201930D03*
D116*
X844372Y201930D03*
D13*
X853059Y201930D03*
D20*
X862127Y201930D03*
D31*
X866013Y201930D03*
D40*
X885596Y201930D03*
D28*
X897560Y201930D03*
D116*
X906856Y201930D03*
X915238Y201930D03*
D11*
X922325Y201930D03*
D12*
X933145Y201930D03*
D35*
X938327Y201930D03*
D37*
X952424Y201930D03*
D13*
X960501Y201930D03*
D12*
X969874Y201930D03*
D44*
X978865Y201930D03*
D40*
X988009Y201930D03*
D38*
X809396Y202082D03*
X820064Y202082D03*
D31*
X828523Y202082D03*
D11*
X837286Y202082D03*
D116*
X844372Y202082D03*
D11*
X853135Y202082D03*
D20*
X862127Y202082D03*
D31*
X866165Y202082D03*
D40*
X885596Y202082D03*
D37*
X897560Y202082D03*
D20*
X906780Y202082D03*
D11*
X915314Y202082D03*
X922325Y202082D03*
D13*
X933221Y202082D03*
D35*
X938327Y202082D03*
D38*
X952348Y202082D03*
D13*
X960501Y202082D03*
X969950Y202082D03*
D28*
X978789Y202082D03*
X988085Y202082D03*
D37*
X809320Y202235D03*
D38*
X820217Y202235D03*
D31*
X828523Y202235D03*
D11*
X837286Y202235D03*
D116*
X844372Y202235D03*
D11*
X853135Y202235D03*
D20*
X862127Y202235D03*
D11*
X866242Y202235D03*
D37*
X885673Y202235D03*
X897560Y202235D03*
D31*
X906704Y202235D03*
X915391Y202235D03*
D11*
X922325Y202235D03*
D13*
X933221Y202235D03*
D35*
X938174Y202235D03*
D36*
X952119Y202235D03*
D11*
X960425Y202235D03*
D13*
X969950Y202235D03*
D35*
X978713Y202235D03*
D40*
X988162Y202235D03*
D37*
X809168Y202387D03*
D69*
X820293Y202387D03*
D31*
X828523Y202387D03*
D11*
X837286Y202387D03*
D116*
X844372Y202387D03*
D11*
X853135Y202387D03*
D31*
X862051Y202387D03*
X866318Y202387D03*
D37*
X885673Y202387D03*
X897560Y202387D03*
D31*
X906704Y202387D03*
X915391Y202387D03*
D11*
X922325Y202387D03*
D13*
X933221Y202387D03*
D35*
X938022Y202387D03*
D46*
X951967Y202387D03*
D11*
X960425Y202387D03*
D13*
X970102Y202387D03*
D35*
X978713Y202387D03*
D28*
X988238Y202387D03*
D37*
X809168Y202540D03*
D69*
X820445Y202540D03*
D31*
X828523Y202540D03*
D13*
X837362Y202540D03*
D116*
X844372Y202540D03*
D11*
X853135Y202540D03*
D20*
X861974Y202540D03*
D11*
X866394Y202540D03*
D38*
X885749Y202540D03*
X897636Y202540D03*
D31*
X906704Y202540D03*
X915391Y202540D03*
D13*
X922401Y202540D03*
D12*
X933298Y202540D03*
D32*
X937946Y202540D03*
D46*
X951814Y202540D03*
D11*
X960425Y202540D03*
D13*
X970102Y202540D03*
D35*
X978713Y202540D03*
D28*
X988238Y202540D03*
D40*
X809092Y202692D03*
D69*
X820445Y202692D03*
D31*
X828523Y202692D03*
D13*
X837362Y202692D03*
D116*
X844372Y202692D03*
D13*
X853211Y202692D03*
D20*
X861974Y202692D03*
D116*
X866470Y202692D03*
D38*
X885749Y202692D03*
D36*
X897560Y202692D03*
D31*
X906704Y202692D03*
X915543Y202692D03*
D13*
X922401Y202692D03*
D12*
X933298Y202692D03*
D35*
X937870Y202692D03*
D47*
X951662Y202692D03*
D11*
X960272Y202692D03*
X970178Y202692D03*
D32*
X978637Y202692D03*
D28*
X988390Y202692D03*
D40*
X809092Y202844D03*
X820522Y202844D03*
D31*
X828523Y202844D03*
D13*
X837362Y202844D03*
D116*
X844372Y202844D03*
D11*
X853288Y202844D03*
D20*
X861974Y202844D03*
D11*
X866546Y202844D03*
D36*
X885825Y202844D03*
D85*
X897636Y202844D03*
D31*
X906704Y202844D03*
X915543Y202844D03*
D13*
X922401Y202844D03*
D12*
X933298Y202844D03*
D44*
X937717Y202844D03*
D118*
X951433Y202844D03*
D11*
X960272Y202844D03*
D13*
X970255Y202844D03*
D35*
X978560Y202844D03*
D28*
X988390Y202844D03*
X809015Y202997D03*
D40*
X820674Y202997D03*
D31*
X828523Y202997D03*
D13*
X837362Y202997D03*
D116*
X844372Y202997D03*
D11*
X853288Y202997D03*
D116*
X861898Y202997D03*
D31*
X866623Y202997D03*
D85*
X885749Y202997D03*
X897636Y202997D03*
D20*
X906780Y202997D03*
D31*
X915543Y202997D03*
D11*
X922477Y202997D03*
D70*
X935507Y202997D03*
D45*
X951281Y202997D03*
D11*
X960272Y202997D03*
X970331Y202997D03*
D35*
X978560Y202997D03*
X988466Y202997D03*
D28*
X809015Y203149D03*
D40*
X820674Y203149D03*
D31*
X828523Y203149D03*
D13*
X837362Y203149D03*
D116*
X844372Y203149D03*
D11*
X853288Y203149D03*
D116*
X861898Y203149D03*
D11*
X866699Y203149D03*
D46*
X885825Y203149D03*
D85*
X897636Y203149D03*
D20*
X906780Y203149D03*
D31*
X915543Y203149D03*
D11*
X922477Y203149D03*
D67*
X935584Y203149D03*
D53*
X951052Y203149D03*
D11*
X960272Y203149D03*
X970331Y203149D03*
D35*
X978560Y203149D03*
D28*
X988543Y203149D03*
X809015Y203302D03*
D40*
X820826Y203302D03*
D31*
X828523Y203302D03*
D11*
X837438Y203302D03*
D116*
X844372Y203302D03*
D11*
X853288Y203302D03*
D20*
X861822Y203302D03*
D31*
X866775Y203302D03*
D46*
X885825Y203302D03*
D115*
X897636Y203302D03*
D20*
X906780Y203302D03*
X915619Y203302D03*
D11*
X922477Y203302D03*
D55*
X935507Y203302D03*
D53*
X950900Y203302D03*
D116*
X960196Y203302D03*
D11*
X970331Y203302D03*
D35*
X978560Y203302D03*
X988619Y203302D03*
D40*
X808939Y203454D03*
D28*
X820903Y203454D03*
D31*
X828523Y203454D03*
D11*
X837438Y203454D03*
D116*
X844372Y203454D03*
D11*
X853288Y203454D03*
D31*
X861746Y203454D03*
D11*
X866851Y203454D03*
D33*
X885901Y203454D03*
D115*
X897636Y203454D03*
D20*
X906780Y203454D03*
X915619Y203454D03*
D11*
X922477Y203454D03*
D74*
X935431Y203454D03*
D53*
X950747Y203454D03*
D116*
X960196Y203454D03*
D11*
X970331Y203454D03*
D32*
X978484Y203454D03*
D28*
X988695Y203454D03*
X808863Y203606D03*
X820903Y203606D03*
D31*
X828523Y203606D03*
D11*
X837438Y203606D03*
D116*
X844372Y203606D03*
D11*
X853288Y203606D03*
D31*
X861746Y203606D03*
D11*
X867004Y203606D03*
D33*
X885901Y203606D03*
D47*
X897712Y203606D03*
D20*
X906780Y203606D03*
X915619Y203606D03*
D13*
X922553Y203606D03*
D78*
X935355Y203606D03*
D53*
X950595Y203606D03*
D116*
X960196Y203606D03*
D31*
X970407Y203606D03*
D32*
X978484Y203606D03*
D44*
X988771Y203606D03*
D28*
X808863Y203759D03*
X821055Y203759D03*
D11*
X828599Y203759D03*
D13*
X837514Y203759D03*
D116*
X844372Y203759D03*
D13*
X853364Y203759D03*
D31*
X861746Y203759D03*
D11*
X867004Y203759D03*
D47*
X885977Y203759D03*
X897712Y203759D03*
D20*
X906780Y203759D03*
X915619Y203759D03*
D13*
X922553Y203759D03*
D78*
X935355Y203759D03*
D53*
X950443Y203759D03*
D116*
X960196Y203759D03*
D11*
X970483Y203759D03*
D32*
X978484Y203759D03*
D44*
X988771Y203759D03*
D28*
X808863Y203911D03*
X821055Y203911D03*
D11*
X828599Y203911D03*
D13*
X837514Y203911D03*
D11*
X844448Y203911D03*
X853440Y203911D03*
D20*
X861670Y203911D03*
D11*
X867156Y203911D03*
D47*
X885977Y203911D03*
D45*
X897636Y203911D03*
D116*
X906856Y203911D03*
D31*
X915695Y203911D03*
D13*
X922553Y203911D03*
D78*
X935355Y203911D03*
D45*
X950214Y203911D03*
D116*
X960196Y203911D03*
D11*
X970483Y203911D03*
D32*
X978484Y203911D03*
D44*
X988771Y203911D03*
D28*
X808863Y204064D03*
X821055Y204064D03*
D31*
X828675Y204064D03*
D13*
X837514Y204064D03*
D31*
X844525Y204064D03*
D11*
X853440Y204064D03*
D31*
X861593Y204064D03*
D11*
X867156Y204064D03*
D45*
X886054Y204064D03*
D53*
X897712Y204064D03*
D116*
X906856Y204064D03*
D31*
X915695Y204064D03*
D11*
X922630Y204064D03*
D74*
X935431Y204064D03*
D47*
X950138Y204064D03*
D116*
X960196Y204064D03*
D11*
X970483Y204064D03*
D35*
X978408Y204064D03*
X988924Y204064D03*
D28*
X808863Y204216D03*
D44*
X821131Y204216D03*
D31*
X828675Y204216D03*
D13*
X837514Y204216D03*
D31*
X844525Y204216D03*
D11*
X853440Y204216D03*
D31*
X861593Y204216D03*
D11*
X867308Y204216D03*
D45*
X886054Y204216D03*
D53*
X897712Y204216D03*
D20*
X906932Y204216D03*
D31*
X915695Y204216D03*
D11*
X922630Y204216D03*
D74*
X935584Y204216D03*
D33*
X949909Y204216D03*
D116*
X960196Y204216D03*
D11*
X970483Y204216D03*
D35*
X978408Y204216D03*
X988924Y204216D03*
D28*
X808863Y204368D03*
X821207Y204368D03*
D11*
X828751Y204368D03*
D13*
X837514Y204368D03*
D31*
X844525Y204368D03*
D11*
X853440Y204368D03*
D31*
X861593Y204368D03*
D11*
X867308Y204368D03*
D50*
X886054Y204368D03*
D53*
X897712Y204368D03*
D20*
X906932Y204368D03*
D31*
X915695Y204368D03*
D11*
X922630Y204368D03*
D55*
X935660Y204368D03*
D33*
X949757Y204368D03*
D116*
X960196Y204368D03*
D11*
X970483Y204368D03*
D35*
X978408Y204368D03*
X988924Y204368D03*
X808787Y204521D03*
X821284Y204521D03*
D11*
X828751Y204521D03*
D13*
X837514Y204521D03*
D11*
X844601Y204521D03*
X853440Y204521D03*
D31*
X861593Y204521D03*
D11*
X867461Y204521D03*
D50*
X886054Y204521D03*
X897788Y204521D03*
D31*
X907009Y204521D03*
X915695Y204521D03*
D11*
X922630Y204521D03*
D67*
X935736Y204521D03*
D85*
X949604Y204521D03*
D116*
X960196Y204521D03*
D11*
X970483Y204521D03*
D35*
X978408Y204521D03*
X989076Y204521D03*
X808787Y204673D03*
X821284Y204673D03*
D13*
X828827Y204673D03*
X837514Y204673D03*
D11*
X844601Y204673D03*
X853440Y204673D03*
D31*
X861441Y204673D03*
D11*
X867461Y204673D03*
D39*
X886130Y204673D03*
X897712Y204673D03*
D31*
X907009Y204673D03*
X915543Y204673D03*
D13*
X922706Y204673D03*
D70*
X935812Y204673D03*
D36*
X949376Y204673D03*
D116*
X960196Y204673D03*
D11*
X970483Y204673D03*
D35*
X978408Y204673D03*
X989076Y204673D03*
X808787Y204826D03*
X821284Y204826D03*
D11*
X828904Y204826D03*
D13*
X837667Y204826D03*
D11*
X844753Y204826D03*
D13*
X853516Y204826D03*
D31*
X861441Y204826D03*
D11*
X867613Y204826D03*
D39*
X886130Y204826D03*
D49*
X897788Y204826D03*
D31*
X907161Y204826D03*
X915543Y204826D03*
D13*
X922706Y204826D03*
D71*
X935888Y204826D03*
D69*
X949223Y204826D03*
D116*
X960196Y204826D03*
D11*
X970483Y204826D03*
D35*
X978408Y204826D03*
X989076Y204826D03*
X808787Y204978D03*
D28*
X821360Y204978D03*
D13*
X828980Y204978D03*
X837667Y204978D03*
D11*
X844753Y204978D03*
D13*
X853516Y204978D03*
D31*
X861441Y204978D03*
D13*
X867689Y204978D03*
D49*
X886206Y204978D03*
X897788Y204978D03*
D31*
X907161Y204978D03*
X915543Y204978D03*
D13*
X922706Y204978D03*
D59*
X935965Y204978D03*
D28*
X949071Y204978D03*
D116*
X960196Y204978D03*
D11*
X970483Y204978D03*
D35*
X978408Y204978D03*
D32*
X989152Y204978D03*
D35*
X808787Y205130D03*
X821436Y205130D03*
D13*
X828980Y205130D03*
X837667Y205130D03*
X844829Y205130D03*
X853516Y205130D03*
D31*
X861441Y205130D03*
D11*
X867766Y205130D03*
D49*
X886206Y205130D03*
X897788Y205130D03*
D11*
X907237Y205130D03*
D31*
X915543Y205130D03*
D11*
X922782Y205130D03*
D14*
X933602Y205130D03*
D28*
X938251Y205130D03*
X948919Y205130D03*
D116*
X960196Y205130D03*
D11*
X970483Y205130D03*
D35*
X978408Y205130D03*
X989228Y205130D03*
D44*
X808939Y205283D03*
D35*
X821436Y205283D03*
D13*
X829132Y205283D03*
X837667Y205283D03*
D11*
X844906Y205283D03*
D13*
X853516Y205283D03*
D31*
X861289Y205283D03*
D13*
X867842Y205283D03*
D119*
X886282Y205283D03*
D54*
X897788Y205283D03*
D31*
X907313Y205283D03*
D11*
X915467Y205283D03*
X922782Y205283D03*
D13*
X933679Y205283D03*
D28*
X938403Y205283D03*
D32*
X948766Y205283D03*
D116*
X960196Y205283D03*
D11*
X970483Y205283D03*
D35*
X978408Y205283D03*
X989228Y205283D03*
D44*
X808939Y205435D03*
D35*
X821436Y205435D03*
D13*
X829132Y205435D03*
X837667Y205435D03*
X844982Y205435D03*
D14*
X853440Y205435D03*
D31*
X861289Y205435D03*
D11*
X867918Y205435D03*
D119*
X886282Y205435D03*
D54*
X897788Y205435D03*
D11*
X907390Y205435D03*
X915467Y205435D03*
X922782Y205435D03*
D13*
X933679Y205435D03*
D40*
X938479Y205435D03*
D14*
X948690Y205435D03*
D116*
X960196Y205435D03*
D11*
X970483Y205435D03*
D35*
X978408Y205435D03*
X989228Y205435D03*
D44*
X808939Y205588D03*
D35*
X821436Y205588D03*
D14*
X829208Y205588D03*
D13*
X837667Y205588D03*
D14*
X845058Y205588D03*
X853440Y205588D03*
D31*
X861289Y205588D03*
D13*
X867994Y205588D03*
D54*
X886358Y205588D03*
D60*
X897865Y205588D03*
D13*
X907466Y205588D03*
D11*
X915467Y205588D03*
D13*
X922858Y205588D03*
X933679Y205588D03*
D40*
X938632Y205588D03*
D11*
X948538Y205588D03*
D116*
X960196Y205588D03*
D11*
X970483Y205588D03*
D35*
X978408Y205588D03*
D32*
X989305Y205588D03*
D44*
X808939Y205740D03*
D32*
X821512Y205740D03*
D12*
X829361Y205740D03*
D13*
X837667Y205740D03*
D14*
X845210Y205740D03*
D32*
X853364Y205740D03*
D11*
X861212Y205740D03*
X868070Y205740D03*
D58*
X886358Y205740D03*
D60*
X897865Y205740D03*
D13*
X907618Y205740D03*
X915391Y205740D03*
D14*
X922934Y205740D03*
D12*
X933755Y205740D03*
D40*
X938784Y205740D03*
D31*
X948461Y205740D03*
D11*
X960272Y205740D03*
X970483Y205740D03*
D35*
X978408Y205740D03*
D32*
X989305Y205740D03*
D44*
X808939Y205892D03*
D32*
X821512Y205892D03*
X829437Y205892D03*
D12*
X837743Y205892D03*
D14*
X845210Y205892D03*
D28*
X853364Y205892D03*
D11*
X861212Y205892D03*
D13*
X868147Y205892D03*
D58*
X886358Y205892D03*
X897788Y205892D03*
D14*
X907694Y205892D03*
D13*
X915238Y205892D03*
D32*
X923011Y205892D03*
D12*
X933755Y205892D03*
D40*
X938936Y205892D03*
D11*
X948385Y205892D03*
X960272Y205892D03*
D13*
X970407Y205892D03*
D35*
X978408Y205892D03*
X989381Y205892D03*
D44*
X808939Y206045D03*
D35*
X821588Y206045D03*
D32*
X829589Y206045D03*
D12*
X837743Y206045D03*
D32*
X845287Y206045D03*
D28*
X853364Y206045D03*
D116*
X861136Y206045D03*
D13*
X868147Y206045D03*
D66*
X886435Y206045D03*
X897865Y206045D03*
D12*
X907847Y206045D03*
D13*
X915238Y206045D03*
D35*
X923087Y206045D03*
D12*
X933755Y206045D03*
D40*
X939089Y206045D03*
D11*
X948385Y206045D03*
X960272Y206045D03*
D13*
X970407Y206045D03*
D35*
X978408Y206045D03*
X989381Y206045D03*
D44*
X808939Y206197D03*
D35*
X821588Y206197D03*
X829666Y206197D03*
D32*
X837667Y206197D03*
D44*
X845515Y206197D03*
D40*
X853288Y206197D03*
D116*
X861136Y206197D03*
D13*
X868299Y206197D03*
D66*
X886435Y206197D03*
X897865Y206197D03*
D32*
X907923Y206197D03*
D14*
X915162Y206197D03*
D28*
X923163Y206197D03*
D12*
X933755Y206197D03*
D40*
X939241Y206197D03*
D31*
X948309Y206197D03*
D13*
X960349Y206197D03*
X970255Y206197D03*
D35*
X978408Y206197D03*
X989381Y206197D03*
D32*
X809015Y206350D03*
D35*
X821588Y206350D03*
D28*
X829894Y206350D03*
X837514Y206350D03*
X845591Y206350D03*
D69*
X853211Y206350D03*
D11*
X861060Y206350D03*
D12*
X868375Y206350D03*
D57*
X886511Y206350D03*
X897941Y206350D03*
D32*
X908075Y206350D03*
X915086Y206350D03*
D28*
X923315Y206350D03*
D13*
X933831Y206350D03*
D40*
X939394Y206350D03*
D31*
X948309Y206350D03*
D12*
X960425Y206350D03*
D13*
X970255Y206350D03*
D35*
X978408Y206350D03*
D32*
X989457Y206350D03*
X809015Y206502D03*
D35*
X821588Y206502D03*
D40*
X829970Y206502D03*
X837438Y206502D03*
X845820Y206502D03*
D36*
X853059Y206502D03*
D11*
X861060Y206502D03*
D13*
X868451Y206502D03*
D57*
X886511Y206502D03*
D61*
X897865Y206502D03*
D28*
X908228Y206502D03*
D44*
X914857Y206502D03*
D40*
X923392Y206502D03*
D13*
X933831Y206502D03*
D40*
X939546Y206502D03*
D11*
X948385Y206502D03*
D16*
X954024Y206502D03*
D12*
X960577Y206502D03*
D13*
X970255Y206502D03*
D35*
X978408Y206502D03*
D32*
X989457Y206502D03*
D35*
X809092Y206654D03*
X821588Y206654D03*
D38*
X830275Y206654D03*
D36*
X837209Y206654D03*
D38*
X845972Y206654D03*
D46*
X852907Y206654D03*
D31*
X860984Y206654D03*
D12*
X868528Y206654D03*
D61*
X886587Y206654D03*
X897865Y206654D03*
D40*
X908456Y206654D03*
D28*
X914781Y206654D03*
D38*
X923544Y206654D03*
D111*
X928192Y206654D03*
D13*
X933831Y206654D03*
D37*
X939622Y206654D03*
D31*
X948461Y206654D03*
D120*
X953872Y206654D03*
D32*
X960653Y206654D03*
D14*
X970178Y206654D03*
D35*
X978408Y206654D03*
D32*
X989457Y206654D03*
D35*
X809092Y206807D03*
D32*
X821665Y206807D03*
D115*
X830580Y206807D03*
D47*
X836905Y206807D03*
D46*
X846353Y206807D03*
D53*
X852602Y206807D03*
D31*
X860984Y206807D03*
D13*
X868604Y206807D03*
D61*
X886587Y206807D03*
D52*
X897941Y206807D03*
D36*
X908837Y206807D03*
D38*
X914400Y206807D03*
D46*
X923773Y206807D03*
D30*
X927964Y206807D03*
D12*
X933907Y206807D03*
D37*
X939775Y206807D03*
D11*
X948538Y206807D03*
D29*
X953795Y206807D03*
D35*
X960730Y206807D03*
D32*
X970102Y206807D03*
D35*
X978408Y206807D03*
D44*
X989533Y206807D03*
D35*
X809092Y206959D03*
D32*
X821665Y206959D03*
D92*
X833933Y206959D03*
X849782Y206959D03*
D11*
X860908Y206959D03*
D14*
X868680Y206959D03*
D52*
X886663Y206959D03*
X897941Y206959D03*
D97*
X911581Y206959D03*
D61*
X924839Y206959D03*
D12*
X933907Y206959D03*
D69*
X939927Y206959D03*
D14*
X948690Y206959D03*
D21*
X953491Y206959D03*
D28*
X960806Y206959D03*
D14*
X970026Y206959D03*
D35*
X978408Y206959D03*
D44*
X989533Y206959D03*
D35*
X809092Y207112D03*
X821741Y207112D03*
D92*
X833933Y207112D03*
X849782Y207112D03*
D11*
X860908Y207112D03*
D13*
X868756Y207112D03*
D11*
X884530Y207112D03*
X888644Y207112D03*
D20*
X895807Y207112D03*
D14*
X899922Y207112D03*
D96*
X911657Y207112D03*
D52*
X924916Y207112D03*
D12*
X933907Y207112D03*
D40*
X940003Y207112D03*
D74*
X950671Y207112D03*
D40*
X960882Y207112D03*
D32*
X969950Y207112D03*
X978484Y207112D03*
D44*
X989533Y207112D03*
D35*
X809092Y207264D03*
X821741Y207264D03*
D107*
X834009Y207264D03*
X849859Y207264D03*
D11*
X860908Y207264D03*
D14*
X868832Y207264D03*
D31*
X884453Y207264D03*
D13*
X888721Y207264D03*
D31*
X895731Y207264D03*
D13*
X899998Y207264D03*
D90*
X911657Y207264D03*
D52*
X924916Y207264D03*
D12*
X933907Y207264D03*
D40*
X940156Y207264D03*
D55*
X950747Y207264D03*
D38*
X961034Y207264D03*
D35*
X969874Y207264D03*
D32*
X978484Y207264D03*
X989609Y207264D03*
D35*
X809092Y207416D03*
X821741Y207416D03*
D88*
X834085Y207416D03*
X849935Y207416D03*
D31*
X860831Y207416D03*
D12*
X868985Y207416D03*
D31*
X884453Y207416D03*
D11*
X888797Y207416D03*
D31*
X895731Y207416D03*
D13*
X899998Y207416D03*
D90*
X911657Y207416D03*
D52*
X925068Y207416D03*
D13*
X933983Y207416D03*
D40*
X940308Y207416D03*
D67*
X950824Y207416D03*
D38*
X961187Y207416D03*
D40*
X969721Y207416D03*
D32*
X978484Y207416D03*
X989609Y207416D03*
X809168Y207569D03*
D35*
X821741Y207569D03*
D100*
X834161Y207569D03*
D88*
X849935Y207569D03*
D11*
X860755Y207569D03*
D12*
X868985Y207569D03*
D31*
X884453Y207569D03*
D13*
X888873Y207569D03*
D31*
X895731Y207569D03*
D14*
X900074Y207569D03*
D86*
X911657Y207569D03*
D62*
X925144Y207569D03*
D13*
X933983Y207569D03*
D40*
X940460Y207569D03*
D55*
X950900Y207569D03*
D85*
X961339Y207569D03*
D40*
X969569Y207569D03*
D32*
X978484Y207569D03*
X989609Y207569D03*
D35*
X809244Y207721D03*
X821741Y207721D03*
D100*
X834161Y207721D03*
X850011Y207721D03*
D11*
X860755Y207721D03*
D12*
X869137Y207721D03*
D31*
X884453Y207721D03*
D11*
X888949Y207721D03*
D20*
X895655Y207721D03*
D13*
X900151Y207721D03*
D121*
X911733Y207721D03*
D62*
X925144Y207721D03*
D13*
X933983Y207721D03*
D40*
X940613Y207721D03*
D67*
X950976Y207721D03*
D33*
X961492Y207721D03*
D38*
X969416Y207721D03*
D32*
X978484Y207721D03*
X989609Y207721D03*
D35*
X809244Y207874D03*
D32*
X821817Y207874D03*
D87*
X834238Y207874D03*
X850087Y207874D03*
D11*
X860755Y207874D03*
D12*
X869137Y207874D03*
D31*
X884453Y207874D03*
D13*
X889025Y207874D03*
D31*
X895579Y207874D03*
D12*
X900227Y207874D03*
D122*
X911733Y207874D03*
D74*
X925220Y207874D03*
D12*
X934060Y207874D03*
D69*
X940689Y207874D03*
D70*
X951052Y207874D03*
D53*
X961720Y207874D03*
D36*
X969188Y207874D03*
D32*
X978484Y207874D03*
D35*
X989686Y207874D03*
X809244Y208026D03*
D32*
X821817Y208026D03*
D87*
X834390Y208026D03*
D93*
X850163Y208026D03*
D11*
X860755Y208026D03*
D12*
X869290Y208026D03*
D31*
X884453Y208026D03*
D11*
X889102Y208026D03*
D31*
X895579Y208026D03*
D12*
X900227Y208026D03*
D63*
X911733Y208026D03*
D74*
X925220Y208026D03*
D12*
X934060Y208026D03*
D69*
X940841Y208026D03*
D67*
X951128Y208026D03*
D103*
X965225Y208026D03*
D32*
X978484Y208026D03*
D35*
X989686Y208026D03*
X809244Y208178D03*
D44*
X821893Y208178D03*
D94*
X834466Y208178D03*
D93*
X850316Y208178D03*
D11*
X860603Y208178D03*
D12*
X869290Y208178D03*
D31*
X884453Y208178D03*
D13*
X889178Y208178D03*
D31*
X895579Y208178D03*
D13*
X900303Y208178D03*
D123*
X911809Y208178D03*
D55*
X925297Y208178D03*
D12*
X934060Y208178D03*
D37*
X940994Y208178D03*
D70*
X951205Y208178D03*
D102*
X965302Y208178D03*
D32*
X978484Y208178D03*
D35*
X989686Y208178D03*
X809244Y208331D03*
D44*
X821893Y208331D03*
D82*
X834542Y208331D03*
X850392Y208331D03*
D11*
X860603Y208331D03*
D14*
X869442Y208331D03*
D31*
X884453Y208331D03*
D11*
X889254Y208331D03*
D31*
X895579Y208331D03*
D12*
X900379Y208331D03*
D75*
X911809Y208331D03*
D26*
X922630Y208331D03*
D36*
X926821Y208331D03*
D12*
X934060Y208331D03*
D37*
X941146Y208331D03*
D70*
X951357Y208331D03*
D124*
X965225Y208331D03*
D35*
X978560Y208331D03*
X989686Y208331D03*
X809244Y208483D03*
D44*
X821893Y208483D03*
D84*
X834619Y208483D03*
X850468Y208483D03*
D11*
X860603Y208483D03*
D14*
X869442Y208483D03*
D11*
X884377Y208483D03*
D13*
X889330Y208483D03*
D116*
X895426Y208483D03*
D13*
X900455Y208483D03*
D67*
X911809Y208483D03*
D79*
X922706Y208483D03*
D36*
X926973Y208483D03*
D13*
X934136Y208483D03*
D37*
X941299Y208483D03*
D67*
X951433Y208483D03*
D99*
X965149Y208483D03*
D35*
X978560Y208483D03*
X989686Y208483D03*
D32*
X809320Y208636D03*
D44*
X821893Y208636D03*
D81*
X834695Y208636D03*
D62*
X849097Y208636D03*
D79*
X854583Y208636D03*
D13*
X860527Y208636D03*
D14*
X869594Y208636D03*
D11*
X884377Y208636D03*
X889406Y208636D03*
D116*
X895426Y208636D03*
D13*
X900455Y208636D03*
D74*
X911809Y208636D03*
D24*
X922630Y208636D03*
D38*
X927049Y208636D03*
D13*
X934136Y208636D03*
D69*
X941451Y208636D03*
D67*
X951433Y208636D03*
D99*
X965149Y208636D03*
D35*
X978560Y208636D03*
D32*
X989762Y208636D03*
D35*
X809396Y208788D03*
D44*
X821893Y208788D03*
D97*
X834771Y208788D03*
D61*
X849097Y208788D03*
D24*
X854659Y208788D03*
D11*
X860450Y208788D03*
D32*
X869671Y208788D03*
D11*
X884377Y208788D03*
D13*
X889483Y208788D03*
D116*
X895426Y208788D03*
D12*
X900532Y208788D03*
D52*
X911809Y208788D03*
D24*
X922630Y208788D03*
D36*
X927125Y208788D03*
D13*
X934136Y208788D03*
D69*
X941603Y208788D03*
D55*
X951509Y208788D03*
D98*
X965149Y208788D03*
D32*
X978637Y208788D03*
X989762Y208788D03*
D35*
X809396Y208940D03*
D32*
X821969Y208940D03*
D77*
X834847Y208940D03*
D66*
X849097Y208940D03*
D24*
X854659Y208940D03*
D11*
X860450Y208940D03*
D12*
X869747Y208940D03*
D31*
X884301Y208940D03*
D11*
X889559Y208940D03*
D116*
X895426Y208940D03*
D13*
X900608Y208940D03*
D73*
X911809Y208940D03*
D24*
X922630Y208940D03*
D36*
X927278Y208940D03*
D14*
X934212Y208940D03*
D37*
X941756Y208940D03*
D74*
X951586Y208940D03*
D98*
X965149Y208940D03*
D32*
X978637Y208940D03*
X989762Y208940D03*
D35*
X809396Y209093D03*
D32*
X821969Y209093D03*
D91*
X835076Y209093D03*
D60*
X849097Y209093D03*
D21*
X854735Y209093D03*
D11*
X860450Y209093D03*
D32*
X869823Y209093D03*
D31*
X884301Y209093D03*
D13*
X889635Y209093D03*
D11*
X895350Y209093D03*
D14*
X900684Y209093D03*
D60*
X911885Y209093D03*
D24*
X922630Y209093D03*
D38*
X927354Y209093D03*
D14*
X934212Y209093D03*
D38*
X941832Y209093D03*
D62*
X951662Y209093D03*
D109*
X965073Y209093D03*
D32*
X978637Y209093D03*
X989762Y209093D03*
D35*
X809396Y209245D03*
X822046Y209245D03*
D101*
X835152Y209245D03*
D39*
X849097Y209245D03*
D24*
X854812Y209245D03*
D13*
X860374Y209245D03*
D12*
X869899Y209245D03*
D31*
X884301Y209245D03*
D11*
X889711Y209245D03*
D31*
X895274Y209245D03*
D14*
X900684Y209245D03*
D56*
X911885Y209245D03*
D21*
X922553Y209245D03*
D37*
X927583Y209245D03*
D14*
X934212Y209245D03*
D38*
X941984Y209245D03*
D61*
X951662Y209245D03*
D107*
X965073Y209245D03*
D32*
X978637Y209245D03*
X989762Y209245D03*
D35*
X809396Y209398D03*
X822046Y209398D03*
D86*
X835304Y209398D03*
D53*
X849097Y209398D03*
D21*
X854888Y209398D03*
D13*
X860374Y209398D03*
D32*
X869975Y209398D03*
D31*
X884301Y209398D03*
D13*
X889787Y209398D03*
D31*
X895274Y209398D03*
D13*
X900760Y209398D03*
D50*
X911962Y209398D03*
D21*
X922553Y209398D03*
D40*
X927659Y209398D03*
D14*
X934212Y209398D03*
D38*
X942137Y209398D03*
D48*
X951586Y209398D03*
D88*
X964997Y209398D03*
D32*
X978637Y209398D03*
X989762Y209398D03*
D35*
X809396Y209550D03*
X822046Y209550D03*
D68*
X835457Y209550D03*
D33*
X849173Y209550D03*
D41*
X854964Y209550D03*
D11*
X860298Y209550D03*
D12*
X870052Y209550D03*
D31*
X884301Y209550D03*
D11*
X889864Y209550D03*
D31*
X895274Y209550D03*
D14*
X900836Y209550D03*
D33*
X911962Y209550D03*
D41*
X922630Y209550D03*
D28*
X927735Y209550D03*
D13*
X934288Y209550D03*
D69*
X942213Y209550D03*
D49*
X951586Y209550D03*
D100*
X964921Y209550D03*
D35*
X978713Y209550D03*
D32*
X989762Y209550D03*
X809473Y209702D03*
D35*
X822046Y209702D03*
D80*
X835609Y209702D03*
D38*
X849173Y209702D03*
D41*
X854964Y209702D03*
D11*
X860298Y209702D03*
D12*
X870052Y209702D03*
D31*
X884301Y209702D03*
D13*
X889940Y209702D03*
D31*
X895274Y209702D03*
D13*
X900913Y209702D03*
D38*
X911962Y209702D03*
D41*
X922630Y209702D03*
D12*
X927811Y209702D03*
D13*
X934288Y209702D03*
D40*
X942289Y209702D03*
D45*
X951586Y209702D03*
D93*
X964921Y209702D03*
D35*
X978713Y209702D03*
D32*
X989762Y209702D03*
D35*
X809549Y209855D03*
X822046Y209855D03*
D28*
X833552Y209855D03*
D13*
X838276Y209855D03*
D35*
X849173Y209855D03*
D34*
X854964Y209855D03*
D20*
X860298Y209855D03*
D13*
X870128Y209855D03*
D11*
X884225Y209855D03*
X890016Y209855D03*
X895198Y209855D03*
D12*
X900989Y209855D03*
D28*
X912038Y209855D03*
D34*
X922630Y209855D03*
D31*
X927887Y209855D03*
D13*
X934288Y209855D03*
D28*
X942365Y209855D03*
D85*
X951586Y209855D03*
D82*
X964844Y209855D03*
D32*
X978789Y209855D03*
X989762Y209855D03*
D35*
X809549Y210007D03*
D32*
X822122Y210007D03*
D31*
X833552Y210007D03*
D13*
X838276Y210007D03*
D31*
X849249Y210007D03*
D29*
X855040Y210007D03*
D27*
X860374Y210007D03*
D10*
X870128Y210007D03*
D11*
X884225Y210007D03*
D13*
X890092Y210007D03*
D31*
X895121Y210007D03*
D12*
X900989Y210007D03*
D31*
X912038Y210007D03*
D30*
X922630Y210007D03*
D27*
X927887Y210007D03*
D14*
X934364Y210007D03*
D11*
X942442Y210007D03*
D35*
X951586Y210007D03*
D84*
X964768Y210007D03*
D32*
X978789Y210007D03*
X989762Y210007D03*
D35*
X809549Y210160D03*
D32*
X822122Y210160D03*
D79*
X833552Y210160D03*
D14*
X838352Y210160D03*
D24*
X849325Y210160D03*
D11*
X884225Y210160D03*
X890168Y210160D03*
D31*
X895121Y210160D03*
D13*
X901065Y210160D03*
D125*
X912114Y210160D03*
D41*
X927811Y210160D03*
D14*
X934364Y210160D03*
D42*
X951509Y210160D03*
D97*
X964768Y210160D03*
D32*
X978789Y210160D03*
D35*
X989838Y210160D03*
X809549Y210312D03*
X822198Y210312D03*
D16*
X833628Y210312D03*
D14*
X838352Y210312D03*
D16*
X849325Y210312D03*
D11*
X884225Y210312D03*
D13*
X890245Y210312D03*
D31*
X895121Y210312D03*
D12*
X901141Y210312D03*
D111*
X912190Y210312D03*
D17*
X927811Y210312D03*
D14*
X934364Y210312D03*
D17*
X951586Y210312D03*
D91*
X964616Y210312D03*
D44*
X978865Y210312D03*
D35*
X989838Y210312D03*
X809549Y210464D03*
X822198Y210464D03*
D14*
X838352Y210464D03*
D11*
X884225Y210464D03*
X890321Y210464D03*
X895045Y210464D03*
D12*
X901141Y210464D03*
D14*
X934364Y210464D03*
D72*
X964616Y210464D03*
D44*
X978865Y210464D03*
D35*
X989838Y210464D03*
X809549Y210617D03*
X822198Y210617D03*
D14*
X838352Y210617D03*
D11*
X884225Y210617D03*
D13*
X890397Y210617D03*
D11*
X895045Y210617D03*
D12*
X901294Y210617D03*
D14*
X934364Y210617D03*
D121*
X964463Y210617D03*
D44*
X978865Y210617D03*
D35*
X989838Y210617D03*
D32*
X809625Y210769D03*
D35*
X822198Y210769D03*
D13*
X838429Y210769D03*
D31*
X884149Y210769D03*
D11*
X890473Y210769D03*
D31*
X894969Y210769D03*
D12*
X901294Y210769D03*
D13*
X934441Y210769D03*
D14*
X961644Y210769D03*
D38*
X966521Y210769D03*
D32*
X978941Y210769D03*
D35*
X989838Y210769D03*
D44*
X809701Y210922D03*
D35*
X822198Y210922D03*
D13*
X838429Y210922D03*
D31*
X884149Y210922D03*
D13*
X890549Y210922D03*
D31*
X894969Y210922D03*
D13*
X901370Y210922D03*
X934441Y210922D03*
X961720Y210922D03*
D12*
X966521Y210922D03*
D32*
X978941Y210922D03*
D35*
X989838Y210922D03*
D44*
X809701Y211074D03*
D32*
X822274Y211074D03*
D13*
X838429Y211074D03*
D31*
X884149Y211074D03*
D11*
X890626Y211074D03*
X894893Y211074D03*
D14*
X901446Y211074D03*
D12*
X934517Y211074D03*
D13*
X961720Y211074D03*
D27*
X966597Y211074D03*
D35*
X979018Y211074D03*
X989838Y211074D03*
D44*
X809701Y211226D03*
D32*
X822274Y211226D03*
D13*
X838429Y211226D03*
D11*
X884072Y211226D03*
D13*
X890702Y211226D03*
D11*
X894893Y211226D03*
D14*
X901446Y211226D03*
D12*
X934517Y211226D03*
D13*
X961873Y211226D03*
D17*
X966673Y211226D03*
D35*
X979018Y211226D03*
X989838Y211226D03*
D44*
X809701Y211379D03*
D35*
X822350Y211379D03*
D12*
X838505Y211379D03*
D11*
X884072Y211379D03*
D13*
X890854Y211379D03*
D11*
X894893Y211379D03*
D14*
X901598Y211379D03*
D12*
X934517Y211379D03*
D13*
X961873Y211379D03*
D32*
X979094Y211379D03*
D35*
X989838Y211379D03*
D44*
X809701Y211531D03*
D35*
X822350Y211531D03*
D12*
X838505Y211531D03*
D11*
X884072Y211531D03*
D52*
X892759Y211531D03*
D14*
X901598Y211531D03*
D12*
X934517Y211531D03*
D13*
X962025Y211531D03*
D32*
X979094Y211531D03*
D35*
X989838Y211531D03*
D44*
X809701Y211684D03*
D35*
X822350Y211684D03*
D12*
X838505Y211684D03*
D11*
X884072Y211684D03*
D61*
X892835Y211684D03*
D14*
X901598Y211684D03*
D12*
X934517Y211684D03*
X962101Y211684D03*
D35*
X979170Y211684D03*
D32*
X989762Y211684D03*
X809777Y211836D03*
D35*
X822350Y211836D03*
D12*
X838505Y211836D03*
D11*
X884072Y211836D03*
D57*
X892912Y211836D03*
D12*
X901751Y211836D03*
D13*
X934593Y211836D03*
X962177Y211836D03*
D35*
X979170Y211836D03*
D32*
X989762Y211836D03*
D35*
X809854Y211988D03*
X822350Y211988D03*
D13*
X838581Y211988D03*
D11*
X884072Y211988D03*
D57*
X892912Y211988D03*
D12*
X901751Y211988D03*
D13*
X934593Y211988D03*
D12*
X962254Y211988D03*
D32*
X979246Y211988D03*
X989762Y211988D03*
D35*
X809854Y212141D03*
X822350Y212141D03*
D13*
X838581Y212141D03*
D11*
X884072Y212141D03*
D48*
X892912Y212141D03*
D12*
X901903Y212141D03*
D13*
X934593Y212141D03*
D14*
X962406Y212141D03*
D35*
X979322Y212141D03*
D32*
X989762Y212141D03*
D35*
X809854Y212293D03*
D32*
X822427Y212293D03*
D13*
X838581Y212293D03*
D11*
X884072Y212293D03*
D48*
X892912Y212293D03*
D12*
X901903Y212293D03*
X934669Y212293D03*
D13*
X962482Y212293D03*
D35*
X979322Y212293D03*
D32*
X989762Y212293D03*
D35*
X809854Y212446D03*
X822503Y212446D03*
D12*
X838657Y212446D03*
D116*
X883996Y212446D03*
D60*
X892988Y212446D03*
D12*
X901903Y212446D03*
X934669Y212446D03*
D14*
X962558Y212446D03*
D32*
X979399Y212446D03*
X989762Y212446D03*
D35*
X809854Y212598D03*
X822503Y212598D03*
D12*
X838657Y212598D03*
D11*
X883920Y212598D03*
D60*
X892988Y212598D03*
D12*
X902056Y212598D03*
X934669Y212598D03*
X962711Y212598D03*
D35*
X979475Y212598D03*
D32*
X989762Y212598D03*
D35*
X809854Y212750D03*
X822503Y212750D03*
D12*
X838657Y212750D03*
D11*
X883920Y212750D03*
D54*
X893064Y212750D03*
D12*
X902056Y212750D03*
X934669Y212750D03*
D32*
X962787Y212750D03*
D35*
X979475Y212750D03*
X989686Y212750D03*
D32*
X809930Y212903D03*
D35*
X822503Y212903D03*
D12*
X838657Y212903D03*
D11*
X883920Y212903D03*
D56*
X892988Y212903D03*
D12*
X902056Y212903D03*
D13*
X934745Y212903D03*
D32*
X962939Y212903D03*
X979551Y212903D03*
D35*
X989686Y212903D03*
X810006Y213055D03*
X822503Y213055D03*
D13*
X838733Y213055D03*
D11*
X883920Y213055D03*
D49*
X893064Y213055D03*
D14*
X902208Y213055D03*
D13*
X934745Y213055D03*
D32*
X963092Y213055D03*
D44*
X979627Y213055D03*
D35*
X989686Y213055D03*
X810006Y213208D03*
X822503Y213208D03*
D13*
X838733Y213208D03*
D11*
X883920Y213208D03*
D49*
X893064Y213208D03*
D14*
X902208Y213208D03*
D13*
X934745Y213208D03*
D35*
X963168Y213208D03*
D44*
X979627Y213208D03*
D35*
X989686Y213208D03*
X810006Y213360D03*
D32*
X822579Y213360D03*
D13*
X838733Y213360D03*
D11*
X883920Y213360D03*
D39*
X893140Y213360D03*
D14*
X902360Y213360D03*
D12*
X934822Y213360D03*
D35*
X963320Y213360D03*
X979780Y213360D03*
X989686Y213360D03*
X810006Y213512D03*
D44*
X822655Y213512D03*
D12*
X838810Y213512D03*
D11*
X883920Y213512D03*
D39*
X893140Y213512D03*
D14*
X902360Y213512D03*
D12*
X934822Y213512D03*
D35*
X963473Y213512D03*
X979780Y213512D03*
D32*
X989609Y213512D03*
D35*
X810006Y213665D03*
D44*
X822655Y213665D03*
D12*
X838810Y213665D03*
D11*
X883920Y213665D03*
D53*
X893140Y213665D03*
D14*
X902360Y213665D03*
D12*
X934822Y213665D03*
D44*
X963625Y213665D03*
D28*
X979856Y213665D03*
D44*
X989533Y213665D03*
D35*
X810006Y213817D03*
D44*
X822655Y213817D03*
D12*
X838810Y213817D03*
D11*
X883920Y213817D03*
D53*
X893140Y213817D03*
D12*
X902513Y213817D03*
X934822Y213817D03*
D28*
X963701Y213817D03*
D35*
X979932Y213817D03*
D44*
X989533Y213817D03*
D32*
X810082Y213970D03*
D44*
X822655Y213970D03*
D12*
X838810Y213970D03*
D13*
X883844Y213970D03*
D45*
X893216Y213970D03*
D12*
X902513Y213970D03*
D13*
X934898Y213970D03*
D28*
X963854Y213970D03*
X980008Y213970D03*
D44*
X989533Y213970D03*
D35*
X810158Y214122D03*
D44*
X822655Y214122D03*
D13*
X838886Y214122D03*
D11*
X883768Y214122D03*
D45*
X893216Y214122D03*
D32*
X902589Y214122D03*
D13*
X934898Y214122D03*
D40*
X964082Y214122D03*
D35*
X980084Y214122D03*
D28*
X989457Y214122D03*
D35*
X810158Y214274D03*
D44*
X822655Y214274D03*
D13*
X838886Y214274D03*
D11*
X883768Y214274D03*
D47*
X893293Y214274D03*
D12*
X902665Y214274D03*
D13*
X934898Y214274D03*
D40*
X964235Y214274D03*
D28*
X980161Y214274D03*
X989457Y214274D03*
D35*
X810158Y214427D03*
D32*
X822731Y214427D03*
D13*
X838886Y214427D03*
D11*
X883768Y214427D03*
D115*
X893216Y214427D03*
D12*
X902665Y214427D03*
D14*
X934974Y214427D03*
D40*
X964387Y214427D03*
D28*
X980313Y214427D03*
D35*
X989381Y214427D03*
X810158Y214579D03*
X822808Y214579D03*
D14*
X838962Y214579D03*
D11*
X883768Y214579D03*
D46*
X893293Y214579D03*
D12*
X902818Y214579D03*
D14*
X934974Y214579D03*
D38*
X964540Y214579D03*
D28*
X980313Y214579D03*
X989305Y214579D03*
D35*
X810158Y214732D03*
X822808Y214732D03*
D14*
X838962Y214732D03*
D11*
X883768Y214732D03*
D46*
X893293Y214732D03*
D12*
X902818Y214732D03*
D14*
X934974Y214732D03*
D38*
X964692Y214732D03*
D28*
X980465Y214732D03*
X989305Y214732D03*
D35*
X810158Y214884D03*
X822808Y214884D03*
D14*
X838962Y214884D03*
D11*
X883768Y214884D03*
D85*
X893369Y214884D03*
D32*
X902894Y214884D03*
D14*
X934974Y214884D03*
D36*
X964921Y214884D03*
D40*
X980542Y214884D03*
X989228Y214884D03*
D32*
X810235Y215036D03*
D35*
X822808Y215036D03*
D14*
X838962Y215036D03*
D11*
X883768Y215036D03*
D85*
X893369Y215036D03*
D14*
X902970Y215036D03*
D13*
X935050Y215036D03*
D36*
X965073Y215036D03*
D40*
X980694Y215036D03*
D28*
X989152Y215036D03*
D35*
X810311Y215189D03*
X822808Y215189D03*
D13*
X839038Y215189D03*
D11*
X883768Y215189D03*
D38*
X893369Y215189D03*
D14*
X902970Y215189D03*
D13*
X935050Y215189D03*
D85*
X965302Y215189D03*
D37*
X980770Y215189D03*
D40*
X989076Y215189D03*
D35*
X810311Y215341D03*
X822808Y215341D03*
D13*
X839038Y215341D03*
X883691Y215341D03*
D38*
X893369Y215341D03*
D32*
X903046Y215341D03*
D13*
X935050Y215341D03*
D85*
X965454Y215341D03*
D37*
X980923Y215341D03*
X989000Y215341D03*
D35*
X810311Y215494D03*
D32*
X822884Y215494D03*
D13*
X839038Y215494D03*
X883691Y215494D03*
D69*
X893445Y215494D03*
D14*
X903122Y215494D03*
X935126Y215494D03*
D46*
X965683Y215494D03*
D38*
X980999Y215494D03*
D40*
X988924Y215494D03*
D35*
X810311Y215646D03*
X822960Y215646D03*
D14*
X839114Y215646D03*
D13*
X883691Y215646D03*
D69*
X893445Y215646D03*
D32*
X903199Y215646D03*
D14*
X935126Y215646D03*
D33*
X965911Y215646D03*
D36*
X981227Y215646D03*
D69*
X988847Y215646D03*
D35*
X810311Y215798D03*
X822960Y215798D03*
D14*
X839114Y215798D03*
D11*
X883615Y215798D03*
D40*
X893521Y215798D03*
D12*
X903275Y215798D03*
D14*
X935126Y215798D03*
D47*
X966140Y215798D03*
D85*
X981304Y215798D03*
D36*
X988695Y215798D03*
D35*
X810311Y215951D03*
X822960Y215951D03*
D14*
X839114Y215951D03*
D11*
X883615Y215951D03*
D28*
X893445Y215951D03*
D12*
X903275Y215951D03*
D14*
X935126Y215951D03*
D45*
X966368Y215951D03*
D115*
X981608Y215951D03*
D85*
X988466Y215951D03*
D32*
X810387Y216103D03*
D35*
X822960Y216103D03*
D14*
X839114Y216103D03*
D11*
X883615Y216103D03*
D44*
X893521Y216103D03*
D32*
X903351Y216103D03*
D13*
X935203Y216103D03*
D53*
X966597Y216103D03*
D109*
X985037Y216103D03*
D44*
X810463Y216256D03*
D35*
X822960Y216256D03*
D13*
X839191Y216256D03*
D11*
X883615Y216256D03*
D32*
X893597Y216256D03*
D12*
X903427Y216256D03*
D13*
X935203Y216256D03*
D50*
X966826Y216256D03*
D126*
X984961Y216256D03*
D44*
X810463Y216408D03*
D35*
X822960Y216408D03*
D13*
X839191Y216408D03*
D11*
X883615Y216408D03*
D32*
X893597Y216408D03*
X903503Y216408D03*
D13*
X935203Y216408D03*
D39*
X967054Y216408D03*
D107*
X985037Y216408D03*
D44*
X810463Y216560D03*
D32*
X823036Y216560D03*
D13*
X839191Y216560D03*
D11*
X883615Y216560D03*
D13*
X893597Y216560D03*
D32*
X903503Y216560D03*
D12*
X935279Y216560D03*
D51*
X967359Y216560D03*
D100*
X985037Y216560D03*
D44*
X810463Y216713D03*
D35*
X823112Y216713D03*
D12*
X839267Y216713D03*
D13*
X883539Y216713D03*
X893597Y216713D03*
D12*
X903580Y216713D03*
X935279Y216713D03*
D56*
X967664Y216713D03*
D87*
X985114Y216713D03*
D44*
X810463Y216865D03*
D35*
X823112Y216865D03*
D12*
X839267Y216865D03*
D13*
X883539Y216865D03*
D11*
X893674Y216865D03*
D32*
X903656Y216865D03*
D12*
X935279Y216865D03*
D60*
X967969Y216865D03*
D93*
X985037Y216865D03*
D44*
X810463Y217018D03*
D35*
X823112Y217018D03*
D12*
X839267Y217018D03*
D13*
X883539Y217018D03*
D11*
X893674Y217018D03*
D14*
X903732Y217018D03*
D12*
X935279Y217018D03*
D60*
X968121Y217018D03*
D82*
X985114Y217018D03*
D32*
X810539Y217170D03*
D35*
X823112Y217170D03*
D12*
X839267Y217170D03*
D13*
X883539Y217170D03*
D31*
X893750Y217170D03*
D14*
X903732Y217170D03*
D13*
X935355Y217170D03*
D54*
X968350Y217170D03*
D81*
X985114Y217170D03*
D35*
X810616Y217322D03*
X823112Y217322D03*
D13*
X839343Y217322D03*
X883539Y217322D03*
D20*
X893674Y217322D03*
D32*
X903808Y217322D03*
D13*
X935355Y217322D03*
D54*
X968502Y217322D03*
D97*
X985190Y217322D03*
D35*
X810616Y217475D03*
X823112Y217475D03*
D13*
X839343Y217475D03*
D11*
X883463Y217475D03*
D10*
X893750Y217475D03*
D14*
X903884Y217475D03*
D13*
X935355Y217475D03*
D119*
X968578Y217475D03*
D91*
X985190Y217475D03*
D35*
X810616Y217627D03*
D32*
X823189Y217627D03*
D13*
X839343Y217627D03*
D11*
X883463Y217627D03*
D10*
X893750Y217627D03*
D32*
X903961Y217627D03*
D12*
X935431Y217627D03*
D39*
X968731Y217627D03*
D72*
X985190Y217627D03*
D35*
X810616Y217780D03*
X823265Y217780D03*
D12*
X839419Y217780D03*
D11*
X883463Y217780D03*
D25*
X893826Y217780D03*
D32*
X903961Y217780D03*
D12*
X935431Y217780D03*
D50*
X968807Y217780D03*
D121*
X985190Y217780D03*
D35*
X810616Y217932D03*
X823265Y217932D03*
D12*
X839419Y217932D03*
D11*
X883463Y217932D03*
D25*
X893826Y217932D03*
D12*
X904037Y217932D03*
X935431Y217932D03*
D118*
X968959Y217932D03*
D68*
X985266Y217932D03*
D35*
X810616Y218084D03*
X823265Y218084D03*
D12*
X839419Y218084D03*
D13*
X883387Y218084D03*
D26*
X893826Y218084D03*
D32*
X904113Y218084D03*
D12*
X935431Y218084D03*
D33*
X968959Y218084D03*
D80*
X985266Y218084D03*
D32*
X810692Y218237D03*
D35*
X823265Y218237D03*
D12*
X839419Y218237D03*
D13*
X883387Y218237D03*
D26*
X893826Y218237D03*
D12*
X904189Y218237D03*
X935431Y218237D03*
D85*
X969112Y218237D03*
D59*
X985342Y218237D03*
D35*
X810768Y218389D03*
X823265Y218389D03*
D12*
X839419Y218389D03*
D13*
X883387Y218389D03*
D79*
X893902Y218389D03*
D32*
X904265Y218389D03*
D13*
X935507Y218389D03*
D38*
X969264Y218389D03*
D70*
X985342Y218389D03*
D35*
X810768Y218542D03*
X823265Y218542D03*
D13*
X839495Y218542D03*
X883387Y218542D03*
D79*
X893902Y218542D03*
D32*
X904265Y218542D03*
D13*
X935507Y218542D03*
D37*
X969340Y218542D03*
D127*
X985342Y218542D03*
D35*
X810768Y218694D03*
D32*
X823341Y218694D03*
D13*
X839495Y218694D03*
X883387Y218694D03*
D125*
X893978Y218694D03*
D12*
X904342Y218694D03*
X935584Y218694D03*
D35*
X969416Y218694D03*
D52*
X985418Y218694D03*
D35*
X810768Y218846D03*
D44*
X823417Y218846D03*
D12*
X839572Y218846D03*
D13*
X883387Y218846D03*
D21*
X893902Y218846D03*
D32*
X904418Y218846D03*
D12*
X935584Y218846D03*
X969569Y218846D03*
D66*
X985342Y218846D03*
D35*
X810768Y218999D03*
D44*
X823417Y218999D03*
D12*
X839572Y218999D03*
D13*
X883387Y218999D03*
D41*
X893978Y218999D03*
D32*
X904418Y218999D03*
D12*
X935584Y218999D03*
D11*
X969721Y218999D03*
D54*
X985418Y218999D03*
D35*
X810768Y219151D03*
D44*
X823417Y219151D03*
D12*
X839572Y219151D03*
D11*
X883310Y219151D03*
D41*
X893978Y219151D03*
D32*
X904570Y219151D03*
D12*
X935584Y219151D03*
D20*
X969874Y219151D03*
D39*
X985495Y219151D03*
D32*
X810844Y219304D03*
D44*
X823417Y219304D03*
D12*
X839572Y219304D03*
D11*
X883310Y219304D03*
D65*
X894055Y219304D03*
D32*
X904570Y219304D03*
D12*
X935584Y219304D03*
D27*
X969950Y219304D03*
D47*
X985495Y219304D03*
D35*
X810920Y219456D03*
D44*
X823417Y219456D03*
D12*
X839572Y219456D03*
D13*
X883234Y219456D03*
D65*
X894055Y219456D03*
D14*
X904646Y219456D03*
D13*
X935660Y219456D03*
D79*
X970102Y219456D03*
D38*
X985571Y219456D03*
D35*
X810920Y219608D03*
D44*
X823417Y219608D03*
D13*
X839648Y219608D03*
X883234Y219608D03*
D128*
X894055Y219608D03*
D32*
X904723Y219608D03*
D13*
X935660Y219608D03*
D21*
X970255Y219608D03*
D12*
X985571Y219608D03*
D35*
X810920Y219761D03*
D32*
X823493Y219761D03*
D13*
X839648Y219761D03*
X883234Y219761D03*
D128*
X894055Y219761D03*
D32*
X904723Y219761D03*
D13*
X935660Y219761D03*
D22*
X970407Y219761D03*
D27*
X985647Y219761D03*
D32*
X810997Y219913D03*
X823493Y219913D03*
D11*
X839724Y219913D03*
X883310Y219913D03*
D43*
X894131Y219913D03*
D12*
X904799Y219913D03*
D13*
X935660Y219913D03*
D29*
X970559Y219913D03*
D19*
X985647Y219913D03*
D14*
X810920Y220066D03*
D13*
X823493Y220066D03*
D20*
X839724Y220066D03*
X883310Y220066D03*
D43*
X894131Y220066D03*
D11*
X904799Y220066D03*
X935736Y220066D03*
D15*
X970788Y220066D03*
D20*
X810920Y220218D03*
X823570Y220218D03*
D79*
X839953Y220218D03*
D25*
X883310Y220218D03*
D29*
X894207Y220218D03*
D20*
X904799Y220218D03*
D25*
X935736Y220218D03*
D129*
X970864Y220218D03*
D23*
X894207Y220370D03*
D19*
X894207Y220523D03*
M02*
