G04 EAGLE Gerber RS-274X export*
G75*
%MOMM*%
%FSLAX34Y34*%
%LPD*%
%INSolderpaste Bottom*%
%IPPOS*%
%AMOC8*
5,1,8,0,0,1.08239X$1,22.5*%
G01*
%ADD10R,1.220000X0.910000*%
%ADD11R,1.080000X1.050000*%
%ADD12R,1.050000X1.080000*%
%ADD13C,0.508000*%
%ADD14C,0.075000*%
%ADD15R,1.300000X1.050000*%
%ADD16R,0.550000X0.950000*%
%ADD17R,0.900000X0.970200*%
%ADD18R,0.932600X0.970200*%
%ADD19R,1.000000X1.000000*%
%ADD20R,0.600000X1.000000*%
%ADD21R,0.600000X0.600000*%
%ADD22R,1.000000X0.850000*%
%ADD23R,0.850000X1.000000*%
%ADD24R,0.300000X0.900000*%
%ADD25R,1.000000X5.500000*%
%ADD26R,1.600000X3.000000*%
%ADD27R,1.400000X1.000000*%


D10*
X119063Y936150D03*
X119063Y968850D03*
X346147Y905570D03*
X346147Y938270D03*
X500063Y936150D03*
X500063Y968850D03*
X690563Y936150D03*
X690563Y968850D03*
X881063Y936150D03*
X881063Y968850D03*
X1071563Y936150D03*
X1071563Y968850D03*
X1262063Y936150D03*
X1262063Y968850D03*
X1452563Y936150D03*
X1452563Y968850D03*
X1643063Y936150D03*
X1643063Y968850D03*
X1833563Y936150D03*
X1833563Y968850D03*
X2024063Y936150D03*
X2024063Y968850D03*
X2214563Y936150D03*
X2214563Y968850D03*
X2405063Y936150D03*
X2405063Y968850D03*
X2595563Y936150D03*
X2595563Y968850D03*
X166688Y745650D03*
X166688Y778350D03*
X404813Y745650D03*
X404813Y778350D03*
X595313Y745650D03*
X595313Y778350D03*
X785813Y745650D03*
X785813Y778350D03*
X976313Y745650D03*
X976313Y778350D03*
X1166813Y745650D03*
X1166813Y778350D03*
X1357313Y745650D03*
X1357313Y778350D03*
X1547813Y745650D03*
X1547813Y778350D03*
X1738313Y745650D03*
X1738313Y778350D03*
X1928813Y745650D03*
X1928813Y778350D03*
X2119313Y745650D03*
X2119313Y778350D03*
X2309813Y745650D03*
X2309813Y778350D03*
X2500313Y745650D03*
X2500313Y778350D03*
X2738438Y721838D03*
X2738438Y754538D03*
X2698665Y726439D03*
X2698665Y693739D03*
X452438Y555150D03*
X452438Y587850D03*
X642938Y555150D03*
X642938Y587850D03*
X833438Y555150D03*
X833438Y587850D03*
X1023938Y555150D03*
X1023938Y587850D03*
X1214438Y555150D03*
X1214438Y587850D03*
X1411061Y555283D03*
X1411061Y587983D03*
X1595438Y555150D03*
X1595438Y587850D03*
X1785938Y555150D03*
X1785938Y587850D03*
X1976438Y555150D03*
X1976438Y587850D03*
X2166938Y555150D03*
X2166938Y587850D03*
X2357438Y555150D03*
X2357438Y587850D03*
X2547938Y555150D03*
X2547938Y587850D03*
X2881313Y555150D03*
X2881313Y587850D03*
X2786063Y364650D03*
X2786063Y397350D03*
X2524125Y364650D03*
X2524125Y397350D03*
X2262188Y364650D03*
X2262188Y397350D03*
X2071688Y364650D03*
X2071688Y397350D03*
X1881188Y364650D03*
X1881188Y397350D03*
X1690688Y364650D03*
X1690688Y397350D03*
X1500188Y364650D03*
X1500188Y397350D03*
X1309688Y364650D03*
X1309688Y397350D03*
X1119188Y364650D03*
X1119188Y397350D03*
X928688Y364650D03*
X928688Y397350D03*
X738188Y364650D03*
X738188Y397350D03*
X547688Y364650D03*
X547688Y397350D03*
X238125Y364650D03*
X238125Y397350D03*
X142875Y174150D03*
X142875Y206850D03*
X381000Y174150D03*
X381000Y206850D03*
X619125Y174150D03*
X619125Y206850D03*
X1047750Y174150D03*
X1047750Y206850D03*
X1857375Y174150D03*
X1857375Y206850D03*
X2262188Y174150D03*
X2262188Y206850D03*
X2500313Y174150D03*
X2500313Y206850D03*
X2738438Y174150D03*
X2738438Y206850D03*
X1333500Y174150D03*
X1333500Y206850D03*
D11*
X238125Y913625D03*
X238125Y896125D03*
X412280Y920757D03*
X412280Y903257D03*
X619125Y913625D03*
X619125Y896125D03*
X809625Y913625D03*
X809625Y896125D03*
X1000125Y913625D03*
X1000125Y896125D03*
X1190625Y913625D03*
X1190625Y896125D03*
X1381125Y913625D03*
X1381125Y896125D03*
X1571625Y913625D03*
X1571625Y896125D03*
X1762125Y913625D03*
X1762125Y896125D03*
X1952625Y913625D03*
X1952625Y896125D03*
X2143125Y913625D03*
X2143125Y896125D03*
X2333625Y913625D03*
X2333625Y896125D03*
X2524125Y913625D03*
X2524125Y896125D03*
X2809875Y913625D03*
X2809875Y896125D03*
X285750Y723125D03*
X285750Y705625D03*
X523875Y723125D03*
X523875Y705625D03*
X714375Y723125D03*
X714375Y705625D03*
X904875Y723125D03*
X904875Y705625D03*
X1095375Y723125D03*
X1095375Y705625D03*
X1285875Y723125D03*
X1285875Y705625D03*
X1476375Y723125D03*
X1476375Y705625D03*
X1666875Y723125D03*
X1666875Y705625D03*
X1857375Y723125D03*
X1857375Y705625D03*
X2047875Y723125D03*
X2047875Y705625D03*
X2238375Y723125D03*
X2238375Y705625D03*
X2428875Y723125D03*
X2428875Y705625D03*
X2619375Y723125D03*
X2619375Y705625D03*
X2881313Y723125D03*
X2881313Y705625D03*
X571500Y532625D03*
X571500Y515125D03*
X762000Y532625D03*
X762000Y515125D03*
X952500Y532625D03*
X952500Y515125D03*
X1143000Y532625D03*
X1143000Y515125D03*
X1333500Y532625D03*
X1333500Y515125D03*
X1524000Y532625D03*
X1524000Y515125D03*
X1714500Y532625D03*
X1714500Y515125D03*
X1905000Y532625D03*
X1905000Y515125D03*
X2095500Y532625D03*
X2095500Y515125D03*
X2286000Y532625D03*
X2286000Y515125D03*
X2476500Y532625D03*
X2476500Y515125D03*
X2809875Y532625D03*
X2809875Y515125D03*
X2667000Y532625D03*
X2667000Y515125D03*
X357188Y342125D03*
X357188Y324625D03*
X666750Y342125D03*
X666750Y324625D03*
X857250Y342125D03*
X857250Y324625D03*
X1047750Y342125D03*
X1047750Y324625D03*
X1238250Y342125D03*
X1238250Y324625D03*
X1428750Y342125D03*
X1428750Y324625D03*
X1619250Y342125D03*
X1619250Y324625D03*
X1809750Y342125D03*
X1809750Y324625D03*
X2000250Y342125D03*
X2000250Y324625D03*
X2190750Y342125D03*
X2190750Y324625D03*
X2381250Y342125D03*
X2381250Y324625D03*
X2643188Y342125D03*
X2643188Y324625D03*
X2738438Y342125D03*
X2738438Y324625D03*
X2905125Y342125D03*
X2905125Y324625D03*
X404813Y151625D03*
X404813Y134125D03*
X523875Y151625D03*
X523875Y134125D03*
X762000Y151625D03*
X762000Y134125D03*
X1166813Y151625D03*
X1166813Y134125D03*
X1452563Y151625D03*
X1452563Y134125D03*
X2000250Y175438D03*
X2000250Y157938D03*
X2405063Y151625D03*
X2405063Y134125D03*
X2643188Y151625D03*
X2643188Y134125D03*
X2881313Y151625D03*
X2881313Y134125D03*
X2881860Y627464D03*
X2881860Y609964D03*
D12*
X2814467Y882170D03*
X2831967Y882170D03*
D13*
X400754Y674948D02*
X355034Y674948D01*
X400754Y674948D02*
X400754Y629228D01*
X355034Y629228D01*
X355034Y674948D01*
X355034Y634054D02*
X400754Y634054D01*
X400754Y638880D02*
X355034Y638880D01*
X355034Y643706D02*
X400754Y643706D01*
X400754Y648532D02*
X355034Y648532D01*
X355034Y653358D02*
X400754Y653358D01*
X400754Y658184D02*
X355034Y658184D01*
X355034Y663010D02*
X400754Y663010D01*
X400754Y667836D02*
X355034Y667836D01*
X355034Y672662D02*
X400754Y672662D01*
D14*
X406769Y675963D02*
X416019Y675963D01*
X406769Y675963D02*
X406769Y678213D01*
X416019Y678213D01*
X416019Y675963D01*
X416019Y676675D02*
X406769Y676675D01*
X406769Y677387D02*
X416019Y677387D01*
X416019Y678099D02*
X406769Y678099D01*
X406769Y670963D02*
X416019Y670963D01*
X406769Y670963D02*
X406769Y673213D01*
X416019Y673213D01*
X416019Y670963D01*
X416019Y671675D02*
X406769Y671675D01*
X406769Y672387D02*
X416019Y672387D01*
X416019Y673099D02*
X406769Y673099D01*
X406769Y665963D02*
X416019Y665963D01*
X406769Y665963D02*
X406769Y668213D01*
X416019Y668213D01*
X416019Y665963D01*
X416019Y666675D02*
X406769Y666675D01*
X406769Y667387D02*
X416019Y667387D01*
X416019Y668099D02*
X406769Y668099D01*
X406769Y660963D02*
X416019Y660963D01*
X406769Y660963D02*
X406769Y663213D01*
X416019Y663213D01*
X416019Y660963D01*
X416019Y661675D02*
X406769Y661675D01*
X406769Y662387D02*
X416019Y662387D01*
X416019Y663099D02*
X406769Y663099D01*
X406769Y655963D02*
X416019Y655963D01*
X406769Y655963D02*
X406769Y658213D01*
X416019Y658213D01*
X416019Y655963D01*
X416019Y656675D02*
X406769Y656675D01*
X406769Y657387D02*
X416019Y657387D01*
X416019Y658099D02*
X406769Y658099D01*
X406769Y650963D02*
X416019Y650963D01*
X406769Y650963D02*
X406769Y653213D01*
X416019Y653213D01*
X416019Y650963D01*
X416019Y651675D02*
X406769Y651675D01*
X406769Y652387D02*
X416019Y652387D01*
X416019Y653099D02*
X406769Y653099D01*
X406769Y645963D02*
X416019Y645963D01*
X406769Y645963D02*
X406769Y648213D01*
X416019Y648213D01*
X416019Y645963D01*
X416019Y646675D02*
X406769Y646675D01*
X406769Y647387D02*
X416019Y647387D01*
X416019Y648099D02*
X406769Y648099D01*
X406769Y640963D02*
X416019Y640963D01*
X406769Y640963D02*
X406769Y643213D01*
X416019Y643213D01*
X416019Y640963D01*
X416019Y641675D02*
X406769Y641675D01*
X406769Y642387D02*
X416019Y642387D01*
X416019Y643099D02*
X406769Y643099D01*
X406769Y635963D02*
X416019Y635963D01*
X406769Y635963D02*
X406769Y638213D01*
X416019Y638213D01*
X416019Y635963D01*
X416019Y636675D02*
X406769Y636675D01*
X406769Y637387D02*
X416019Y637387D01*
X416019Y638099D02*
X406769Y638099D01*
X406769Y630963D02*
X416019Y630963D01*
X406769Y630963D02*
X406769Y633213D01*
X416019Y633213D01*
X416019Y630963D01*
X416019Y631675D02*
X406769Y631675D01*
X406769Y632387D02*
X416019Y632387D01*
X416019Y633099D02*
X406769Y633099D01*
X406769Y625963D02*
X416019Y625963D01*
X406769Y625963D02*
X406769Y628213D01*
X416019Y628213D01*
X416019Y625963D01*
X416019Y626675D02*
X406769Y626675D01*
X406769Y627387D02*
X416019Y627387D01*
X416019Y628099D02*
X406769Y628099D01*
X401769Y623213D02*
X401769Y613963D01*
X401769Y623213D02*
X404019Y623213D01*
X404019Y613963D01*
X401769Y613963D01*
X401769Y614675D02*
X404019Y614675D01*
X404019Y615387D02*
X401769Y615387D01*
X401769Y616099D02*
X404019Y616099D01*
X404019Y616811D02*
X401769Y616811D01*
X401769Y617523D02*
X404019Y617523D01*
X404019Y618235D02*
X401769Y618235D01*
X401769Y618947D02*
X404019Y618947D01*
X404019Y619659D02*
X401769Y619659D01*
X401769Y620371D02*
X404019Y620371D01*
X404019Y621083D02*
X401769Y621083D01*
X401769Y621795D02*
X404019Y621795D01*
X404019Y622507D02*
X401769Y622507D01*
X396769Y623213D02*
X396769Y613963D01*
X396769Y623213D02*
X399019Y623213D01*
X399019Y613963D01*
X396769Y613963D01*
X396769Y614675D02*
X399019Y614675D01*
X399019Y615387D02*
X396769Y615387D01*
X396769Y616099D02*
X399019Y616099D01*
X399019Y616811D02*
X396769Y616811D01*
X396769Y617523D02*
X399019Y617523D01*
X399019Y618235D02*
X396769Y618235D01*
X396769Y618947D02*
X399019Y618947D01*
X399019Y619659D02*
X396769Y619659D01*
X396769Y620371D02*
X399019Y620371D01*
X399019Y621083D02*
X396769Y621083D01*
X396769Y621795D02*
X399019Y621795D01*
X399019Y622507D02*
X396769Y622507D01*
X391769Y623213D02*
X391769Y613963D01*
X391769Y623213D02*
X394019Y623213D01*
X394019Y613963D01*
X391769Y613963D01*
X391769Y614675D02*
X394019Y614675D01*
X394019Y615387D02*
X391769Y615387D01*
X391769Y616099D02*
X394019Y616099D01*
X394019Y616811D02*
X391769Y616811D01*
X391769Y617523D02*
X394019Y617523D01*
X394019Y618235D02*
X391769Y618235D01*
X391769Y618947D02*
X394019Y618947D01*
X394019Y619659D02*
X391769Y619659D01*
X391769Y620371D02*
X394019Y620371D01*
X394019Y621083D02*
X391769Y621083D01*
X391769Y621795D02*
X394019Y621795D01*
X394019Y622507D02*
X391769Y622507D01*
X386769Y623213D02*
X386769Y613963D01*
X386769Y623213D02*
X389019Y623213D01*
X389019Y613963D01*
X386769Y613963D01*
X386769Y614675D02*
X389019Y614675D01*
X389019Y615387D02*
X386769Y615387D01*
X386769Y616099D02*
X389019Y616099D01*
X389019Y616811D02*
X386769Y616811D01*
X386769Y617523D02*
X389019Y617523D01*
X389019Y618235D02*
X386769Y618235D01*
X386769Y618947D02*
X389019Y618947D01*
X389019Y619659D02*
X386769Y619659D01*
X386769Y620371D02*
X389019Y620371D01*
X389019Y621083D02*
X386769Y621083D01*
X386769Y621795D02*
X389019Y621795D01*
X389019Y622507D02*
X386769Y622507D01*
X381769Y623213D02*
X381769Y613963D01*
X381769Y623213D02*
X384019Y623213D01*
X384019Y613963D01*
X381769Y613963D01*
X381769Y614675D02*
X384019Y614675D01*
X384019Y615387D02*
X381769Y615387D01*
X381769Y616099D02*
X384019Y616099D01*
X384019Y616811D02*
X381769Y616811D01*
X381769Y617523D02*
X384019Y617523D01*
X384019Y618235D02*
X381769Y618235D01*
X381769Y618947D02*
X384019Y618947D01*
X384019Y619659D02*
X381769Y619659D01*
X381769Y620371D02*
X384019Y620371D01*
X384019Y621083D02*
X381769Y621083D01*
X381769Y621795D02*
X384019Y621795D01*
X384019Y622507D02*
X381769Y622507D01*
X376769Y623213D02*
X376769Y613963D01*
X376769Y623213D02*
X379019Y623213D01*
X379019Y613963D01*
X376769Y613963D01*
X376769Y614675D02*
X379019Y614675D01*
X379019Y615387D02*
X376769Y615387D01*
X376769Y616099D02*
X379019Y616099D01*
X379019Y616811D02*
X376769Y616811D01*
X376769Y617523D02*
X379019Y617523D01*
X379019Y618235D02*
X376769Y618235D01*
X376769Y618947D02*
X379019Y618947D01*
X379019Y619659D02*
X376769Y619659D01*
X376769Y620371D02*
X379019Y620371D01*
X379019Y621083D02*
X376769Y621083D01*
X376769Y621795D02*
X379019Y621795D01*
X379019Y622507D02*
X376769Y622507D01*
X371769Y623213D02*
X371769Y613963D01*
X371769Y623213D02*
X374019Y623213D01*
X374019Y613963D01*
X371769Y613963D01*
X371769Y614675D02*
X374019Y614675D01*
X374019Y615387D02*
X371769Y615387D01*
X371769Y616099D02*
X374019Y616099D01*
X374019Y616811D02*
X371769Y616811D01*
X371769Y617523D02*
X374019Y617523D01*
X374019Y618235D02*
X371769Y618235D01*
X371769Y618947D02*
X374019Y618947D01*
X374019Y619659D02*
X371769Y619659D01*
X371769Y620371D02*
X374019Y620371D01*
X374019Y621083D02*
X371769Y621083D01*
X371769Y621795D02*
X374019Y621795D01*
X374019Y622507D02*
X371769Y622507D01*
X366769Y623213D02*
X366769Y613963D01*
X366769Y623213D02*
X369019Y623213D01*
X369019Y613963D01*
X366769Y613963D01*
X366769Y614675D02*
X369019Y614675D01*
X369019Y615387D02*
X366769Y615387D01*
X366769Y616099D02*
X369019Y616099D01*
X369019Y616811D02*
X366769Y616811D01*
X366769Y617523D02*
X369019Y617523D01*
X369019Y618235D02*
X366769Y618235D01*
X366769Y618947D02*
X369019Y618947D01*
X369019Y619659D02*
X366769Y619659D01*
X366769Y620371D02*
X369019Y620371D01*
X369019Y621083D02*
X366769Y621083D01*
X366769Y621795D02*
X369019Y621795D01*
X369019Y622507D02*
X366769Y622507D01*
X361769Y623213D02*
X361769Y613963D01*
X361769Y623213D02*
X364019Y623213D01*
X364019Y613963D01*
X361769Y613963D01*
X361769Y614675D02*
X364019Y614675D01*
X364019Y615387D02*
X361769Y615387D01*
X361769Y616099D02*
X364019Y616099D01*
X364019Y616811D02*
X361769Y616811D01*
X361769Y617523D02*
X364019Y617523D01*
X364019Y618235D02*
X361769Y618235D01*
X361769Y618947D02*
X364019Y618947D01*
X364019Y619659D02*
X361769Y619659D01*
X361769Y620371D02*
X364019Y620371D01*
X364019Y621083D02*
X361769Y621083D01*
X361769Y621795D02*
X364019Y621795D01*
X364019Y622507D02*
X361769Y622507D01*
X356769Y623213D02*
X356769Y613963D01*
X356769Y623213D02*
X359019Y623213D01*
X359019Y613963D01*
X356769Y613963D01*
X356769Y614675D02*
X359019Y614675D01*
X359019Y615387D02*
X356769Y615387D01*
X356769Y616099D02*
X359019Y616099D01*
X359019Y616811D02*
X356769Y616811D01*
X356769Y617523D02*
X359019Y617523D01*
X359019Y618235D02*
X356769Y618235D01*
X356769Y618947D02*
X359019Y618947D01*
X359019Y619659D02*
X356769Y619659D01*
X356769Y620371D02*
X359019Y620371D01*
X359019Y621083D02*
X356769Y621083D01*
X356769Y621795D02*
X359019Y621795D01*
X359019Y622507D02*
X356769Y622507D01*
X351769Y623213D02*
X351769Y613963D01*
X351769Y623213D02*
X354019Y623213D01*
X354019Y613963D01*
X351769Y613963D01*
X351769Y614675D02*
X354019Y614675D01*
X354019Y615387D02*
X351769Y615387D01*
X351769Y616099D02*
X354019Y616099D01*
X354019Y616811D02*
X351769Y616811D01*
X351769Y617523D02*
X354019Y617523D01*
X354019Y618235D02*
X351769Y618235D01*
X351769Y618947D02*
X354019Y618947D01*
X354019Y619659D02*
X351769Y619659D01*
X351769Y620371D02*
X354019Y620371D01*
X354019Y621083D02*
X351769Y621083D01*
X351769Y621795D02*
X354019Y621795D01*
X354019Y622507D02*
X351769Y622507D01*
X349019Y628213D02*
X339769Y628213D01*
X349019Y628213D02*
X349019Y625963D01*
X339769Y625963D01*
X339769Y628213D01*
X339769Y626675D02*
X349019Y626675D01*
X349019Y627387D02*
X339769Y627387D01*
X339769Y628099D02*
X349019Y628099D01*
X349019Y633213D02*
X339769Y633213D01*
X349019Y633213D02*
X349019Y630963D01*
X339769Y630963D01*
X339769Y633213D01*
X339769Y631675D02*
X349019Y631675D01*
X349019Y632387D02*
X339769Y632387D01*
X339769Y633099D02*
X349019Y633099D01*
X349019Y638213D02*
X339769Y638213D01*
X349019Y638213D02*
X349019Y635963D01*
X339769Y635963D01*
X339769Y638213D01*
X339769Y636675D02*
X349019Y636675D01*
X349019Y637387D02*
X339769Y637387D01*
X339769Y638099D02*
X349019Y638099D01*
X349019Y643213D02*
X339769Y643213D01*
X349019Y643213D02*
X349019Y640963D01*
X339769Y640963D01*
X339769Y643213D01*
X339769Y641675D02*
X349019Y641675D01*
X349019Y642387D02*
X339769Y642387D01*
X339769Y643099D02*
X349019Y643099D01*
X349019Y648213D02*
X339769Y648213D01*
X349019Y648213D02*
X349019Y645963D01*
X339769Y645963D01*
X339769Y648213D01*
X339769Y646675D02*
X349019Y646675D01*
X349019Y647387D02*
X339769Y647387D01*
X339769Y648099D02*
X349019Y648099D01*
X349019Y653213D02*
X339769Y653213D01*
X349019Y653213D02*
X349019Y650963D01*
X339769Y650963D01*
X339769Y653213D01*
X339769Y651675D02*
X349019Y651675D01*
X349019Y652387D02*
X339769Y652387D01*
X339769Y653099D02*
X349019Y653099D01*
X349019Y658213D02*
X339769Y658213D01*
X349019Y658213D02*
X349019Y655963D01*
X339769Y655963D01*
X339769Y658213D01*
X339769Y656675D02*
X349019Y656675D01*
X349019Y657387D02*
X339769Y657387D01*
X339769Y658099D02*
X349019Y658099D01*
X349019Y663213D02*
X339769Y663213D01*
X349019Y663213D02*
X349019Y660963D01*
X339769Y660963D01*
X339769Y663213D01*
X339769Y661675D02*
X349019Y661675D01*
X349019Y662387D02*
X339769Y662387D01*
X339769Y663099D02*
X349019Y663099D01*
X349019Y668213D02*
X339769Y668213D01*
X349019Y668213D02*
X349019Y665963D01*
X339769Y665963D01*
X339769Y668213D01*
X339769Y666675D02*
X349019Y666675D01*
X349019Y667387D02*
X339769Y667387D01*
X339769Y668099D02*
X349019Y668099D01*
X349019Y673213D02*
X339769Y673213D01*
X349019Y673213D02*
X349019Y670963D01*
X339769Y670963D01*
X339769Y673213D01*
X339769Y671675D02*
X349019Y671675D01*
X349019Y672387D02*
X339769Y672387D01*
X339769Y673099D02*
X349019Y673099D01*
X349019Y678213D02*
X339769Y678213D01*
X349019Y678213D02*
X349019Y675963D01*
X339769Y675963D01*
X339769Y678213D01*
X339769Y676675D02*
X349019Y676675D01*
X349019Y677387D02*
X339769Y677387D01*
X339769Y678099D02*
X349019Y678099D01*
X354019Y680963D02*
X354019Y690213D01*
X354019Y680963D02*
X351769Y680963D01*
X351769Y690213D01*
X354019Y690213D01*
X354019Y681675D02*
X351769Y681675D01*
X351769Y682387D02*
X354019Y682387D01*
X354019Y683099D02*
X351769Y683099D01*
X351769Y683811D02*
X354019Y683811D01*
X354019Y684523D02*
X351769Y684523D01*
X351769Y685235D02*
X354019Y685235D01*
X354019Y685947D02*
X351769Y685947D01*
X351769Y686659D02*
X354019Y686659D01*
X354019Y687371D02*
X351769Y687371D01*
X351769Y688083D02*
X354019Y688083D01*
X354019Y688795D02*
X351769Y688795D01*
X351769Y689507D02*
X354019Y689507D01*
X359019Y690213D02*
X359019Y680963D01*
X356769Y680963D01*
X356769Y690213D01*
X359019Y690213D01*
X359019Y681675D02*
X356769Y681675D01*
X356769Y682387D02*
X359019Y682387D01*
X359019Y683099D02*
X356769Y683099D01*
X356769Y683811D02*
X359019Y683811D01*
X359019Y684523D02*
X356769Y684523D01*
X356769Y685235D02*
X359019Y685235D01*
X359019Y685947D02*
X356769Y685947D01*
X356769Y686659D02*
X359019Y686659D01*
X359019Y687371D02*
X356769Y687371D01*
X356769Y688083D02*
X359019Y688083D01*
X359019Y688795D02*
X356769Y688795D01*
X356769Y689507D02*
X359019Y689507D01*
X364019Y690213D02*
X364019Y680963D01*
X361769Y680963D01*
X361769Y690213D01*
X364019Y690213D01*
X364019Y681675D02*
X361769Y681675D01*
X361769Y682387D02*
X364019Y682387D01*
X364019Y683099D02*
X361769Y683099D01*
X361769Y683811D02*
X364019Y683811D01*
X364019Y684523D02*
X361769Y684523D01*
X361769Y685235D02*
X364019Y685235D01*
X364019Y685947D02*
X361769Y685947D01*
X361769Y686659D02*
X364019Y686659D01*
X364019Y687371D02*
X361769Y687371D01*
X361769Y688083D02*
X364019Y688083D01*
X364019Y688795D02*
X361769Y688795D01*
X361769Y689507D02*
X364019Y689507D01*
X369019Y690213D02*
X369019Y680963D01*
X366769Y680963D01*
X366769Y690213D01*
X369019Y690213D01*
X369019Y681675D02*
X366769Y681675D01*
X366769Y682387D02*
X369019Y682387D01*
X369019Y683099D02*
X366769Y683099D01*
X366769Y683811D02*
X369019Y683811D01*
X369019Y684523D02*
X366769Y684523D01*
X366769Y685235D02*
X369019Y685235D01*
X369019Y685947D02*
X366769Y685947D01*
X366769Y686659D02*
X369019Y686659D01*
X369019Y687371D02*
X366769Y687371D01*
X366769Y688083D02*
X369019Y688083D01*
X369019Y688795D02*
X366769Y688795D01*
X366769Y689507D02*
X369019Y689507D01*
X374019Y690213D02*
X374019Y680963D01*
X371769Y680963D01*
X371769Y690213D01*
X374019Y690213D01*
X374019Y681675D02*
X371769Y681675D01*
X371769Y682387D02*
X374019Y682387D01*
X374019Y683099D02*
X371769Y683099D01*
X371769Y683811D02*
X374019Y683811D01*
X374019Y684523D02*
X371769Y684523D01*
X371769Y685235D02*
X374019Y685235D01*
X374019Y685947D02*
X371769Y685947D01*
X371769Y686659D02*
X374019Y686659D01*
X374019Y687371D02*
X371769Y687371D01*
X371769Y688083D02*
X374019Y688083D01*
X374019Y688795D02*
X371769Y688795D01*
X371769Y689507D02*
X374019Y689507D01*
X379019Y690213D02*
X379019Y680963D01*
X376769Y680963D01*
X376769Y690213D01*
X379019Y690213D01*
X379019Y681675D02*
X376769Y681675D01*
X376769Y682387D02*
X379019Y682387D01*
X379019Y683099D02*
X376769Y683099D01*
X376769Y683811D02*
X379019Y683811D01*
X379019Y684523D02*
X376769Y684523D01*
X376769Y685235D02*
X379019Y685235D01*
X379019Y685947D02*
X376769Y685947D01*
X376769Y686659D02*
X379019Y686659D01*
X379019Y687371D02*
X376769Y687371D01*
X376769Y688083D02*
X379019Y688083D01*
X379019Y688795D02*
X376769Y688795D01*
X376769Y689507D02*
X379019Y689507D01*
X384019Y690213D02*
X384019Y680963D01*
X381769Y680963D01*
X381769Y690213D01*
X384019Y690213D01*
X384019Y681675D02*
X381769Y681675D01*
X381769Y682387D02*
X384019Y682387D01*
X384019Y683099D02*
X381769Y683099D01*
X381769Y683811D02*
X384019Y683811D01*
X384019Y684523D02*
X381769Y684523D01*
X381769Y685235D02*
X384019Y685235D01*
X384019Y685947D02*
X381769Y685947D01*
X381769Y686659D02*
X384019Y686659D01*
X384019Y687371D02*
X381769Y687371D01*
X381769Y688083D02*
X384019Y688083D01*
X384019Y688795D02*
X381769Y688795D01*
X381769Y689507D02*
X384019Y689507D01*
X389019Y690213D02*
X389019Y680963D01*
X386769Y680963D01*
X386769Y690213D01*
X389019Y690213D01*
X389019Y681675D02*
X386769Y681675D01*
X386769Y682387D02*
X389019Y682387D01*
X389019Y683099D02*
X386769Y683099D01*
X386769Y683811D02*
X389019Y683811D01*
X389019Y684523D02*
X386769Y684523D01*
X386769Y685235D02*
X389019Y685235D01*
X389019Y685947D02*
X386769Y685947D01*
X386769Y686659D02*
X389019Y686659D01*
X389019Y687371D02*
X386769Y687371D01*
X386769Y688083D02*
X389019Y688083D01*
X389019Y688795D02*
X386769Y688795D01*
X386769Y689507D02*
X389019Y689507D01*
X394019Y690213D02*
X394019Y680963D01*
X391769Y680963D01*
X391769Y690213D01*
X394019Y690213D01*
X394019Y681675D02*
X391769Y681675D01*
X391769Y682387D02*
X394019Y682387D01*
X394019Y683099D02*
X391769Y683099D01*
X391769Y683811D02*
X394019Y683811D01*
X394019Y684523D02*
X391769Y684523D01*
X391769Y685235D02*
X394019Y685235D01*
X394019Y685947D02*
X391769Y685947D01*
X391769Y686659D02*
X394019Y686659D01*
X394019Y687371D02*
X391769Y687371D01*
X391769Y688083D02*
X394019Y688083D01*
X394019Y688795D02*
X391769Y688795D01*
X391769Y689507D02*
X394019Y689507D01*
X399019Y690213D02*
X399019Y680963D01*
X396769Y680963D01*
X396769Y690213D01*
X399019Y690213D01*
X399019Y681675D02*
X396769Y681675D01*
X396769Y682387D02*
X399019Y682387D01*
X399019Y683099D02*
X396769Y683099D01*
X396769Y683811D02*
X399019Y683811D01*
X399019Y684523D02*
X396769Y684523D01*
X396769Y685235D02*
X399019Y685235D01*
X399019Y685947D02*
X396769Y685947D01*
X396769Y686659D02*
X399019Y686659D01*
X399019Y687371D02*
X396769Y687371D01*
X396769Y688083D02*
X399019Y688083D01*
X399019Y688795D02*
X396769Y688795D01*
X396769Y689507D02*
X399019Y689507D01*
X404019Y690213D02*
X404019Y680963D01*
X401769Y680963D01*
X401769Y690213D01*
X404019Y690213D01*
X404019Y681675D02*
X401769Y681675D01*
X401769Y682387D02*
X404019Y682387D01*
X404019Y683099D02*
X401769Y683099D01*
X401769Y683811D02*
X404019Y683811D01*
X404019Y684523D02*
X401769Y684523D01*
X401769Y685235D02*
X404019Y685235D01*
X404019Y685947D02*
X401769Y685947D01*
X401769Y686659D02*
X404019Y686659D01*
X404019Y687371D02*
X401769Y687371D01*
X401769Y688083D02*
X404019Y688083D01*
X404019Y688795D02*
X401769Y688795D01*
X401769Y689507D02*
X404019Y689507D01*
D11*
X457590Y376769D03*
X457590Y394269D03*
D12*
X420828Y377845D03*
X438328Y377845D03*
X420784Y392990D03*
X438284Y392990D03*
X421251Y408685D03*
X438751Y408685D03*
X421007Y424580D03*
X438507Y424580D03*
D11*
X415544Y497850D03*
X415544Y480350D03*
D12*
X484327Y665214D03*
X466827Y665214D03*
X474822Y651472D03*
X457322Y651472D03*
D15*
X374040Y532509D03*
X374040Y514009D03*
X397040Y514009D03*
X397040Y532509D03*
D11*
X378901Y496787D03*
X378901Y479287D03*
X392610Y496856D03*
X392610Y479356D03*
D16*
X475263Y476938D03*
X463263Y476938D03*
X463263Y508938D03*
X475263Y508938D03*
D11*
X448271Y480080D03*
X448271Y497580D03*
X350104Y480870D03*
X350104Y498370D03*
D17*
X581968Y828709D03*
D18*
X597507Y828709D03*
D19*
X552142Y829629D03*
X534142Y829629D03*
D20*
X496972Y434495D03*
D21*
X496972Y451495D03*
X515972Y432495D03*
X515972Y451495D03*
D10*
X142875Y555150D03*
X142875Y587850D03*
D22*
X315875Y824688D03*
X350875Y824688D03*
X315875Y842188D03*
X350875Y842188D03*
D23*
X729438Y850938D03*
X729438Y815938D03*
X746938Y850938D03*
X746938Y815938D03*
X1110438Y850938D03*
X1110438Y815938D03*
X1127938Y850938D03*
X1127938Y815938D03*
X1491438Y850938D03*
X1491438Y815938D03*
X1508938Y850938D03*
X1508938Y815938D03*
X1872438Y850938D03*
X1872438Y815938D03*
X1889938Y850938D03*
X1889938Y815938D03*
X2253438Y850938D03*
X2253438Y815938D03*
X2270938Y850938D03*
X2270938Y815938D03*
X2682063Y850938D03*
X2682063Y815938D03*
X2699563Y850938D03*
X2699563Y815938D03*
X2699563Y268250D03*
X2699563Y303250D03*
X2682063Y268250D03*
X2682063Y303250D03*
X2270938Y268250D03*
X2270938Y303250D03*
X2253438Y268250D03*
X2253438Y303250D03*
X1871696Y269145D03*
X1871696Y304145D03*
X1854196Y269145D03*
X1854196Y304145D03*
X1490696Y269145D03*
X1490696Y304145D03*
X1473196Y269145D03*
X1473196Y304145D03*
X1109696Y269145D03*
X1109696Y304145D03*
X1092196Y269145D03*
X1092196Y304145D03*
X746938Y268250D03*
X746938Y303250D03*
X729438Y268250D03*
X729438Y303250D03*
X347696Y269145D03*
X347696Y304145D03*
X330196Y269145D03*
X330196Y304145D03*
D24*
X252583Y974410D03*
X257583Y974410D03*
X262583Y974410D03*
X267583Y974410D03*
X272583Y974410D03*
X277583Y974410D03*
X282583Y974410D03*
X287583Y974410D03*
X292583Y974410D03*
X297583Y974410D03*
X302583Y974410D03*
X307583Y974410D03*
D17*
X340325Y1002957D03*
D18*
X355864Y1002957D03*
D11*
X269551Y944402D03*
X269551Y926902D03*
X286730Y927049D03*
X286730Y944549D03*
D25*
X510162Y857853D03*
X490162Y857853D03*
X470162Y857853D03*
X450162Y857853D03*
D26*
X534162Y880353D03*
X426162Y880353D03*
D11*
X293451Y564361D03*
X293451Y546861D03*
D12*
X293876Y643920D03*
X276376Y643920D03*
D27*
X192828Y712745D03*
X170828Y722245D03*
X170828Y703245D03*
M02*
