G04 EAGLE Gerber RS-274X export*
G75*
%MOMM*%
%FSLAX34Y34*%
%LPD*%
%INSoldermask Bottom*%
%IPPOS*%
%AMOC8*
5,1,8,0,0,1.08239X$1,22.5*%
G01*
%ADD10C,4.203200*%
%ADD11C,1.903200*%
%ADD12C,2.743200*%
%ADD13C,2.203200*%
%ADD14R,2.203200X2.203200*%
%ADD15C,3.253200*%
%ADD16R,1.423200X1.113200*%
%ADD17R,1.283200X1.253200*%
%ADD18R,1.253200X1.283200*%
%ADD19C,0.686816*%
%ADD20C,0.276759*%
%ADD21R,1.503200X1.253200*%
%ADD22R,0.753200X1.153200*%
%ADD23R,1.103200X1.173400*%
%ADD24R,1.135800X1.173400*%
%ADD25R,1.203200X1.203200*%
%ADD26R,0.803200X1.203200*%
%ADD27R,0.803200X0.803200*%
%ADD28R,1.203200X1.053200*%
%ADD29R,1.053200X1.203200*%
%ADD30R,0.503200X1.103200*%
%ADD31C,0.908000*%
%ADD32C,0.853200*%
%ADD33C,1.053200*%
%ADD34R,1.203200X5.703200*%
%ADD35R,1.803200X3.203200*%
%ADD36R,1.603200X1.203200*%
%ADD37C,2.755900*%
%ADD38C,0.858000*%


D10*
X190500Y952500D03*
D11*
X139700Y952500D03*
X241300Y952500D03*
D12*
X152400Y977900D03*
X215900Y1003300D03*
D13*
X177800Y901700D03*
D14*
X203200Y901700D03*
D10*
X381000Y952500D03*
D11*
X330200Y952500D03*
X431800Y952500D03*
D12*
X342900Y977900D03*
X406400Y1003300D03*
D13*
X368300Y901700D03*
D14*
X393700Y901700D03*
D10*
X571500Y952500D03*
D11*
X520700Y952500D03*
X622300Y952500D03*
D12*
X533400Y977900D03*
X596900Y1003300D03*
D13*
X558800Y901700D03*
D14*
X584200Y901700D03*
D10*
X762000Y952500D03*
D11*
X711200Y952500D03*
X812800Y952500D03*
D12*
X723900Y977900D03*
X787400Y1003300D03*
D13*
X749300Y901700D03*
D14*
X774700Y901700D03*
D10*
X952500Y952500D03*
D11*
X901700Y952500D03*
X1003300Y952500D03*
D12*
X914400Y977900D03*
X977900Y1003300D03*
D13*
X939800Y901700D03*
D14*
X965200Y901700D03*
D10*
X1143000Y952500D03*
D11*
X1092200Y952500D03*
X1193800Y952500D03*
D12*
X1104900Y977900D03*
X1168400Y1003300D03*
D13*
X1130300Y901700D03*
D14*
X1155700Y901700D03*
D10*
X1333500Y952500D03*
D11*
X1282700Y952500D03*
X1384300Y952500D03*
D12*
X1295400Y977900D03*
X1358900Y1003300D03*
D13*
X1320800Y901700D03*
D14*
X1346200Y901700D03*
D10*
X1524000Y952500D03*
D11*
X1473200Y952500D03*
X1574800Y952500D03*
D12*
X1485900Y977900D03*
X1549400Y1003300D03*
D13*
X1511300Y901700D03*
D14*
X1536700Y901700D03*
D10*
X1714500Y952500D03*
D11*
X1663700Y952500D03*
X1765300Y952500D03*
D12*
X1676400Y977900D03*
X1739900Y1003300D03*
D13*
X1701800Y901700D03*
D14*
X1727200Y901700D03*
D10*
X1905000Y952500D03*
D11*
X1854200Y952500D03*
X1955800Y952500D03*
D12*
X1866900Y977900D03*
X1930400Y1003300D03*
D13*
X1892300Y901700D03*
D14*
X1917700Y901700D03*
D10*
X2095500Y952500D03*
D11*
X2044700Y952500D03*
X2146300Y952500D03*
D12*
X2057400Y977900D03*
X2120900Y1003300D03*
D13*
X2082800Y901700D03*
D14*
X2108200Y901700D03*
D10*
X2286000Y952500D03*
D11*
X2235200Y952500D03*
X2336800Y952500D03*
D12*
X2247900Y977900D03*
X2311400Y1003300D03*
D13*
X2273300Y901700D03*
D14*
X2298700Y901700D03*
D10*
X2476500Y952500D03*
D11*
X2425700Y952500D03*
X2527300Y952500D03*
D12*
X2438400Y977900D03*
X2501900Y1003300D03*
D13*
X2463800Y901700D03*
D14*
X2489200Y901700D03*
D10*
X238125Y762000D03*
D11*
X187325Y762000D03*
X288925Y762000D03*
D12*
X200025Y787400D03*
X263525Y812800D03*
D13*
X225425Y711200D03*
D14*
X250825Y711200D03*
D10*
X476250Y762000D03*
D11*
X425450Y762000D03*
X527050Y762000D03*
D12*
X438150Y787400D03*
X501650Y812800D03*
D13*
X463550Y711200D03*
D14*
X488950Y711200D03*
D10*
X666750Y762000D03*
D11*
X615950Y762000D03*
X717550Y762000D03*
D12*
X628650Y787400D03*
X692150Y812800D03*
D13*
X654050Y711200D03*
D14*
X679450Y711200D03*
D10*
X857250Y762000D03*
D11*
X806450Y762000D03*
X908050Y762000D03*
D12*
X819150Y787400D03*
X882650Y812800D03*
D13*
X844550Y711200D03*
D14*
X869950Y711200D03*
D10*
X1047750Y762000D03*
D11*
X996950Y762000D03*
X1098550Y762000D03*
D12*
X1009650Y787400D03*
X1073150Y812800D03*
D13*
X1035050Y711200D03*
D14*
X1060450Y711200D03*
D10*
X1238250Y762000D03*
D11*
X1187450Y762000D03*
X1289050Y762000D03*
D12*
X1200150Y787400D03*
X1263650Y812800D03*
D13*
X1225550Y711200D03*
D14*
X1250950Y711200D03*
D10*
X1428750Y762000D03*
D11*
X1377950Y762000D03*
X1479550Y762000D03*
D12*
X1390650Y787400D03*
X1454150Y812800D03*
D13*
X1416050Y711200D03*
D14*
X1441450Y711200D03*
D10*
X1619250Y762000D03*
D11*
X1568450Y762000D03*
X1670050Y762000D03*
D12*
X1581150Y787400D03*
X1644650Y812800D03*
D13*
X1606550Y711200D03*
D14*
X1631950Y711200D03*
D10*
X1809750Y762000D03*
D11*
X1758950Y762000D03*
X1860550Y762000D03*
D12*
X1771650Y787400D03*
X1835150Y812800D03*
D13*
X1797050Y711200D03*
D14*
X1822450Y711200D03*
D10*
X2000250Y762000D03*
D11*
X1949450Y762000D03*
X2051050Y762000D03*
D12*
X1962150Y787400D03*
X2025650Y812800D03*
D13*
X1987550Y711200D03*
D14*
X2012950Y711200D03*
D10*
X2190750Y762000D03*
D11*
X2139950Y762000D03*
X2241550Y762000D03*
D12*
X2152650Y787400D03*
X2216150Y812800D03*
D13*
X2178050Y711200D03*
D14*
X2203450Y711200D03*
D10*
X2381250Y762000D03*
D11*
X2330450Y762000D03*
X2432050Y762000D03*
D12*
X2343150Y787400D03*
X2406650Y812800D03*
D13*
X2368550Y711200D03*
D14*
X2393950Y711200D03*
D10*
X2571750Y762000D03*
D11*
X2520950Y762000D03*
X2622550Y762000D03*
D12*
X2533650Y787400D03*
X2597150Y812800D03*
D13*
X2559050Y711200D03*
D14*
X2584450Y711200D03*
D10*
X2809875Y762000D03*
D11*
X2759075Y762000D03*
X2860675Y762000D03*
D12*
X2771775Y787400D03*
X2835275Y812800D03*
D13*
X2797175Y711200D03*
D14*
X2822575Y711200D03*
D10*
X261938Y571500D03*
D11*
X211138Y571500D03*
X312738Y571500D03*
D12*
X223838Y596900D03*
X287338Y622300D03*
D13*
X249238Y520700D03*
D14*
X274638Y520700D03*
D10*
X523875Y571500D03*
D11*
X473075Y571500D03*
X574675Y571500D03*
D12*
X485775Y596900D03*
X549275Y622300D03*
D13*
X511175Y520700D03*
D14*
X536575Y520700D03*
D10*
X714375Y571500D03*
D11*
X663575Y571500D03*
X765175Y571500D03*
D12*
X676275Y596900D03*
X739775Y622300D03*
D13*
X701675Y520700D03*
D14*
X727075Y520700D03*
D10*
X904875Y571500D03*
D11*
X854075Y571500D03*
X955675Y571500D03*
D12*
X866775Y596900D03*
X930275Y622300D03*
D13*
X892175Y520700D03*
D14*
X917575Y520700D03*
D10*
X1095375Y571500D03*
D11*
X1044575Y571500D03*
X1146175Y571500D03*
D12*
X1057275Y596900D03*
X1120775Y622300D03*
D13*
X1082675Y520700D03*
D14*
X1108075Y520700D03*
D10*
X1285875Y571500D03*
D11*
X1235075Y571500D03*
X1336675Y571500D03*
D12*
X1247775Y596900D03*
X1311275Y622300D03*
D13*
X1273175Y520700D03*
D14*
X1298575Y520700D03*
D10*
X1476375Y571500D03*
D11*
X1425575Y571500D03*
X1527175Y571500D03*
D12*
X1438275Y596900D03*
X1501775Y622300D03*
D13*
X1463675Y520700D03*
D14*
X1489075Y520700D03*
D10*
X1666875Y571500D03*
D11*
X1616075Y571500D03*
X1717675Y571500D03*
D12*
X1628775Y596900D03*
X1692275Y622300D03*
D13*
X1654175Y520700D03*
D14*
X1679575Y520700D03*
D10*
X1857375Y571500D03*
D11*
X1806575Y571500D03*
X1908175Y571500D03*
D12*
X1819275Y596900D03*
X1882775Y622300D03*
D13*
X1844675Y520700D03*
D14*
X1870075Y520700D03*
D10*
X2047875Y571500D03*
D11*
X1997075Y571500D03*
X2098675Y571500D03*
D12*
X2009775Y596900D03*
X2073275Y622300D03*
D13*
X2035175Y520700D03*
D14*
X2060575Y520700D03*
D10*
X2238375Y571500D03*
D11*
X2187575Y571500D03*
X2289175Y571500D03*
D12*
X2200275Y596900D03*
X2263775Y622300D03*
D13*
X2225675Y520700D03*
D14*
X2251075Y520700D03*
D10*
X2428875Y571500D03*
D11*
X2378075Y571500D03*
X2479675Y571500D03*
D12*
X2390775Y596900D03*
X2454275Y622300D03*
D13*
X2416175Y520700D03*
D14*
X2441575Y520700D03*
D10*
X619125Y381000D03*
D11*
X568325Y381000D03*
X669925Y381000D03*
D12*
X581025Y406400D03*
X644525Y431800D03*
D13*
X606425Y330200D03*
D14*
X631825Y330200D03*
D10*
X809625Y381000D03*
D11*
X758825Y381000D03*
X860425Y381000D03*
D12*
X771525Y406400D03*
X835025Y431800D03*
D13*
X796925Y330200D03*
D14*
X822325Y330200D03*
D10*
X1000125Y381000D03*
D11*
X949325Y381000D03*
X1050925Y381000D03*
D12*
X962025Y406400D03*
X1025525Y431800D03*
D13*
X987425Y330200D03*
D14*
X1012825Y330200D03*
D10*
X1190625Y381000D03*
D11*
X1139825Y381000D03*
X1241425Y381000D03*
D12*
X1152525Y406400D03*
X1216025Y431800D03*
D13*
X1177925Y330200D03*
D14*
X1203325Y330200D03*
D10*
X1381125Y381000D03*
D11*
X1330325Y381000D03*
X1431925Y381000D03*
D12*
X1343025Y406400D03*
X1406525Y431800D03*
D13*
X1368425Y330200D03*
D14*
X1393825Y330200D03*
D10*
X1571625Y381000D03*
D11*
X1520825Y381000D03*
X1622425Y381000D03*
D12*
X1533525Y406400D03*
X1597025Y431800D03*
D13*
X1558925Y330200D03*
D14*
X1584325Y330200D03*
D10*
X1762125Y381000D03*
D11*
X1711325Y381000D03*
X1812925Y381000D03*
D12*
X1724025Y406400D03*
X1787525Y431800D03*
D13*
X1749425Y330200D03*
D14*
X1774825Y330200D03*
D10*
X1952625Y381000D03*
D11*
X1901825Y381000D03*
X2003425Y381000D03*
D12*
X1914525Y406400D03*
X1978025Y431800D03*
D13*
X1939925Y330200D03*
D14*
X1965325Y330200D03*
D10*
X2143125Y381000D03*
D11*
X2092325Y381000D03*
X2193925Y381000D03*
D12*
X2105025Y406400D03*
X2168525Y431800D03*
D13*
X2130425Y330200D03*
D14*
X2155825Y330200D03*
D10*
X2333625Y381000D03*
D11*
X2282825Y381000D03*
X2384425Y381000D03*
D12*
X2295525Y406400D03*
X2359025Y431800D03*
D13*
X2320925Y330200D03*
D14*
X2346325Y330200D03*
D10*
X2595563Y381000D03*
D11*
X2544763Y381000D03*
X2646363Y381000D03*
D12*
X2557463Y406400D03*
X2620963Y431800D03*
D13*
X2582863Y330200D03*
D14*
X2608263Y330200D03*
D10*
X214313Y190500D03*
D11*
X163513Y190500D03*
X265113Y190500D03*
D12*
X176213Y215900D03*
X239713Y241300D03*
D13*
X201613Y139700D03*
D14*
X227013Y139700D03*
D10*
X452438Y190500D03*
D11*
X401638Y190500D03*
X503238Y190500D03*
D12*
X414338Y215900D03*
X477838Y241300D03*
D13*
X439738Y139700D03*
D14*
X465138Y139700D03*
D10*
X714375Y190500D03*
D11*
X663575Y190500D03*
X765175Y190500D03*
D12*
X676275Y215900D03*
X739775Y241300D03*
D13*
X701675Y139700D03*
D14*
X727075Y139700D03*
D10*
X2119313Y190500D03*
D11*
X2068513Y190500D03*
X2170113Y190500D03*
D12*
X2081213Y215900D03*
X2144713Y241300D03*
D13*
X2106613Y139700D03*
D14*
X2132013Y139700D03*
D10*
X2333625Y190500D03*
D11*
X2282825Y190500D03*
X2384425Y190500D03*
D12*
X2295525Y215900D03*
X2359025Y241300D03*
D13*
X2320925Y139700D03*
D14*
X2346325Y139700D03*
D10*
X2595563Y190500D03*
D11*
X2544763Y190500D03*
X2646363Y190500D03*
D12*
X2557463Y215900D03*
X2620963Y241300D03*
D13*
X2582863Y139700D03*
D14*
X2608263Y139700D03*
D10*
X2833688Y190500D03*
D11*
X2782888Y190500D03*
X2884488Y190500D03*
D12*
X2795588Y215900D03*
X2859088Y241300D03*
D13*
X2820988Y139700D03*
D14*
X2846388Y139700D03*
D10*
X214313Y571500D03*
D11*
X163513Y571500D03*
X265113Y571500D03*
D12*
X176213Y596900D03*
X239713Y622300D03*
D13*
X201613Y520700D03*
D14*
X227013Y520700D03*
D10*
X2619375Y571500D03*
D11*
X2568575Y571500D03*
X2670175Y571500D03*
D12*
X2581275Y596900D03*
X2644775Y622300D03*
D13*
X2606675Y520700D03*
D14*
X2632075Y520700D03*
D10*
X2857500Y952500D03*
D11*
X2806700Y952500D03*
X2908300Y952500D03*
D12*
X2819400Y977900D03*
X2882900Y1003300D03*
D13*
X2844800Y901700D03*
D14*
X2870200Y901700D03*
D10*
X238125Y190500D03*
D11*
X187325Y190500D03*
X288925Y190500D03*
D12*
X200025Y215900D03*
X263525Y241300D03*
D13*
X225425Y139700D03*
D14*
X250825Y139700D03*
D10*
X476250Y190500D03*
D11*
X425450Y190500D03*
X527050Y190500D03*
D12*
X438150Y215900D03*
X501650Y241300D03*
D13*
X463550Y139700D03*
D14*
X488950Y139700D03*
D10*
X690563Y190500D03*
D11*
X639763Y190500D03*
X741363Y190500D03*
D12*
X652463Y215900D03*
X715963Y241300D03*
D13*
X677863Y139700D03*
D14*
X703263Y139700D03*
D10*
X2357438Y190500D03*
D11*
X2306638Y190500D03*
X2408238Y190500D03*
D12*
X2319338Y215900D03*
X2382838Y241300D03*
D13*
X2344738Y139700D03*
D14*
X2370138Y139700D03*
D10*
X2571750Y190500D03*
D11*
X2520950Y190500D03*
X2622550Y190500D03*
D12*
X2533650Y215900D03*
X2597150Y241300D03*
D13*
X2559050Y139700D03*
D14*
X2584450Y139700D03*
D10*
X2809875Y190500D03*
D11*
X2759075Y190500D03*
X2860675Y190500D03*
D12*
X2771775Y215900D03*
X2835275Y241300D03*
D13*
X2797175Y139700D03*
D14*
X2822575Y139700D03*
D10*
X2857500Y381000D03*
D11*
X2806700Y381000D03*
X2908300Y381000D03*
D12*
X2819400Y406400D03*
X2882900Y431800D03*
D13*
X2844800Y330200D03*
D14*
X2870200Y330200D03*
D10*
X309563Y381000D03*
D11*
X258763Y381000D03*
X360363Y381000D03*
D15*
X190563Y451000D03*
X428563Y451000D03*
D10*
X190563Y298600D03*
X428563Y298600D03*
D12*
X271463Y406400D03*
X334963Y431800D03*
D13*
X296863Y330200D03*
D14*
X322263Y330200D03*
D10*
X2690813Y381000D03*
D11*
X2640013Y381000D03*
X2741613Y381000D03*
D15*
X2571813Y451000D03*
X2809813Y451000D03*
D10*
X2571813Y298600D03*
X2809813Y298600D03*
D12*
X2652713Y406400D03*
X2716213Y431800D03*
D13*
X2678113Y330200D03*
D14*
X2703513Y330200D03*
D10*
X2762250Y952500D03*
D11*
X2711450Y952500D03*
X2813050Y952500D03*
D15*
X2643250Y1022500D03*
X2881250Y1022500D03*
D10*
X2643250Y870100D03*
X2881250Y870100D03*
D12*
X2724150Y977900D03*
X2787650Y1003300D03*
D13*
X2749550Y901700D03*
D14*
X2774950Y901700D03*
D10*
X2833688Y666750D03*
D11*
X2782888Y666750D03*
X2884488Y666750D03*
D15*
X2763688Y547750D03*
X2763688Y785750D03*
D10*
X2916088Y547750D03*
X2916088Y785750D03*
D12*
X2795588Y692150D03*
X2859088Y717550D03*
D13*
X2820988Y615950D03*
D14*
X2846388Y615950D03*
D10*
X1119188Y190500D03*
D11*
X1068388Y190500D03*
X1169988Y190500D03*
D15*
X1000188Y120500D03*
X1238188Y120500D03*
D10*
X1000188Y272900D03*
X1238188Y272900D03*
D12*
X1081088Y215900D03*
X1144588Y241300D03*
D13*
X1106488Y139700D03*
D14*
X1131888Y139700D03*
D10*
X1928813Y190500D03*
D11*
X1878013Y190500D03*
X1979613Y190500D03*
D15*
X1809813Y120500D03*
X2047813Y120500D03*
D10*
X1809813Y272900D03*
X2047813Y272900D03*
D12*
X1890713Y215900D03*
X1954213Y241300D03*
D13*
X1916113Y139700D03*
D14*
X1941513Y139700D03*
D10*
X1524000Y190500D03*
D11*
X1473200Y190500D03*
X1574800Y190500D03*
D15*
X952500Y120500D03*
X2095500Y120500D03*
D10*
X952500Y272900D03*
X2095500Y272900D03*
D12*
X1485900Y215900D03*
X1549400Y241300D03*
D13*
X1511300Y139700D03*
D14*
X1536700Y139700D03*
D10*
X2667000Y952500D03*
D11*
X2616200Y952500D03*
X2717800Y952500D03*
D12*
X2628900Y977900D03*
X2692400Y1003300D03*
D13*
X2654300Y901700D03*
D14*
X2679700Y901700D03*
D10*
X2738438Y571500D03*
D11*
X2687638Y571500D03*
X2789238Y571500D03*
D15*
X2619438Y641500D03*
X2857438Y641500D03*
D10*
X2619438Y489100D03*
X2857438Y489100D03*
D12*
X2700338Y596900D03*
X2763838Y622300D03*
D13*
X2725738Y520700D03*
D14*
X2751138Y520700D03*
D10*
X1404938Y190500D03*
D11*
X1354138Y190500D03*
X1455738Y190500D03*
D15*
X904938Y120500D03*
X1904938Y120500D03*
D10*
X904938Y272900D03*
X1904938Y272900D03*
D12*
X1366838Y215900D03*
X1430338Y241300D03*
D13*
X1392238Y139700D03*
D14*
X1417638Y139700D03*
D16*
X119063Y936150D03*
X119063Y968850D03*
X346147Y905570D03*
X346147Y938270D03*
X500063Y936150D03*
X500063Y968850D03*
X690563Y936150D03*
X690563Y968850D03*
X881063Y936150D03*
X881063Y968850D03*
X1071563Y936150D03*
X1071563Y968850D03*
X1262063Y936150D03*
X1262063Y968850D03*
X1452563Y936150D03*
X1452563Y968850D03*
X1643063Y936150D03*
X1643063Y968850D03*
X1833563Y936150D03*
X1833563Y968850D03*
X2024063Y936150D03*
X2024063Y968850D03*
X2214563Y936150D03*
X2214563Y968850D03*
X2405063Y936150D03*
X2405063Y968850D03*
X2595563Y936150D03*
X2595563Y968850D03*
X166688Y745650D03*
X166688Y778350D03*
X404813Y745650D03*
X404813Y778350D03*
X595313Y745650D03*
X595313Y778350D03*
X785813Y745650D03*
X785813Y778350D03*
X976313Y745650D03*
X976313Y778350D03*
X1166813Y745650D03*
X1166813Y778350D03*
X1357313Y745650D03*
X1357313Y778350D03*
X1547813Y745650D03*
X1547813Y778350D03*
X1738313Y745650D03*
X1738313Y778350D03*
X1928813Y745650D03*
X1928813Y778350D03*
X2119313Y745650D03*
X2119313Y778350D03*
X2309813Y745650D03*
X2309813Y778350D03*
X2500313Y745650D03*
X2500313Y778350D03*
X2738438Y721838D03*
X2738438Y754538D03*
X2698665Y726439D03*
X2698665Y693739D03*
X452438Y555150D03*
X452438Y587850D03*
X642938Y555150D03*
X642938Y587850D03*
X833438Y555150D03*
X833438Y587850D03*
X1023938Y555150D03*
X1023938Y587850D03*
X1214438Y555150D03*
X1214438Y587850D03*
X1411061Y555283D03*
X1411061Y587983D03*
X1595438Y555150D03*
X1595438Y587850D03*
X1785938Y555150D03*
X1785938Y587850D03*
X1976438Y555150D03*
X1976438Y587850D03*
X2166938Y555150D03*
X2166938Y587850D03*
X2357438Y555150D03*
X2357438Y587850D03*
X2547938Y555150D03*
X2547938Y587850D03*
X2881313Y555150D03*
X2881313Y587850D03*
X2786063Y364650D03*
X2786063Y397350D03*
X2524125Y364650D03*
X2524125Y397350D03*
X2262188Y364650D03*
X2262188Y397350D03*
X2071688Y364650D03*
X2071688Y397350D03*
X1881188Y364650D03*
X1881188Y397350D03*
X1690688Y364650D03*
X1690688Y397350D03*
X1500188Y364650D03*
X1500188Y397350D03*
X1309688Y364650D03*
X1309688Y397350D03*
X1119188Y364650D03*
X1119188Y397350D03*
X928688Y364650D03*
X928688Y397350D03*
X738188Y364650D03*
X738188Y397350D03*
X547688Y364650D03*
X547688Y397350D03*
X238125Y364650D03*
X238125Y397350D03*
X142875Y174150D03*
X142875Y206850D03*
X381000Y174150D03*
X381000Y206850D03*
X619125Y174150D03*
X619125Y206850D03*
X1047750Y174150D03*
X1047750Y206850D03*
X1857375Y174150D03*
X1857375Y206850D03*
X2262188Y174150D03*
X2262188Y206850D03*
X2500313Y174150D03*
X2500313Y206850D03*
X2738438Y174150D03*
X2738438Y206850D03*
X1333500Y174150D03*
X1333500Y206850D03*
D17*
X238125Y913625D03*
X238125Y896125D03*
X412280Y920757D03*
X412280Y903257D03*
X619125Y913625D03*
X619125Y896125D03*
X809625Y913625D03*
X809625Y896125D03*
X1000125Y913625D03*
X1000125Y896125D03*
X1190625Y913625D03*
X1190625Y896125D03*
X1381125Y913625D03*
X1381125Y896125D03*
X1571625Y913625D03*
X1571625Y896125D03*
X1762125Y913625D03*
X1762125Y896125D03*
X1952625Y913625D03*
X1952625Y896125D03*
X2143125Y913625D03*
X2143125Y896125D03*
X2333625Y913625D03*
X2333625Y896125D03*
X2524125Y913625D03*
X2524125Y896125D03*
X2809875Y913625D03*
X2809875Y896125D03*
X285750Y723125D03*
X285750Y705625D03*
X523875Y723125D03*
X523875Y705625D03*
X714375Y723125D03*
X714375Y705625D03*
X904875Y723125D03*
X904875Y705625D03*
X1095375Y723125D03*
X1095375Y705625D03*
X1285875Y723125D03*
X1285875Y705625D03*
X1476375Y723125D03*
X1476375Y705625D03*
X1666875Y723125D03*
X1666875Y705625D03*
X1857375Y723125D03*
X1857375Y705625D03*
X2047875Y723125D03*
X2047875Y705625D03*
X2238375Y723125D03*
X2238375Y705625D03*
X2428875Y723125D03*
X2428875Y705625D03*
X2619375Y723125D03*
X2619375Y705625D03*
X2881313Y723125D03*
X2881313Y705625D03*
X571500Y532625D03*
X571500Y515125D03*
X762000Y532625D03*
X762000Y515125D03*
X952500Y532625D03*
X952500Y515125D03*
X1143000Y532625D03*
X1143000Y515125D03*
X1333500Y532625D03*
X1333500Y515125D03*
X1524000Y532625D03*
X1524000Y515125D03*
X1714500Y532625D03*
X1714500Y515125D03*
X1905000Y532625D03*
X1905000Y515125D03*
X2095500Y532625D03*
X2095500Y515125D03*
X2286000Y532625D03*
X2286000Y515125D03*
X2476500Y532625D03*
X2476500Y515125D03*
X2809875Y532625D03*
X2809875Y515125D03*
X2667000Y532625D03*
X2667000Y515125D03*
X357188Y342125D03*
X357188Y324625D03*
X666750Y342125D03*
X666750Y324625D03*
X857250Y342125D03*
X857250Y324625D03*
X1047750Y342125D03*
X1047750Y324625D03*
X1238250Y342125D03*
X1238250Y324625D03*
X1428750Y342125D03*
X1428750Y324625D03*
X1619250Y342125D03*
X1619250Y324625D03*
X1809750Y342125D03*
X1809750Y324625D03*
X2000250Y342125D03*
X2000250Y324625D03*
X2190750Y342125D03*
X2190750Y324625D03*
X2381250Y342125D03*
X2381250Y324625D03*
X2643188Y342125D03*
X2643188Y324625D03*
X2738438Y342125D03*
X2738438Y324625D03*
X2905125Y342125D03*
X2905125Y324625D03*
X404813Y151625D03*
X404813Y134125D03*
X523875Y151625D03*
X523875Y134125D03*
X762000Y151625D03*
X762000Y134125D03*
X1166813Y151625D03*
X1166813Y134125D03*
X1452563Y151625D03*
X1452563Y134125D03*
X2000250Y175438D03*
X2000250Y157938D03*
X2405063Y151625D03*
X2405063Y134125D03*
X2643188Y151625D03*
X2643188Y134125D03*
X2881313Y151625D03*
X2881313Y134125D03*
X2881860Y627464D03*
X2881860Y609964D03*
D18*
X2814467Y882170D03*
X2831967Y882170D03*
D19*
X400876Y675070D02*
X354912Y675070D01*
X400876Y675070D02*
X400876Y629106D01*
X354912Y629106D01*
X354912Y675070D01*
X354912Y635631D02*
X400876Y635631D01*
X400876Y642156D02*
X354912Y642156D01*
X354912Y648681D02*
X400876Y648681D01*
X400876Y655206D02*
X354912Y655206D01*
X354912Y661731D02*
X400876Y661731D01*
X400876Y668256D02*
X354912Y668256D01*
X354912Y674781D02*
X400876Y674781D01*
D20*
X406762Y675956D02*
X416026Y675956D01*
X406762Y675956D02*
X406762Y678220D01*
X416026Y678220D01*
X416026Y675956D01*
X416026Y670956D02*
X406762Y670956D01*
X406762Y673220D01*
X416026Y673220D01*
X416026Y670956D01*
X416026Y665956D02*
X406762Y665956D01*
X406762Y668220D01*
X416026Y668220D01*
X416026Y665956D01*
X416026Y660956D02*
X406762Y660956D01*
X406762Y663220D01*
X416026Y663220D01*
X416026Y660956D01*
X416026Y655956D02*
X406762Y655956D01*
X406762Y658220D01*
X416026Y658220D01*
X416026Y655956D01*
X416026Y650956D02*
X406762Y650956D01*
X406762Y653220D01*
X416026Y653220D01*
X416026Y650956D01*
X416026Y645956D02*
X406762Y645956D01*
X406762Y648220D01*
X416026Y648220D01*
X416026Y645956D01*
X416026Y640956D02*
X406762Y640956D01*
X406762Y643220D01*
X416026Y643220D01*
X416026Y640956D01*
X416026Y635956D02*
X406762Y635956D01*
X406762Y638220D01*
X416026Y638220D01*
X416026Y635956D01*
X416026Y630956D02*
X406762Y630956D01*
X406762Y633220D01*
X416026Y633220D01*
X416026Y630956D01*
X416026Y625956D02*
X406762Y625956D01*
X406762Y628220D01*
X416026Y628220D01*
X416026Y625956D01*
X401762Y623220D02*
X401762Y613956D01*
X401762Y623220D02*
X404026Y623220D01*
X404026Y613956D01*
X401762Y613956D01*
X401762Y616586D02*
X404026Y616586D01*
X404026Y619216D02*
X401762Y619216D01*
X401762Y621846D02*
X404026Y621846D01*
X396762Y623220D02*
X396762Y613956D01*
X396762Y623220D02*
X399026Y623220D01*
X399026Y613956D01*
X396762Y613956D01*
X396762Y616586D02*
X399026Y616586D01*
X399026Y619216D02*
X396762Y619216D01*
X396762Y621846D02*
X399026Y621846D01*
X391762Y623220D02*
X391762Y613956D01*
X391762Y623220D02*
X394026Y623220D01*
X394026Y613956D01*
X391762Y613956D01*
X391762Y616586D02*
X394026Y616586D01*
X394026Y619216D02*
X391762Y619216D01*
X391762Y621846D02*
X394026Y621846D01*
X386762Y623220D02*
X386762Y613956D01*
X386762Y623220D02*
X389026Y623220D01*
X389026Y613956D01*
X386762Y613956D01*
X386762Y616586D02*
X389026Y616586D01*
X389026Y619216D02*
X386762Y619216D01*
X386762Y621846D02*
X389026Y621846D01*
X381762Y623220D02*
X381762Y613956D01*
X381762Y623220D02*
X384026Y623220D01*
X384026Y613956D01*
X381762Y613956D01*
X381762Y616586D02*
X384026Y616586D01*
X384026Y619216D02*
X381762Y619216D01*
X381762Y621846D02*
X384026Y621846D01*
X376762Y623220D02*
X376762Y613956D01*
X376762Y623220D02*
X379026Y623220D01*
X379026Y613956D01*
X376762Y613956D01*
X376762Y616586D02*
X379026Y616586D01*
X379026Y619216D02*
X376762Y619216D01*
X376762Y621846D02*
X379026Y621846D01*
X371762Y623220D02*
X371762Y613956D01*
X371762Y623220D02*
X374026Y623220D01*
X374026Y613956D01*
X371762Y613956D01*
X371762Y616586D02*
X374026Y616586D01*
X374026Y619216D02*
X371762Y619216D01*
X371762Y621846D02*
X374026Y621846D01*
X366762Y623220D02*
X366762Y613956D01*
X366762Y623220D02*
X369026Y623220D01*
X369026Y613956D01*
X366762Y613956D01*
X366762Y616586D02*
X369026Y616586D01*
X369026Y619216D02*
X366762Y619216D01*
X366762Y621846D02*
X369026Y621846D01*
X361762Y623220D02*
X361762Y613956D01*
X361762Y623220D02*
X364026Y623220D01*
X364026Y613956D01*
X361762Y613956D01*
X361762Y616586D02*
X364026Y616586D01*
X364026Y619216D02*
X361762Y619216D01*
X361762Y621846D02*
X364026Y621846D01*
X356762Y623220D02*
X356762Y613956D01*
X356762Y623220D02*
X359026Y623220D01*
X359026Y613956D01*
X356762Y613956D01*
X356762Y616586D02*
X359026Y616586D01*
X359026Y619216D02*
X356762Y619216D01*
X356762Y621846D02*
X359026Y621846D01*
X351762Y623220D02*
X351762Y613956D01*
X351762Y623220D02*
X354026Y623220D01*
X354026Y613956D01*
X351762Y613956D01*
X351762Y616586D02*
X354026Y616586D01*
X354026Y619216D02*
X351762Y619216D01*
X351762Y621846D02*
X354026Y621846D01*
X349026Y628220D02*
X339762Y628220D01*
X349026Y628220D02*
X349026Y625956D01*
X339762Y625956D01*
X339762Y628220D01*
X339762Y633220D02*
X349026Y633220D01*
X349026Y630956D01*
X339762Y630956D01*
X339762Y633220D01*
X339762Y638220D02*
X349026Y638220D01*
X349026Y635956D01*
X339762Y635956D01*
X339762Y638220D01*
X339762Y643220D02*
X349026Y643220D01*
X349026Y640956D01*
X339762Y640956D01*
X339762Y643220D01*
X339762Y648220D02*
X349026Y648220D01*
X349026Y645956D01*
X339762Y645956D01*
X339762Y648220D01*
X339762Y653220D02*
X349026Y653220D01*
X349026Y650956D01*
X339762Y650956D01*
X339762Y653220D01*
X339762Y658220D02*
X349026Y658220D01*
X349026Y655956D01*
X339762Y655956D01*
X339762Y658220D01*
X339762Y663220D02*
X349026Y663220D01*
X349026Y660956D01*
X339762Y660956D01*
X339762Y663220D01*
X339762Y668220D02*
X349026Y668220D01*
X349026Y665956D01*
X339762Y665956D01*
X339762Y668220D01*
X339762Y673220D02*
X349026Y673220D01*
X349026Y670956D01*
X339762Y670956D01*
X339762Y673220D01*
X339762Y678220D02*
X349026Y678220D01*
X349026Y675956D01*
X339762Y675956D01*
X339762Y678220D01*
X354026Y680956D02*
X354026Y690220D01*
X354026Y680956D02*
X351762Y680956D01*
X351762Y690220D01*
X354026Y690220D01*
X354026Y683586D02*
X351762Y683586D01*
X351762Y686216D02*
X354026Y686216D01*
X354026Y688846D02*
X351762Y688846D01*
X359026Y690220D02*
X359026Y680956D01*
X356762Y680956D01*
X356762Y690220D01*
X359026Y690220D01*
X359026Y683586D02*
X356762Y683586D01*
X356762Y686216D02*
X359026Y686216D01*
X359026Y688846D02*
X356762Y688846D01*
X364026Y690220D02*
X364026Y680956D01*
X361762Y680956D01*
X361762Y690220D01*
X364026Y690220D01*
X364026Y683586D02*
X361762Y683586D01*
X361762Y686216D02*
X364026Y686216D01*
X364026Y688846D02*
X361762Y688846D01*
X369026Y690220D02*
X369026Y680956D01*
X366762Y680956D01*
X366762Y690220D01*
X369026Y690220D01*
X369026Y683586D02*
X366762Y683586D01*
X366762Y686216D02*
X369026Y686216D01*
X369026Y688846D02*
X366762Y688846D01*
X374026Y690220D02*
X374026Y680956D01*
X371762Y680956D01*
X371762Y690220D01*
X374026Y690220D01*
X374026Y683586D02*
X371762Y683586D01*
X371762Y686216D02*
X374026Y686216D01*
X374026Y688846D02*
X371762Y688846D01*
X379026Y690220D02*
X379026Y680956D01*
X376762Y680956D01*
X376762Y690220D01*
X379026Y690220D01*
X379026Y683586D02*
X376762Y683586D01*
X376762Y686216D02*
X379026Y686216D01*
X379026Y688846D02*
X376762Y688846D01*
X384026Y690220D02*
X384026Y680956D01*
X381762Y680956D01*
X381762Y690220D01*
X384026Y690220D01*
X384026Y683586D02*
X381762Y683586D01*
X381762Y686216D02*
X384026Y686216D01*
X384026Y688846D02*
X381762Y688846D01*
X389026Y690220D02*
X389026Y680956D01*
X386762Y680956D01*
X386762Y690220D01*
X389026Y690220D01*
X389026Y683586D02*
X386762Y683586D01*
X386762Y686216D02*
X389026Y686216D01*
X389026Y688846D02*
X386762Y688846D01*
X394026Y690220D02*
X394026Y680956D01*
X391762Y680956D01*
X391762Y690220D01*
X394026Y690220D01*
X394026Y683586D02*
X391762Y683586D01*
X391762Y686216D02*
X394026Y686216D01*
X394026Y688846D02*
X391762Y688846D01*
X399026Y690220D02*
X399026Y680956D01*
X396762Y680956D01*
X396762Y690220D01*
X399026Y690220D01*
X399026Y683586D02*
X396762Y683586D01*
X396762Y686216D02*
X399026Y686216D01*
X399026Y688846D02*
X396762Y688846D01*
X404026Y690220D02*
X404026Y680956D01*
X401762Y680956D01*
X401762Y690220D01*
X404026Y690220D01*
X404026Y683586D02*
X401762Y683586D01*
X401762Y686216D02*
X404026Y686216D01*
X404026Y688846D02*
X401762Y688846D01*
D17*
X457590Y376769D03*
X457590Y394269D03*
D18*
X420828Y377845D03*
X438328Y377845D03*
X420784Y392990D03*
X438284Y392990D03*
X421251Y408685D03*
X438751Y408685D03*
X421007Y424580D03*
X438507Y424580D03*
D17*
X415544Y497850D03*
X415544Y480350D03*
D18*
X484327Y665214D03*
X466827Y665214D03*
X474822Y651472D03*
X457322Y651472D03*
D21*
X374040Y532509D03*
X374040Y514009D03*
X397040Y514009D03*
X397040Y532509D03*
D17*
X378901Y496787D03*
X378901Y479287D03*
X392610Y496856D03*
X392610Y479356D03*
D22*
X475263Y476938D03*
X463263Y476938D03*
X463263Y508938D03*
X475263Y508938D03*
D17*
X448271Y480080D03*
X448271Y497580D03*
X350104Y480870D03*
X350104Y498370D03*
D23*
X581968Y828709D03*
D24*
X597507Y828709D03*
D25*
X552142Y829629D03*
X534142Y829629D03*
D26*
X496972Y434495D03*
D27*
X496972Y451495D03*
X515972Y432495D03*
X515972Y451495D03*
D16*
X142875Y555150D03*
X142875Y587850D03*
D28*
X315875Y824688D03*
X350875Y824688D03*
X315875Y842188D03*
X350875Y842188D03*
D29*
X729438Y850938D03*
X729438Y815938D03*
X746938Y850938D03*
X746938Y815938D03*
X1110438Y850938D03*
X1110438Y815938D03*
X1127938Y850938D03*
X1127938Y815938D03*
X1491438Y850938D03*
X1491438Y815938D03*
X1508938Y850938D03*
X1508938Y815938D03*
X1872438Y850938D03*
X1872438Y815938D03*
X1889938Y850938D03*
X1889938Y815938D03*
X2253438Y850938D03*
X2253438Y815938D03*
X2270938Y850938D03*
X2270938Y815938D03*
X2682063Y850938D03*
X2682063Y815938D03*
X2699563Y850938D03*
X2699563Y815938D03*
X2699563Y268250D03*
X2699563Y303250D03*
X2682063Y268250D03*
X2682063Y303250D03*
X2270938Y268250D03*
X2270938Y303250D03*
X2253438Y268250D03*
X2253438Y303250D03*
X1871696Y269145D03*
X1871696Y304145D03*
X1854196Y269145D03*
X1854196Y304145D03*
X1490696Y269145D03*
X1490696Y304145D03*
X1473196Y269145D03*
X1473196Y304145D03*
X1109696Y269145D03*
X1109696Y304145D03*
X1092196Y269145D03*
X1092196Y304145D03*
X746938Y268250D03*
X746938Y303250D03*
X729438Y268250D03*
X729438Y303250D03*
X347696Y269145D03*
X347696Y304145D03*
X330196Y269145D03*
X330196Y304145D03*
D30*
X252583Y974410D03*
X257583Y974410D03*
X262583Y974410D03*
X267583Y974410D03*
X272583Y974410D03*
X277583Y974410D03*
X282583Y974410D03*
X287583Y974410D03*
X292583Y974410D03*
X297583Y974410D03*
X302583Y974410D03*
X307583Y974410D03*
D31*
X308083Y986510D03*
X304083Y993510D03*
X296083Y993510D03*
X292083Y986510D03*
X288083Y993510D03*
X284083Y986510D03*
X276083Y986510D03*
X272083Y993510D03*
X268083Y986510D03*
X264083Y993510D03*
X256083Y993510D03*
X252083Y986510D03*
D32*
X244083Y980010D03*
D33*
X235183Y1033060D02*
X235183Y1041560D01*
X238783Y996760D02*
X238783Y988260D01*
X321383Y988260D02*
X321383Y996760D01*
X324983Y1033060D02*
X324983Y1041560D01*
D23*
X340325Y1002957D03*
D24*
X355864Y1002957D03*
D17*
X269551Y944402D03*
X269551Y926902D03*
X286730Y927049D03*
X286730Y944549D03*
D34*
X510162Y857853D03*
X490162Y857853D03*
X470162Y857853D03*
X450162Y857853D03*
D35*
X534162Y880353D03*
X426162Y880353D03*
D17*
X293451Y564361D03*
X293451Y546861D03*
D18*
X293876Y643920D03*
X276376Y643920D03*
D36*
X192828Y712745D03*
X170828Y722245D03*
X170828Y703245D03*
D37*
X130672Y480263D02*
X105145Y480263D01*
X337287Y769940D02*
X362814Y769940D01*
X1367684Y574399D02*
X1393211Y574399D01*
X2686203Y765556D02*
X2711730Y765556D01*
X2916204Y480245D02*
X2941731Y480245D01*
X2014662Y203598D02*
X1989135Y203598D01*
D38*
X333375Y738188D03*
X334197Y834253D03*
X258940Y920054D03*
X329746Y902937D03*
X315569Y973494D03*
X222410Y962592D03*
X363286Y480207D03*
X428339Y803053D03*
X428625Y857250D03*
X401760Y312615D03*
X404813Y381000D03*
X388037Y605954D03*
X368635Y999528D03*
X1448590Y785813D03*
X1905000Y238125D03*
X1881188Y304145D03*
X259835Y956102D03*
X295551Y964604D03*
X515394Y971832D03*
X513614Y897126D03*
X476250Y428625D03*
X461647Y727503D03*
X535339Y738188D03*
X521343Y829027D03*
X334036Y934878D03*
X2905125Y595313D03*
X125131Y638322D03*
X118998Y925968D03*
X154722Y646136D03*
X154722Y733685D03*
X145286Y631887D03*
X142875Y571500D03*
X136198Y628839D03*
X224141Y366294D03*
X127110Y629234D03*
X142875Y190500D03*
X532008Y639567D03*
X708336Y653739D03*
X895630Y656945D03*
X1083204Y659871D03*
X1270436Y663139D03*
X1458394Y665681D03*
X1645092Y669255D03*
X1835592Y672303D03*
X2026092Y675351D03*
X2216592Y678399D03*
X2407092Y681447D03*
X2600730Y690036D03*
X2883280Y571500D03*
X1558659Y288399D03*
X1857375Y285750D03*
X1857375Y330693D03*
X1093466Y283841D03*
X343439Y714009D03*
X343439Y733772D03*
X496024Y673733D03*
X428625Y673733D03*
X447927Y469682D03*
X430547Y649006D03*
X428625Y619125D03*
X428625Y561218D03*
X348603Y549721D03*
X339443Y614103D03*
X608612Y828566D03*
X2476500Y500063D03*
X746569Y861760D03*
X349182Y158070D03*
X386874Y119063D03*
X274327Y962509D03*
X485722Y653586D03*
X497754Y460269D03*
X309563Y857250D03*
X513087Y667069D03*
X565432Y785813D03*
X456156Y785458D03*
X476250Y809625D03*
X283415Y963696D03*
X495337Y665635D03*
X525220Y452238D03*
X358108Y927767D03*
X381000Y1023938D03*
X450011Y986300D03*
X494370Y904875D03*
X571500Y815246D03*
X522175Y668450D03*
X422402Y653713D03*
X426630Y492880D03*
X378080Y572870D03*
X385505Y517458D03*
X386424Y577379D03*
X401625Y542557D03*
X404357Y606326D03*
X414110Y508406D03*
X333375Y678907D03*
X350161Y509136D03*
X571214Y699557D03*
X590388Y532616D03*
X551881Y523875D03*
X547917Y336361D03*
X357188Y166688D03*
X377115Y342459D03*
X309563Y714375D03*
X249354Y907214D03*
X142875Y644023D03*
X142875Y809625D03*
X2881313Y809625D03*
X2889410Y267320D03*
X248671Y1010944D03*
M02*
