M48
;GenerationSoftware,Autodesk,EAGLE,9.6.2*%
;CreationDate,2020-11-16T15:23:25Z*%
FMAT,2
ICI,OFF
METRIC,TZ,000.000
T10C0.350
T9C0.400
T8C0.500
T7C0.650
T6C1.000
T5C1.300
T4C1.700
T3C1.702
T2C3.050
T1C4.000
%
G90
M71
T1
X285750Y38100
X259556Y19050
X19050Y95250
X190500Y95250
X283369Y19050
X204787Y57150
X223837Y57150
X21431Y57150
X180981Y27290
X204781Y27290
X261937Y57150
X152400Y19050
X152400Y95250
X285750Y95250
X257175Y19050
X242887Y57150
X23812Y19050
X61912Y38100
X80963Y38100
X47625Y19050
X100012Y38100
X119062Y38100
X69056Y19050
X190494Y27290
X38100Y95250
X235744Y19050
X90494Y27290
X138113Y38100
X157163Y38100
X176212Y38100
X95250Y95250
X280988Y19050
X133350Y95250
X140494Y19050
X195262Y38100
X285744Y48910
X261944Y48910
X30956Y38100
X214312Y38100
X233362Y38100
X259556Y38100
X21431Y19050
X19056Y29860
X42856Y29860
X269081Y38100
X57150Y95250
X171450Y95250
X45244Y19050
X71438Y19050
X257181Y29860
X280981Y29860
X276225Y95250
X273844Y57150
X114300Y95250
X211931Y19050
X233362Y19050
X264325Y87010
X288125Y87010
X283369Y66675
X76200Y95250
X266700Y95250
X291609Y54775
X291609Y78575
X111919Y19050
X209550Y27290
X95250Y27290
X100019Y27290
X123819Y27290
X192881Y19050
X209550Y95250
X228600Y95250
X247650Y95250
X23812Y76200
X47625Y76200
X66675Y76200
X85725Y76200
X104775Y76200
X123825Y76200
X142875Y76200
X161925Y76200
X180975Y76200
X200025Y76200
X219075Y76200
X238125Y76200
X257175Y76200
X280988Y76200
X26194Y57150
X52387Y57150
X71438Y57150
X90487Y57150
X109537Y57150
X128587Y57150
X147638Y57150
X166688Y57150
X185737Y57150
T2
X180981Y12050
X204781Y12050
X190494Y12050
X90494Y12050
X100019Y12050
X285744Y64150
X261944Y64150
X19056Y45100
X42856Y45100
X257181Y45100
X280981Y45100
X264325Y102250
X288125Y102250
X209550Y12050
X123819Y12050
X95250Y12050
X276369Y78575
X276369Y54775
T3
X269897Y76556
X138045Y57440
X35005Y76994
X11791Y48026
X200190Y20360
X292897Y48024
T4
X24130Y95250
X33020Y95250
X43180Y95250
X52070Y95250
X62230Y95250
X71120Y95250
X81280Y95250
X90170Y95250
X100330Y95250
X109220Y95250
X119380Y95250
X128270Y95250
X138430Y95250
X147320Y95250
X157480Y95250
X166370Y95250
X176530Y95250
X185420Y95250
X195580Y95250
X254476Y19050
X204470Y95250
X214630Y95250
X264636Y19050
X223520Y95250
X233680Y95250
X278289Y19050
X242570Y95250
X252730Y95250
X288449Y19050
X18733Y76200
X28892Y76200
X16351Y57150
X42545Y76200
X52705Y76200
X26511Y57150
X61595Y76200
X71755Y76200
X256857Y57150
X80645Y76200
X90805Y76200
X267018Y57150
X99695Y76200
X109855Y76200
X280670Y95250
X118745Y76200
X128905Y76200
X290830Y95250
X137795Y76200
X147955Y76200
X18733Y19050
X156845Y76200
X167005Y76200
X28892Y19050
X175895Y76200
X186055Y76200
X42545Y19050
X194945Y76200
X52705Y19050
X63976Y19050
X213995Y76200
X224155Y76200
X74136Y19050
X233045Y76200
X243205Y76200
X230664Y19050
X252095Y76200
X262255Y76200
X240824Y19050
X275908Y76200
X286068Y76200
X252095Y19050
X21114Y57150
X31274Y57150
X262255Y19050
X47307Y57150
X57467Y57150
X275908Y19050
X66358Y57150
X76518Y57150
X286068Y19050
X85408Y57150
X95567Y57150
X280670Y38100
X104457Y57150
X114617Y57150
X290830Y38100
X123507Y57150
X133668Y57150
X25876Y38100
X142558Y57150
X152718Y57150
X36036Y38100
X161608Y57150
X171768Y57150
X264001Y38100
X180657Y57150
X190817Y57150
X274161Y38100
X199707Y57150
X209867Y57150
X271145Y95250
X218757Y57150
X228917Y57150
X281305Y95250
X237807Y57150
X247967Y57150
X278289Y66675
X56832Y38100
X66993Y38100
X288449Y66675
X75883Y38100
X86043Y38100
X106839Y19050
X94932Y38100
X105092Y38100
X116999Y19050
X113982Y38100
X124142Y38100
X205105Y76200
X133033Y38100
X143193Y38100
X187801Y19050
X152083Y38100
X162243Y38100
X197961Y19050
X171133Y38100
X181292Y38100
X147320Y19050
X190182Y38100
X200342Y38100
X157480Y19050
X209232Y38100
X219392Y38100
X145574Y19050
X228282Y38100
X238442Y38100
X135414Y19050
X254476Y38100
X264636Y38100
X278924Y57150
X16351Y19050
X26511Y19050
X268764Y57150
X40164Y19050
X50324Y19050
X271780Y95250
X66358Y19050
X76518Y19050
X261620Y95250
X206851Y19050
X217011Y19050
X13970Y95250
X228282Y19050
X238442Y19050
T5
X207327Y62230
X220027Y59690
X226377Y62230
X239077Y59690
X58102Y40640
X64452Y43180
X77153Y40640
X83503Y43180
X96202Y40640
X102552Y43180
X115252Y40640
X121602Y43180
X134303Y40640
X140653Y43180
X153353Y40640
X159703Y43180
X172403Y40640
X178752Y43180
X191452Y40640
X197802Y43180
X210502Y40640
X216852Y43180
X229552Y40640
X235902Y43180
X255746Y40640
X262096Y43180
X17621Y21590
X23971Y24130
X41434Y21590
X47784Y24130
X67628Y21590
X73978Y24130
X208121Y21590
X214471Y24130
X229552Y21590
X235902Y24130
X255746Y21590
X262096Y24130
X279559Y21590
X285909Y24130
X17621Y59690
X23971Y62230
X258127Y59690
X264478Y62230
X281940Y97790
X288290Y100330
X20003Y21590
X43815Y21590
X50165Y24130
X65246Y21590
X71596Y24130
X231934Y21590
X238284Y24130
X253365Y21590
X259715Y24130
X277178Y21590
X283528Y24130
X281940Y40640
X288290Y43180
X27146Y40640
X33496Y43180
X265271Y40640
X271621Y43180
X272415Y97790
X278765Y100330
X279559Y69215
X285909Y71755
X108109Y21590
X114459Y24130
X189071Y21590
X195421Y24130
X148590Y21590
X154940Y24130
X262890Y97790
X269240Y100330
X270034Y59690
X276384Y62230
X136684Y21590
X143034Y24130
X26352Y24130
X245427Y62230
X15240Y97790
X21590Y100330
X34290Y97790
X40640Y100330
X53340Y97790
X59690Y100330
X72390Y97790
X78740Y100330
X91440Y97790
X97790Y100330
X110490Y97790
X116840Y100330
X129540Y97790
X135890Y100330
X148590Y97790
X154940Y100330
X167640Y97790
X173990Y100330
X186690Y97790
X193040Y100330
X205740Y97790
X212090Y100330
X224790Y97790
X231140Y100330
X243840Y97790
X250190Y100330
X20003Y78740
X26352Y81280
X43815Y78740
X50165Y81280
X62865Y78740
X69215Y81280
X81915Y78740
X88265Y81280
X100965Y78740
X107315Y81280
X120015Y78740
X126365Y81280
X139065Y78740
X145415Y81280
X158115Y78740
X164465Y81280
X177165Y78740
X183515Y81280
X196215Y78740
X202565Y81280
X215265Y78740
X221615Y81280
X234315Y78740
X240665Y81280
X253365Y78740
X259715Y81280
X277178Y78740
X283528Y81280
X22384Y59690
X28734Y62230
X48577Y59690
X54927Y62230
X67628Y59690
X73978Y62230
X86678Y59690
X93027Y62230
X105727Y59690
X112077Y62230
X124777Y59690
X131128Y62230
X143828Y59690
X150178Y62230
X162878Y59690
X169228Y62230
X181927Y59690
X188277Y62230
X200977Y59690
T6
X46514Y13970
X96520Y90170
X160655Y71120
X70168Y13970
X72708Y13970
X163195Y71120
X210661Y13970
X213201Y13970
X179705Y71120
X232092Y13970
X234632Y13970
X182245Y71120
X113030Y90170
X258286Y13970
X260826Y13970
X115570Y90170
X198755Y71120
X282099Y13970
X284639Y13970
X201295Y71120
X20161Y52070
X22701Y52070
X217805Y71120
X260667Y52070
X263208Y52070
X220345Y71120
X132080Y90170
X284480Y90170
X287020Y90170
X134620Y90170
X22542Y13970
X25082Y13970
X236855Y71120
X239395Y71120
X213042Y33020
X46355Y13970
X48895Y13970
X67786Y13970
X70326Y13970
X255905Y71120
X258445Y71120
X234474Y13970
X237014Y13970
X151130Y90170
X153670Y90170
X255905Y13970
X258445Y13970
X279718Y71120
X282258Y71120
X279718Y13970
X282258Y13970
X284480Y33020
X287020Y33020
X24924Y52070
X27464Y52070
X29686Y33020
X32226Y33020
X170180Y90170
X172720Y90170
X267811Y33020
X270351Y33020
X51117Y52070
X53657Y52070
X274955Y90170
X277495Y90170
X282099Y61595
X284639Y61595
X70168Y52070
X72708Y52070
X110649Y13970
X113189Y13970
X189230Y90170
X191770Y90170
X191611Y13970
X194151Y13970
X89217Y52070
X91757Y52070
X151130Y13970
X265430Y90170
X267970Y90170
X129857Y52070
X108267Y52070
X110807Y52070
X146368Y52070
X148908Y52070
X227330Y90170
X229870Y90170
X165418Y52070
X167958Y52070
X17780Y90170
X20320Y90170
X184467Y52070
X187007Y52070
X246380Y90170
X248920Y90170
X203517Y52070
X206057Y52070
X272574Y52070
X275114Y52070
X222567Y52070
X225107Y52070
X22542Y71120
X208280Y90170
X241617Y52070
X244157Y52070
X25082Y71120
X36830Y90170
X60642Y33020
X63182Y33020
X39370Y90170
X46355Y71120
X79693Y33020
X82233Y33020
X48895Y71120
X210820Y90170
X98742Y33020
X101282Y33020
X139224Y13970
X65405Y71120
X117792Y33020
X120332Y33020
X67945Y71120
X55880Y90170
X136843Y33020
X139383Y33020
X58420Y90170
X84455Y71120
X155893Y33020
X158433Y33020
X86995Y71120
X141764Y13970
X174942Y33020
X177482Y33020
X127317Y52070
X103505Y71120
X193992Y33020
X196532Y33020
X106045Y71120
X74930Y90170
X153670Y13970
X215582Y33020
X77470Y90170
X122555Y71120
X232092Y33020
X234632Y33020
X125095Y71120
X258286Y33020
X260826Y33020
X141605Y71120
X20161Y13970
X22701Y13970
X144145Y71120
X93980Y90170
X43974Y13970
T7
X24408Y98001
T8
X23518Y103731
X23878Y99251
X32138Y99251
X32498Y103731
T9
X27608Y98651
X30808Y98651
X30408Y99351
X29608Y99351
X29208Y98651
X28808Y99351
X28408Y98651
X27208Y99351
X26808Y98651
X26408Y99351
X25608Y99351
X25208Y98651
T10
X51539Y97183
X51361Y89713
X47625Y42863
X46165Y72750
X53534Y73819
X52134Y82903
X33404Y93488
X290513Y59531
X12513Y63832
X11900Y92597
X15472Y64614
X15472Y73368
X14529Y63189
X14287Y57150
X13620Y62884
X22414Y36629
X12711Y62923
X53201Y63957
X70834Y65374
X89563Y65695
X108320Y65987
X127044Y66314
X145839Y66568
X164509Y66925
X183559Y67230
X202609Y67535
X221659Y67840
X240709Y68145
X260073Y69004
X288328Y57150
X155866Y28840
X185737Y28575
X185737Y33069
X109347Y28384
X34344Y71401
X34344Y73377
X49602Y67373
X42863Y67373
X44793Y46968
X43055Y64901
X42863Y61912
X42863Y56122
X34860Y54972
X33944Y61410
X60861Y82857
X247650Y50006
X74657Y86176
X34918Y15807
X38687Y11906
X27433Y96251
X48572Y65359
X49775Y46027
X30956Y85725
X51309Y66707
X56543Y78581
X45616Y78546
X47625Y80963
X28342Y96370
X49534Y66563
X52522Y45224
X35811Y92777
X38100Y102394
X38551Y51746
X24867Y101094
X288941Y26732
X288131Y80963
X42663Y49288
X14287Y80963
X14287Y64402
X24935Y90721
X30956Y71438
X40162Y54256
X38642Y57738
X14287Y19050
X37808Y57287
X33420Y83425
X33338Y67891
X25894Y92005
X59039Y53262
X54792Y33636
X37711Y34246
X57121Y69956
X41411Y50841
X40436Y60633
X35719Y16669
X55188Y52387
X32975Y90294
X31557Y97349
X22241Y96259
X36329Y48021
X42834Y80305
X42863Y85725
X33338Y73819
X40176Y31261
X40481Y38100
X38804Y60595
X36864Y99953
X144859Y78581
X190500Y23812
X188119Y30415
X25983Y95610
X29555Y96460
X42240Y65371
X52218Y66845
X57150Y81525
X49437Y90487
X45001Y98630
X35016Y50914
M30